<svg width="39" height="39" fill="none" xmlns="http://www.w3.org/2000/svg"><path d="M34.26 11.33 21.61 25.76a2.878 2.878 0 0 1-2 1 2.81 2.81 0 0 1-2-.81l-5.42-5.41a2.812 2.812 0 0 1 0-4 2.82 2.82 0 0 1 4 0l3.37 3.3L30 7.67a2.81 2.81 0 0 1 4.85 1.61 2.768 2.768 0 0 1-.59 2.05Z" fill="#4D1BB6"/><path d="M38.6 19.52a19 19 0 1 1-19-19c1.519 0 3.032.178 4.51.53.098.016.195.04.29.07a2.8 2.8 0 0 1 1.65 1.37 2.77 2.77 0 0 1 .2 2.13 2.81 2.81 0 0 1-3.51 1.85 14.52 14.52 0 0 0-3.14-.35A13.4 13.4 0 1 0 33 19.52a2.81 2.81 0 0 1 5.61 0h-.01Z" fill="#4D1BB6"/></svg>