<svg width="37" height="36" fill="none" xmlns="http://www.w3.org/2000/svg"><path d="M36 23.11v6.82A6.07 6.07 0 0 1 29.94 36H6.08A6.072 6.072 0 0 1 0 29.93v-6.82a2.65 2.65 0 1 1 5.3 0v6.82a.76.76 0 0 0 .76.76H30a.76.76 0 0 0 .75-.76v-6.82a2.66 2.66 0 0 1 5.31 0H36Z" fill="#4D1BB6"/><path d="M27.49 16.33a2.66 2.66 0 0 1-.77 1.88l-6.83 6.82a2.64 2.64 0 0 1-.89.58 2.43 2.43 0 0 1-1 .19 2.679 2.679 0 0 1-1-.21 2.861 2.861 0 0 1-.84-.54l-6.84-6.84a2.68 2.68 0 0 1 0-3.76 2.71 2.71 0 0 1 3.76 0l2.3 2.3V2.65a2.65 2.65 0 0 1 5.3 0v14.06l2.28-2.3a2.72 2.72 0 0 1 3.77 0 2.638 2.638 0 0 1 .76 1.92Z" fill="#4D1BB6"/></svg>