<svg width="42" height="42" viewBox="0 0 42 42" fill="none" xmlns="http://www.w3.org/2000/svg">
<path d="M40.251 15.7471L26.2459 1.72318C26.0174 1.48966 25.7438 1.30514 25.4418 1.18086C25.1398 1.05659 24.8157 0.995154 24.4893 1.0003C23.842 1.01672 23.2241 1.27451 22.7567 1.72318L6.97083 17.5061L1.74899 22.759C1.51235 22.9841 1.32392 23.2551 1.19516 23.5554C1.0664 23.8557 1 24.1791 1 24.506C1 24.8328 1.0664 25.1562 1.19516 25.4565C1.32392 25.7569 1.51235 26.0278 1.74899 26.2529L15.7541 40.2768C15.9826 40.5103 16.2562 40.6949 16.5582 40.8191C16.8602 40.9434 17.1843 41.0048 17.5108 40.9997C18.1581 40.9833 18.7759 40.7255 19.2433 40.2768L35.0292 24.4457L40.251 19.241C40.4877 19.0159 40.6761 18.7449 40.8048 18.4446C40.9336 18.1443 41 17.8209 41 17.494C41 17.1672 40.9336 16.8438 40.8048 16.5435C40.6761 16.2431 40.4877 15.9722 40.251 15.7471ZM17.4626 38.566L3.45752 24.4939L8.72748 19.2651L22.7567 33.3131L17.4626 38.566ZM33.2485 22.759L19.2674 8.71103L24.4893 3.434L38.5425 17.5061L33.2485 22.759Z" fill="#4D1BB6" stroke="#4D1BB6" stroke-width="0.5" stroke-miterlimit="10"/>
</svg>
