<svg width="41" height="43" viewBox="0 0 41 43" fill="none" xmlns="http://www.w3.org/2000/svg">
<path d="M41 36.3762C41 38.133 40.2976 39.8178 39.0475 41.06C37.7973 42.3022 36.1017 43 34.3337 43C32.5657 43 30.8701 42.3022 29.6199 41.06C28.3698 39.8178 27.6674 38.133 27.6674 36.3762C27.6674 33.807 30.9429 29.4152 32.9019 27.0184C33.6513 26.1015 35.0161 26.1015 35.7655 27.0184C37.7245 29.4152 41 33.807 41 36.3762Z" fill="#4D1BB6"/>
<path d="M33.6671 13.4136C32.4693 10.8755 30.8123 8.57791 28.7785 6.63517C26.5939 4.37816 23.9396 2.62241 21.0012 1.49066C20.3252 1.16769 19.5847 1 18.8346 1C18.0845 1 17.3441 1.16769 16.6681 1.49066C15.2226 3.03935 13.8579 4.66064 12.5794 6.34814L11.1573 8.07033L9.75737 9.74837L8.37967 11.4485L6.93531 13.1928L2.06893 19.1101C-0.153168 21.318 1.18009 26.043 5.2243 30.0394C7.32835 32.3793 10.2375 33.8522 13.3794 34.1682C13.8837 34.1905 14.3873 34.112 14.8606 33.9376C15.3338 33.7631 15.7671 33.4962 16.1348 33.1526L33.4227 19.1101C34.6893 17.9398 34.7337 15.9306 33.6671 13.4136ZM14.646 31.607C13.5349 32.711 9.93514 31.607 6.80199 28.4938C3.66884 25.3806 2.53557 21.87 3.71328 20.5894L8.57966 14.6721L10.0018 12.9499L11.3351 11.316L12.7128 9.66005L14.1571 7.91578L15.557 6.21566C16.6825 9.34775 18.5497 12.1649 21.0012 14.4292C22.9087 16.4306 25.1678 18.0692 27.6675 19.2646C28.133 19.4757 28.6163 19.6456 29.1118 19.7724L14.646 31.607ZM31.9339 17.5645C30.7562 18.7347 26.6008 16.9463 22.5122 12.8837C18.4235 8.82103 16.7347 4.64802 18.068 3.38949C19.4013 2.13096 23.8899 4.80258 27.2897 8.18073C30.2895 11.2277 33.2894 16.2176 31.9339 17.5645Z" fill="#4D1BB6" stroke="#4D1BB6" stroke-miterlimit="10"/>
<path d="M11.1573 8.0703L12.5794 6.34811C10.7751 4.59546 8.42402 3.5053 5.91313 3.25698C5.15504 3.22292 4.41352 3.48436 3.84659 3.98561C2.24668 5.7078 3.60216 9.88082 6.9353 13.1927L8.37966 11.4485C5.60204 8.55605 5.15762 5.9286 5.44649 5.46493C6.53837 5.41623 7.62617 5.62723 8.61945 6.08038C9.61273 6.53353 10.4828 7.21575 11.1573 8.0703Z" fill="#4D1BB6" stroke="#4D1BB6" stroke-miterlimit="10"/>
<path d="M14.046 15.3345L12.4683 16.88C11.0561 16.3672 9.7413 15.6207 8.57965 14.6721L10.0018 12.9499C11.2797 13.8568 12.6326 14.6545 14.046 15.3345Z" fill="#4D1BB6" stroke="#4D1BB6" stroke-miterlimit="10"/>
<path d="M14.3349 14.2967C13.8954 14.2967 13.4657 14.4262 13.1003 14.6688C12.7349 14.9114 12.4501 15.2562 12.2819 15.6597C12.1137 16.0631 12.0697 16.5071 12.1555 16.9354C12.2412 17.3637 12.4528 17.7571 12.7636 18.0659C13.0744 18.3747 13.4703 18.585 13.9013 18.6702C14.3324 18.7554 14.7792 18.7116 15.1852 18.5445C15.5913 18.3774 15.9383 18.0944 16.1825 17.7313C16.4266 17.3682 16.557 16.9413 16.557 16.5046C16.557 15.9191 16.3228 15.3575 15.9061 14.9434C15.4894 14.5293 14.9242 14.2967 14.3349 14.2967Z" fill="#4D1BB6"/>
</svg>
