<svg width="38" height="38" fill="none" xmlns="http://www.w3.org/2000/svg"><path d="m13.5583 29.9335-1.8744 1.9635c-.7852.8147-1.84286 1.2714-2.94467 1.2714s-2.15945-.4567-2.94469-1.2714c-.38286-.3996-.68678-.8752-.89419-1.3994-.20741-.5242-.3142-1.0865-.3142-1.6545 0-.5679.10679-1.1302.3142-1.6544.20741-.5242.51133-.9999.89419-1.3995l6.89606-7.2079c1.4278-1.4953 4.1167-3.6954 6.0768-1.6465.2109.2371.465.4269.7471.5582.282.1313.5863.2014.8946.206.3083.0047.6144-.0562.8999-.179.2855-.1228.5446-.3049.7618-.5356.2173-.2306.3882-.505.5027-.8068.1144-.3018.17-.6248.1634-.9498-.0066-.3249-.0752-.6451-.2018-.9415s-.3085-.5628-.5349-.7835c-3.3277-3.4832-8.2521-2.8392-12.54013 1.6465l-6.89602 7.2104c-.81481.8467-1.46125 1.8562-1.901509 2.9695-.440255 1.1132-.66548401 2.3078-.66251197 3.5139C-.0028138 30.0492.222474 31.2438.662722 32.357c.440248 1.1132 1.086618 2.1227 1.901328 2.9696C4.20636 37.0437 6.42719 38.005 8.74038 38c2.23772 0 4.47552-.8903 6.17632-2.6734l1.8768-1.9636c.214-.2231.3841-.4886.5006-.7811.1164-.2926.1769-.6065.178-.9238.0011-.3173-.0573-.6317-.1718-.9251-.1145-.2935-.2828-.5602-.4953-.7849-.4296-.454-1.0121-.7104-1.6205-.7132-.6083-.0027-1.1929.2484-1.6262.6986ZM35.4336 2.94839c-3.5799-3.74178-8.5829-3.944236-11.8921-.48053l-2.3349 2.4441c-.4315.45156-.6751 1.06528-.6773 1.70616-.0021.64088.2373 1.25642.6657 1.7112.4284.45479 1.0106.71157 1.6186.71386.608.00229 1.192-.25011 1.6234-.70166l2.3373-2.44167c1.7124-1.79527 3.9594-1.05131 5.4289.48053.7775.81714 1.2079 1.90016 1.2079 3.05391 0 1.15371-.4304 2.23681-1.2079 3.05151l-7.3589 7.6933c-3.3647 3.5149-4.9429 1.8684-5.6163 1.1635-.2136-.2236-.467-.4006-.7455-.521-.2785-.1204-.5769-.1818-.8779-.1807-.3011.0012-.599.0648-.8767.1873-.2777.1225-.5298.3014-.7419.5266-.2122.2252-.3801.4922-.4943.7858-.1143.2936-.1725.6081-.1714.9254.0011.3173.0614.6313.1776.9241.1162.2927.286.5585.4996.7821 1.5458 1.6147 3.3092 2.4148 5.1558 2.4148 2.2609 0 4.6514-1.2001 6.9261-3.5783l7.3589-7.6909c.813-.8481 1.4581-1.8579 1.8979-2.9709.4398-1.113.6654-2.3069.6638-3.51261.0021-1.20653-.2238-2.40142-.6644-3.51498s-1.0872-2.1235-1.902-2.97092Z" fill="#4D1BB6"/></svg>