<svg width="41" height="41" viewBox="0 0 41 41" fill="none" xmlns="http://www.w3.org/2000/svg">
<path d="M26.356 2.90848L28.5905 0.696168C28.8092 0.475576 29.0694 0.300487 29.356 0.181002C29.6426 0.0615169 29.95 0 30.2606 0C30.5711 0 30.8785 0.0615169 31.1651 0.181002C31.4518 0.300487 31.7119 0.475576 31.9306 0.696168L40.3042 9.05117C40.5247 9.26996 40.6997 9.53026 40.8191 9.81706C40.9385 10.1039 41 10.4115 41 10.7222C41 11.0329 40.9385 11.3405 40.8191 11.6273C40.6997 11.9141 40.5247 12.1744 40.3042 12.3932L38.0697 14.629L26.356 2.90848Z" fill="#4D1BB6"/>
<path d="M1 40L14.6659 38.0466L36.1175 16.5825L24.3568 4.81488L2.95228 26.3496L1 40ZM4.22243 36.7051L5.35146 28.7267L12.1727 35.5754L4.22243 36.7051ZM14.6189 34.0927L11.7258 31.2214L29.2963 13.6641L32.2129 16.5825L14.6189 34.0927ZM24.4038 8.7688L27.344 11.7107L9.77349 29.268L6.85683 26.3496L24.4038 8.7688Z" fill="#4D1BB6" stroke="#4D1BB6" stroke-width="0.25" stroke-miterlimit="10"/>
</svg>
