<svg width="40" height="42" viewBox="0 0 40 42" fill="none" xmlns="http://www.w3.org/2000/svg">
<path d="M0 21.2855C0.003666 25.3806 1.24595 29.383 3.57016 32.7877C5.89437 36.1924 9.19639 38.847 13.0597 40.4166C16.9231 41.9862 21.1746 42.4006 25.2782 41.6074C29.3818 40.8142 33.1535 38.849 36.1176 35.9596C36.3696 35.5238 36.4697 35.0194 36.4026 34.5228C36.3355 34.0263 36.105 33.5647 35.7459 33.208C35.3869 32.8513 34.9188 32.6188 34.4127 32.5458C33.9066 32.4729 33.39 32.5634 32.9412 32.8037C31.0186 34.6474 28.6638 36.0018 26.0828 36.7484C23.5018 37.4949 20.7733 37.6109 18.136 37.0862C15.4986 36.5615 13.0328 35.4121 10.9541 33.7385C8.8755 32.0649 7.24742 29.9181 6.21232 27.4859C5.17722 25.0537 4.76664 22.4103 5.01649 19.7868C5.26633 17.1633 6.169 14.6397 7.64553 12.4368C9.12205 10.2339 11.1274 8.41882 13.4863 7.15028C15.8451 5.88175 18.4855 5.19843 21.1765 5.16013C25.4913 5.13955 29.6381 6.79663 32.7059 9.76738H27.6706C27.0466 9.76738 26.4481 10.0101 26.0068 10.4421C25.5655 10.8741 25.3176 11.46 25.3176 12.071C25.3176 12.682 25.5655 13.2679 26.0068 13.6999C26.4481 14.1319 27.0466 14.3746 27.6706 14.3746H37.6471C38.2711 14.3746 38.8696 14.1319 39.3108 13.6999C39.7521 13.2679 40 12.682 40 12.071V2.30363C40 1.69267 39.7521 1.10673 39.3108 0.674717C38.8696 0.242703 38.2711 0 37.6471 0C37.023 0 36.4245 0.242703 35.9833 0.674717C35.542 1.10673 35.2941 1.69267 35.2941 2.30363V5.85121C31.4276 2.42356 26.3925 0.533901 21.1765 0.552871C15.5601 0.552871 10.1738 2.7372 6.20244 6.62532C2.23109 10.5134 0 15.7869 0 21.2855Z" fill="#4D1BB6"/>
</svg>
