<svg width="36" height="37" fill="none" xmlns="http://www.w3.org/2000/svg"><path d="M23.76 21.43c1.292 0 2.34-1.285 2.34-2.87 0-1.585-1.048-2.87-2.34-2.87-1.292 0-2.34 1.285-2.34 2.87 0 1.585 1.048 2.87 2.34 2.87Z" fill="#4D1BB6"/><path d="M35.96 5.54a2.63 2.63 0 0 0-2.09-2.13L16.73 0h-.39a2.67 2.67 0 0 0-2.67 2.26v31.57A2.65 2.65 0 0 0 16.28 36c.176.015.354.015.53 0l17.12-3.42.37-.11a2.64 2.64 0 0 0 1.69-2.46v-24l-.03-.47Zm-4.27 23.22L17.95 31.1V4.83l13.74 2.34v21.59ZM4.31 7.69v20.6h5.92v4.28H2.65a2.63 2.63 0 0 1-2.6-2.17L0 30.02v-24a2.65 2.65 0 0 1 2.18-2.6h8.05v4.27H4.31Z" fill="#4D1BB6"/></svg>