<svg width="40" height="40" viewBox="0 0 40 40" fill="none" xmlns="http://www.w3.org/2000/svg">
<path d="M26.6667 16.1905C28.7387 16.1905 30.7641 16.8049 32.4869 17.956C34.2097 19.1071 35.5525 20.7433 36.3454 22.6576C37.1383 24.5718 37.3458 26.6783 36.9416 28.7104C36.5373 30.7426 35.5396 32.6093 34.0745 34.0744C32.6093 35.5395 30.7427 36.5373 28.7105 36.9415C26.6783 37.3457 24.5719 37.1383 22.6576 36.3454C20.7434 35.5524 19.1072 34.2097 17.9561 32.4869C16.8049 30.7641 16.1905 28.7386 16.1905 26.6666C16.1955 23.8897 17.3009 21.228 19.2645 19.2644C21.228 17.3008 23.8898 16.1955 26.6667 16.1905ZM26.6667 13.3333C24.0296 13.3333 21.4517 14.1153 19.2591 15.5804C17.0664 17.0455 15.3575 19.1278 14.3483 21.5642C13.3391 24.0005 13.0751 26.6814 13.5896 29.2678C14.104 31.8542 15.3739 34.23 17.2386 36.0947C19.1033 37.9594 21.4791 39.2293 24.0655 39.7438C26.6519 40.2582 29.3328 39.9942 31.7691 38.985C34.2055 37.9758 36.2878 36.2669 37.7529 34.0742C39.218 31.8816 40 29.3037 40 26.6666C40 23.1304 38.5952 19.739 36.0948 17.2386C33.5943 14.7381 30.2029 13.3333 26.6667 13.3333Z" fill="#4D1BB6"/>
<path d="M22.8571 2.85714C23.1097 2.85714 23.3519 2.95748 23.5306 3.13609C23.7092 3.31469 23.8095 3.55693 23.8095 3.80952V22.8571C23.8095 23.1097 23.7092 23.352 23.5306 23.5306C23.3519 23.7092 23.1097 23.8095 22.8571 23.8095H3.80952C3.55693 23.8095 3.31469 23.7092 3.13609 23.5306C2.95748 23.352 2.85714 23.1097 2.85714 22.8571V3.80952C2.85714 3.55693 2.95748 3.31469 3.13609 3.13609C3.31469 2.95748 3.55693 2.85714 3.80952 2.85714H22.8571ZM22.8571 0H3.80952C2.79917 0 1.83021 0.401359 1.11578 1.11578C0.401359 1.83021 0 2.79917 0 3.80952V22.8571C0 23.8675 0.401359 24.8364 1.11578 25.5509C1.83021 26.2653 2.79917 26.6666 3.80952 26.6666H22.8571C23.8675 26.6666 24.8364 26.2653 25.5509 25.5509C26.2653 24.8364 26.6666 23.8675 26.6666 22.8571V3.80952C26.6666 2.79917 26.2653 1.83021 25.5509 1.11578C24.8364 0.401359 23.8675 0 22.8571 0Z" fill="#4D1BB6"/>
</svg>
