<svg width="54" height="54" viewBox="0 0 54 54" fill="none" xmlns="http://www.w3.org/2000/svg">
<path d="M14.2695 14.2695C12.597 15.9404 11.271 17.9251 10.3675 20.1098C9.46397 22.2944 9.00079 24.636 9.00451 27.0001H1.43644e-05C-0.0036488 23.454 0.693347 19.9421 2.05096 16.6662C3.40858 13.3903 5.40006 10.415 7.91101 7.91101L14.2695 14.2695Z" fill="#3AA9DB"/>
<path d="M27 1.43644e-05V9.00447C24.6359 9.00075 22.2943 9.46393 20.1097 10.3674C17.925 11.2709 15.9403 12.597 14.2695 14.2695L7.91098 7.91098C10.4149 5.40004 13.3903 3.40857 16.6662 2.05096C19.9421 0.693345 23.4539 -0.00364878 27 1.43644e-05V1.43644e-05Z" fill="#57D30F"/>
<path d="M46.089 7.91098L39.7305 14.2695C38.0596 12.597 36.0749 11.2709 33.8903 10.3674C31.7057 9.46393 29.3641 9.00075 27 9.00447V1.43644e-05C30.5461 -0.00364878 34.0579 0.693345 37.3338 2.05096C40.6097 3.40857 43.5851 5.40004 46.089 7.91098V7.91098Z" fill="#FFE600"/>
<path d="M54 27H44.9955C44.9992 24.6359 44.536 22.2943 43.6325 20.1097C42.729 17.925 41.403 15.9403 39.7305 14.2695L46.089 7.91095C48.5999 10.4149 50.5914 13.3903 51.9491 16.6662C53.3067 19.9421 54.0037 23.4539 54 27V27Z" fill="#FF9E1D"/>
<path d="M54 27C54.0037 30.5461 53.3067 34.0579 51.9491 37.3338C50.5914 40.6097 48.5999 43.5851 46.089 46.089L39.7305 39.7305C41.403 38.0596 42.729 36.0749 43.6325 33.8903C44.536 31.7057 44.9992 29.3641 44.9955 27H54Z" fill="#ED2929"/>
<path d="M46.089 46.089C43.5851 48.5999 40.6097 50.5914 37.3338 51.949C34.0579 53.3066 30.5461 54.0036 27 54V44.9955C29.3641 44.9992 31.7057 44.536 33.8903 43.6325C36.0749 42.729 38.0596 41.403 39.7305 39.7305L46.089 46.089Z" fill="#F92B6F"/>
<path d="M27 44.9955V54C23.4539 54.0036 19.9421 53.3066 16.6662 51.949C13.3903 50.5914 10.4149 48.5999 7.91098 46.089L14.2695 39.7305C15.9403 41.403 17.925 42.729 20.1097 43.6325C22.2943 44.536 24.6359 44.9992 27 44.9955V44.9955Z" fill="#AB05E8"/>
<path d="M14.2695 39.7305L7.91101 46.089C5.40006 43.5851 3.40858 40.6097 2.05096 37.3338C0.693347 34.0579 -0.0036488 30.5461 1.43644e-05 27H9.00451C9.00079 29.3641 9.46397 31.7057 10.3675 33.8903C11.271 36.0749 12.597 38.0596 14.2695 39.7305V39.7305Z" fill="#4431FF"/>
</svg>
