<svg width="38" height="40" viewBox="0 0 38 40" fill="none" xmlns="http://www.w3.org/2000/svg">
<path d="M38 20.1337C37.9965 24.0072 36.8163 27.793 34.6083 31.0135C32.4003 34.2339 29.2634 36.7449 25.5933 38.2295C21.9231 39.7142 17.8841 40.1062 13.9857 39.3559C10.0873 38.6056 6.50417 36.7467 3.68824 34.0138C3.41007 33.5919 3.28971 33.0894 3.34747 32.591C3.40522 32.0927 3.63755 31.629 4.00525 31.2783C4.37295 30.9275 4.85352 30.7111 5.36587 30.6656C5.87822 30.6202 6.39099 30.7483 6.81765 31.0286C8.6474 32.776 10.8893 34.0589 13.3464 34.7645C15.8036 35.4701 18.4009 35.5768 20.9102 35.0753C23.4196 34.5739 25.7643 33.4795 27.7385 31.8884C29.7126 30.2973 31.2558 28.258 32.2326 25.9497C33.2094 23.6413 33.5899 21.1345 33.3407 18.6494C33.0915 16.1642 32.2202 13.7767 30.8033 11.6964C29.3864 9.6162 27.4673 7.90686 25.2144 6.71852C22.9615 5.53017 20.4438 4.89917 17.8824 4.8809C13.7832 4.86143 9.8438 6.42885 6.92941 9.23884H11.7129C12.3058 9.23884 12.8743 9.46841 13.2935 9.87705C13.7127 10.2857 13.9482 10.8399 13.9482 11.4178C13.9482 11.9957 13.7127 12.5499 13.2935 12.9586C12.8743 13.3672 12.3058 13.5968 11.7129 13.5968H2.23529C1.64246 13.5968 1.0739 13.3672 0.654703 12.9586C0.235504 12.5499 0 11.9957 0 11.4178V2.17897C0 1.60107 0.235504 1.04684 0.654703 0.638206C1.0739 0.22957 1.64246 0 2.23529 0C2.82813 0 3.39669 0.22957 3.81589 0.638206C4.23508 1.04684 4.47059 1.60107 4.47059 2.17897V5.53459C8.1438 2.29242 12.9271 0.50501 17.8824 0.522953C23.2179 0.522953 28.3349 2.58908 32.1077 6.26681C35.8805 9.94454 38 14.9326 38 20.1337Z" fill="#4D1BB6"/>
</svg>
