<svg version="1.1" id="Camada_1" xmlns="http://www.w3.org/2000/svg" x="0" y="0" viewBox="0 0 80 56" style="enable-background:new 0 0 80 56" xml:space="preserve"><style>.st1,.st4,.st8{fill-rule:evenodd;clip-rule:evenodd;fill:#fff}.st4,.st8{fill:#908db7}.st8{fill:#211256}</style><g id="Page-1"><g id="Desktop-HD-Copy-56" transform="translate(-317 -476)"><g id="Group-62" transform="translate(317 476)"><g id="Group-3"><defs><filter id="Adobe_OpacityMaskFilter" filterUnits="userSpaceOnUse" x="9.3" y="6.5" width="61.3" height="42.9"><feColorMatrix values="1 0 0 0 0 0 1 0 0 0 0 0 1 0 0 0 0 0 1 0"/></filter></defs><mask maskUnits="userSpaceOnUse" x="9.3" y="6.5" width="61.3" height="42.9" id="mask-2_2_"><g style="filter:url(#Adobe_OpacityMaskFilter)"><path id="path-1_2_" class="st1" d="M9.3 6.5h61.4v43H9.3z"/></g></mask><path id="Fill-1" d="M69.3 12.3C67.1 8 62.7 5.8 58.2 6.7 51.6 8.9 45.4 14 40 21.9 34.7 14.1 28.6 9.1 22 6.8c-4.1-.9-8.2.8-10.7 4.5s-2.6 8.2-.3 11.6l.1.1c1.8 1.7 3.4 3.1 4.8 4.3 4.5 3.8 7.7 6.6 13.3 17 2 3.2 6.2 5.2 10.8 5.2 4.6 0 8.8-2 10.9-5.2 7.3-12.5 9.6-14.5 16.8-19.6 3.3-3.3 3.9-8.1 1.6-12.4" style="mask:url(#mask-2_2_);fill-rule:evenodd;clip-rule:evenodd;fill:#fff"/></g><path id="Fill-4" d="M66.3 13.9c-.9-1.5-1.8-3-3.1-4.2-1.3-1.2-3.1-1.9-4.8-1.5-.8.2-1.6.6-2.4 1.1-7 4.3-18.6 16.7-20.3 27.6-.5 2.8-.6 6 1.7 7.8.8.6 1.8.9 2.8 1 2.7.2 7.4-.2 8.7-2.6 7-13 13.2-16.5 17.6-21.1.8-.9 1.3-3.5 1.2-4.7-.1-1.3-.8-2.4-1.4-3.4" style="fill-rule:evenodd;clip-rule:evenodd;fill:#c0bcdd"/><path id="Fill-6" class="st4" d="M22.2 10.3c.7.2 1.3.5 1.9.8.2.1.3.1.5.1.3 0 .5-.1.7-.3.3-.3.2-.7-.2-1-.7-.4-1.5-.8-2.3-1-.4-.1-.9.1-1.1.4-.2.5 0 .9.5 1"/><path id="Fill-8" class="st4" d="M14.7 12.7c.2 0 .4-.1.5-.3.4-.5.9-.9 1.4-1.3.4-.2.5-.7.3-1.1-.2-.4-.6-.5-1-.3-.6.4-1.2.9-1.8 1.5-.3.3-.3.9 0 1.2.2.2.4.3.6.3"/><path id="Fill-10" class="st4" d="M27.1 17v.6c0 .5 0 .9-.1 1.4-.1.4.2.9.5.9h.1c.3 0 .6-.3.7-.6.1-.6.2-1.1.2-1.7v-.7c0-.4-.4-.8-.8-.7-.4 0-.7.4-.6.8"/><path id="Fill-12" class="st4" d="M25.7 12.9c.3.6.6 1.2.8 1.9.1.3.4.6.6.6.1 0 .2 0 .2-.1.4-.2.5-.7.4-1.1-.3-.8-.6-1.6-1-2.3-.2-.4-.7-.5-1-.2-.1.3-.2.8 0 1.2"/><path id="Fill-14" class="st4" d="M12.3 16.5h.2c.4 0 .7-.3.8-.7.1-.7.3-1.3.7-1.9.2-.4.1-.9-.3-1.1-.4-.2-.9-.1-1.1.3-.4.8-.6 1.6-.8 2.4-.2.5 0 .9.5 1"/><path id="Fill-16" class="st4" d="M21.3 9.3c0-.4-.3-.7-.8-.7h-1.2c-.4 0-.8.1-1.2.2-.4.1-.7.5-.6.8.1.3.4.5.8.5h.2c.3-.1.7-.1 1-.1h1c.3-.1.7-.3.8-.7"/><path id="Fill-18" class="st4" d="M24.2 22.6c-.6.3-1.3.5-1.9.7-.5.1-.7.5-.6.9.1.4.4.6.8.6h.2c.8-.2 1.6-.5 2.4-.8.4-.2.5-.7.3-1-.3-.4-.8-.6-1.2-.4"/><path id="Fill-20" class="st4" d="M15.9 22.8c-.5-.4-1-.8-1.4-1.3-.3-.3-.7-.4-1.1-.1-.3.3-.4.8-.1 1.1.5.6 1 1.2 1.7 1.7.1.1.3.2.5.2s.5-.1.6-.3c.2-.6.2-1.1-.2-1.3"/><path id="Fill-22" class="st4" d="M13.9 19.6c-.3-.6-.4-1.3-.5-2 0-.5-.5-.8-.9-.7-.5 0-.8.4-.8.9.1.8.3 1.6.6 2.4.1.3.5.5.8.5.1 0 .2 0 .3-.1.4-.1.6-.6.5-1"/><path id="Fill-24" class="st4" d="M19.7 23.6c-.7.1-1.4 0-2-.2-.4-.1-.9.2-1 .7-.1.5.2.8.7.9.8.2 1.6.2 2.4.1.4-.1.8-.4.8-.9 0-.4-.4-.7-.9-.6"/><path id="Fill-26" d="M67.6 17.3c0 4.2-3.4 7.7-7.7 7.7-4.2 0-7.7-3.4-7.7-7.7s3.4-7.7 7.7-7.7c4.3 0 7.7 3.4 7.7 7.7" style="fill-rule:evenodd;clip-rule:evenodd;fill:#ea267f"/><path id="Fill-28" d="M48.4 40.3c0 3.4-3.9 6.1-8.8 6.1s-8.8-2.7-8.8-6.1c0-3.4 3.9-6.1 8.8-6.1s8.8 2.7 8.8 6.1" style="fill-rule:evenodd;clip-rule:evenodd;fill:#dd97ba"/><path id="Fill-30" d="M40.4 34.7c-4.6 0-8.3 2.3-8.3 5.2s3.7 5.2 8.3 5.2 8.3-2.3 8.3-5.2-3.8-5.2-8.3-5.2m0 11.7c-5.3 0-9.6-2.9-9.6-6.5s4.3-6.5 9.6-6.5 9.6 2.9 9.6 6.5-4.3 6.5-9.6 6.5" style="fill-rule:evenodd;clip-rule:evenodd;fill:#514d6b"/><path id="Fill-32" class="st8" d="M60.3 10.1c-3.7 0-6.8 3-6.8 6.8s3 6.8 6.8 6.8c3.7 0 6.8-3 6.8-6.8s-3-6.8-6.8-6.8m0 15.6c-4.9 0-8.8-4-8.8-8.8s4-8.8 8.8-8.8 8.8 4 8.8 8.8-3.9 8.8-8.8 8.8"/><path id="Fill-34" class="st8" d="M21.5 18c-.2 0-.3 0-.4-.1-.6-.4-1.3-.9-2.1-1.3-.4-.2-.6-.7-.4-1.2.2-.4.7-.6 1.1-.4.8.4 1.6 1 2.3 1.4.4.3.5.8.2 1.2-.1.3-.4.4-.7.4"/><path id="Fill-36" class="st8" d="M27.7 23.4c-.2 0-.4-.1-.5-.2-1.2-1-2-1.6-3.1-2.5l-.7-.5c-.3-.3-.4-.8-.1-1.1.3-.3.8-.4 1.1-.1l.7.5c1.1.9 2 1.5 3.2 2.6.3.3.4.8.1 1.1-.2.1-.5.2-.7.2"/><path id="Fill-38" class="st8" d="M33.8 29.5c-.2 0-.5-.1-.6-.3-1.3-1.8-2.5-3.2-3.7-4.5-.3-.3-.3-.8 0-1.1.3-.3.8-.3 1.1 0 1.3 1.3 2.6 2.8 3.9 4.7.3.4.2.8-.2 1.1-.1.1-.3.1-.5.1"/><path id="Fill-40" class="st8" d="M40 41.8c-.2 0-.3 0-.4-.1l-.1-.1-.2-.2c0-.1-.1-.1-.1-.2-1-2.9-2.4-5.9-4.5-9.1-.2-.4-.1-.8.2-1.1.4-.2.8-.1 1.1.2 1.7 2.7 3 5.3 4 7.8 5-10.3 12.3-18.6 20.3-23.2.4-.2.8-.1 1.1.3.2.4.1.8-.3 1.1-8.2 4.6-15.6 13.4-20.4 24.1 0 .1-.1.2-.1.2l-.1.1c-.2.1-.3.2-.5.2z"/><path id="Fill-42" class="st8" d="M49.2 16.5c-.2 0-.4-.1-.5-.2-.3-.3-.3-.8 0-1.1 2-1.9 4.1-3.5 6.3-4.7.4-.2.8-.1 1 .3.2.4.1.8-.3 1-2.1 1.2-4.1 2.7-6 4.5-.2.1-.3.2-.5.2"/><path id="Fill-44" class="st8" d="M44.6 21.1c-.2 0-.3-.1-.5-.2-.3-.3-.4-.8-.1-1.2.8-1 1.6-2.1 2.4-3 .3-.3.8-.3 1.1 0 .3.3.3.8 0 1.2-.8.9-1.5 1.9-2.3 2.9-.2.2-.4.3-.6.3"/><path id="Fill-46" class="st8" d="M42.4 24.2c-.1 0-.3 0-.4-.1-.4-.2-.5-.7-.3-1l.6-.9c.3-.3.8-.4 1.2-.2.4.2.5.7.2 1-.2.3-.4.5-.6.8-.2.2-.4.4-.7.4"/><path id="Fill-48" class="st8" d="M48.5 21.9c-.2 0-.4-.1-.5-.2-.3-.3-.4-.8-.1-1.2 1.4-1.7 3.1-3.4 4.6-4.6.4-.3.9-.2 1.2.1.3.4.2.9-.1 1.2-1.4 1.1-3 2.8-4.4 4.4-.2.2-.5.3-.7.3"/><path id="Fill-50" class="st8" d="M53 27.2c-.2 0-.4-.1-.5-.2-.3-.3-.3-.8-.1-1.1 1-1.1 2.1-2.3 3.1-3.1.3-.3.8-.2 1.1.1.3.3.2.8-.1 1.1-1 .8-2.1 1.9-3 3 0 .1-.3.2-.5.2"/><path id="Fill-52" class="st8" d="M58.4 28.8c-.2 0-.4-.1-.5-.2-.3-.3-.3-.8 0-1 2-1.9 4.1-3.5 6.3-4.8.4-.2.8-.1 1 .3.2.3.1.8-.3 1-2.1 1.2-4.1 2.7-6 4.6-.1 0-.3.1-.5.1"/><path id="Fill-54" class="st8" d="M54.6 33.4c-.2 0-.3-.1-.5-.2-.3-.3-.4-.8-.2-1.1.7-1.1 1.5-2.1 2.3-3 .3-.3.8-.4 1.1-.1.3.3.3.8.1 1.2-.7.8-1.5 1.8-2.2 2.8-.2.3-.4.4-.6.4"/><path id="Fill-56" class="st8" d="M52.4 36.4c-.1 0-.3 0-.4-.1-.4-.2-.6-.6-.3-1l.6-.9c.3-.3.8-.4 1.2-.2.4.2.5.7.3 1-.2.3-.4.5-.6.8-.3.3-.5.4-.8.4"/><path id="Fill-58" class="st1" d="M64 20.3c-.1 0-.3 0-.4-.1-.5-.2-.7-.8-.5-1.3l.3-.9c.1-.5.6-.9 1.1-.8.5.1.9.6.8 1.1-.1.5-.2.9-.4 1.4-.2.4-.5.6-.9.6"/><path id="Fill-60" class="st1" d="M64.3 15.7c-.4 0-.7-.2-.9-.5-.5-.7-1.2-1.3-2-1.6-.5-.2-.8-.7-.5-1.2.2-.5.8-.7 1.4-.5 1.2.5 2.3 1.3 3 2.4.3.4.1 1-.4 1.3-.3.1-.5.1-.6.1"/></g></g></g></svg>