<svg version="1.1" id="Camada_1" xmlns="http://www.w3.org/2000/svg" x="0" y="0" viewBox="0 0 350 254" style="enable-background:new 0 0 350 254" xml:space="preserve"><style>.st0{fill:#fff}.st4{fill:#7990a5}.st5{fill:#211256}.st8{fill:#5635dc}.st9{fill-rule:evenodd;clip-rule:evenodd;fill:#a8bac6}.st10,.st11,.st12,.st13,.st14,.st15{fill-rule:evenodd;clip-rule:evenodd;fill:#fff}.st11,.st12,.st13,.st14,.st15{fill:#ea267f}.st12,.st13,.st14,.st15{fill:#ba206d}.st13,.st14,.st15{fill:#4ce0aa}.st14,.st15{fill:#e639ff}.st15{fill:#a623c1}</style><path class="st0" d="M543.3 474.5H390.2c-15.4 0-27.9 12.5-27.9 27.9v31.4h-52.2c-15.3 0-27.7 12.4-27.7 27.7v123.7c0 15.3 12.4 27.7 27.7 27.7h153.4c15.3 0 27.7-12.4 27.7-27.7v-31.5h52.1c15.4 0 27.9-12.5 27.9-27.9V502.4c0-15.4-12.5-27.9-27.9-27.9z"/><path d="M463.3 696.6H310.2c-6.6 0-11.9-5.3-11.9-11.9V561.2c0-6.6 5.3-11.9 11.9-11.9h153.1c6.6 0 11.9 5.3 11.9 11.9v123.5c0 6.5-5.3 11.9-11.9 11.9z" style="fill:#4ce0aa"/><path class="st0" d="M543.3 637.3H390.1c-6.6 0-11.9-5.3-11.9-11.9V502c0-6.6 5.3-11.9 11.9-11.9h153.1c6.6 0 11.9 5.3 11.9 11.9v123.5c0 6.5-5.3 11.8-11.8 11.8z"/><path d="M383.3 635.2c2.7 3.5 68.2 1.2 91.9-.4V561c0-6.5-5.3-11.7-11.7-11.7h-87.1c-2.5 23 1.8 79.3 6.9 85.9z" style="fill:#caefff"/><path d="M394.8 634.9c-5.1 2.8-13.2.3-13.2-7.2v-78.3H310c-6.5 0-11.7 5.3-11.7 11.7V673l38.1-40.8c4.3-4.7 11.6-4.9 16.3-.5l31.4 29.5c4.5 4.2 11.4 4.1 15.9-.1l20.2-19.5c4.3-4.2 11.1-4.3 15.6-.4l39.4 34.6V635l-80.4-.1z" style="fill:#00beea"/><path class="st4" d="M463.5 544.4h-84.8c-.6 3.3-1.1 6.6-1.5 9.9h86.3c3.7 0 6.8 3 6.8 6.8v70.6c3.3.1 6.6.3 9.9.7v-71.3c-.1-9.2-7.5-16.7-16.7-16.7z"/><path class="st5" d="M479.4 635.6c-3.8.4-6.8-.5-9.1-2.3v31.8l-31.8-27.9c-2.9-2.5-6.6-3.8-10.2-3.8-3.9 0-7.8 1.4-10.7 4.3l-20.2 19.5c-2.9 2.8-7.5 2.8-10.4.1l-31.5-29.6c-3-2.8-7-4.3-11.1-4.2s-8 1.9-10.8 4.9l-30.3 32.5v-99.8c0-3.7 3-6.8 6.8-6.8h70.8c-.8-1.2-1.3-2.8-1.3-4.5 0-1.8.7-3.8 1.9-5.3h-71.4c-9.2 0-16.7 7.5-16.7 16.7v123.7c0 9.2 7.5 16.7 16.7 16.7h153.4c9.2 0 16.7-7.5 16.7-16.7v-49.4c-.3 0-.6 0-.8.1zm-9.1 49.2c0 3.7-3 6.8-6.8 6.8H310.1c-3.7 0-6.8-3-6.8-6.8v-12.4l36.1-38.6c1.4-1.5 3.3-2.3 5.3-2.4 2-.1 3.9.7 5.4 2l31.4 29.5c6 5.6 15.4 5.6 21.3-.1l20.2-19.5c2.8-2.7 7.3-2.8 10.2-.2l37 32.5.1 9.2z"/><circle cx="340.7" cy="588.6" r="20.8" style="fill:#f9d15f"/><path class="st5" d="M340.7 612.9c-13.4 0-24.3-10.9-24.3-24.3s10.9-24.3 24.3-24.3 24.3 10.9 24.3 24.3-10.9 24.3-24.3 24.3zm0-41.5c-9.5 0-17.2 7.7-17.2 17.2s7.7 17.2 17.2 17.2 17.2-7.7 17.2-17.2-7.8-17.2-17.2-17.2zM543.3 642.3H390.1c-9.3 0-16.9-7.6-16.9-16.9V502c0-9.3 7.6-16.9 16.9-16.9h153.1c9.3 0 16.9 7.6 16.9 16.9v123.5c0 9.3-7.5 16.8-16.8 16.8zM390.1 495.1c-3.8 0-6.9 3.1-6.9 6.9v123.5c0 3.8 3.1 6.9 6.9 6.9h153.1c3.8 0 6.9-3.1 6.9-6.9V502c0-3.8-3.1-6.9-6.9-6.9H390.1z"/><path class="st5" d="M362.8 554.3v78.4c0 11.3 8.4 19.7 18.7 19.7h88.8v-14.8H390l-11.7-12v-71.3h-15.5z" style="opacity:.42"/><path class="st0" d="m481.1 611-.9-22.6-21.2-22.7c6-.4 7.5-1 13.3-1.7 4.1-.5 7.5-3.6 8.3-7.6l.4-1.9c1-4.7 1.9-9.2 1.7-14.9-.1-2.6-1.1-5-3-6.8s-4.3-2.7-6.8-2.6c-2.6.1-5 1.1-6.7 3-1.8 1.9-2.7 4.3-2.6 6.9.1 2-.1.5-.4 2.2-2.4.2-4.8.5-7.3.6 4.3-4.9 6.7-7.8 6.7-14.5 0-15.1-12.3-27.4-27.4-27.4s-27.4 12.3-27.4 27.4c0 11 6.7 20.8 16.6 25.1l-15.4 8.8c-2.3 1.3-4 3.6-4.6 6.2-.6 2.6-.1 5.4 1.5 7.6 1.1 1.7 2.1 3.7 3.1 5.8 1.3 2.8 2.6 5.6 4.7 8.6 1.8 2.6 4.8 4.2 7.9 4.2 2 0 3.8-.6 5.5-1.7 4.4-3 5.5-9 2.5-13.4-1-1.5-1.9-3.3-2.8-5.2l8.7-5 3.6 10.8-3.6 17.3-13.5 11.2c-4.1 3.4-4.6 9.5-1.3 13.6 1.8 2.2 4.5 3.5 7.4 3.5 2.2 0 4.4-.8 6.2-2.2l16.1-13.4c1.7-1.4 2.8-3.3 3.3-5.4l.1-.5 11.5 17.4c1.8 2.7 4.8 4.3 8 4.3 1.9 0 3.7-.5 5.3-1.6 4.2-3 5.4-9 2.5-13.4z"/><path class="st4" d="m476.8 613.8-23.9-36.2-5.5-16.6c8.1-.4 16.2-1.1 24.2-2 1.9-.2 3.5-1.7 3.9-3.6l.4-1.9c.9-4.4 1.8-8.6 1.6-13.7-.1-2.5-2.1-4.5-4.6-4.4s1.2 2.1 1.3 4.6c.1 3.7 5.2 6.8 4.5 10.4-7.4.8-26.2 1.4-33.5 1.7-.2 0-.4.1-.6.1l-1.1-3.2c8.1-3.3 13.9-11.3 13.9-20.6 0-12.3-10-22.3-22.3-22.3s-22.3 10-22.3 22.3c0 12.1 9.6 21.9 21.6 22.2l.8 2.5-23.8 13.6c-1.1.6-1.9 1.7-2.2 2.9-.3 1.2 0 2.5.7 3.6 1.4 2 2.4 4.2 3.5 6.6 1.2 2.6 2.4 5.2 4.3 7.9.9 1.3 2.3 2 3.7 2 .9 0 1.8-.3 2.6-.8 2.1-1.4 2.6-4.2 1.2-6.3-1.4-2-2.4-4.2-3.5-6.6-.6-1.2-1.1-2.4-1.8-3.7l18.3-10.4 6 18-4.3 20.4-14.9 12.4c-1.9 1.6-2.2 4.5-.6 6.4.9 1.1 2.2 1.6 3.5 1.6 1 0 2-.3 2.9-1l16.1-13.4c.8-.7 1.3-1.6 1.5-2.6l2.6-12.5 18.2 27.6c.9 1.3 2.3 2 3.8 2 .9 0 1.7-.2 2.5-.7 2.1-1.4 2.7-4.2 1.3-6.3zm-54.9-85.4c0-7.3 5.9-13.2 13.2-13.2s13.2 5.9 13.2 13.2-5.9 13.2-13.2 13.2-13.2-5.9-13.2-13.2z"/><path class="st0" d="M532.1 550.4c-2.2-1.7-4.8-2.4-7.5-2.1-2.7.3-5.1 1.7-6.8 3.9-1.1 1.4-2.2 2.6-3.5 3.7-2-1.3-4-2.7-6-4.1 7.7-5.1 12.7-13.8 12.7-23.4 0-15.4-12.5-27.9-27.9-27.9s-27.9 12.5-27.9 27.9c0 8.7 4 16.6 10.5 21.8l-16 9.1c-2.5 1.4-4.3 3.8-4.9 6.6s-.1 5.7 1.5 8.1c1.1 1.6 2 3.5 3 5.7 1.2 2.7 2.6 5.7 4.7 8.7 1.9 2.8 5 4.4 8.4 4.4.5 0 1.1 0 1.6-.1L463.5 611c-1.4 2.4-1.7 5.1-1 7.7.7 2.6 2.4 4.8 4.8 6.2 1.5.9 3.3 1.4 5.1 1.4 3.6 0 7-2 8.8-5.1l12.7-22.1L509 622c1.9 2.9 5.1 4.6 8.5 4.6 2 0 3.9-.6 5.6-1.7 4.7-3.1 6-9.4 2.9-14.1l-22.5-34.1v-3.3c2.1 1.4 4.1 2.7 6.1 4 1.6 1 3.5 1.6 5.5 1.6 2.4 0 4.6-.8 6.5-2.3l1.5-1.2c3.6-2.9 7.3-6 10.9-10.5 3.3-4.7 2.5-11.2-1.9-14.6z"/><path class="st5" d="M493 550.1c-12 0-21.7-9.7-21.7-21.7s9.7-21.7 21.7-21.7 21.7 9.7 21.7 21.7-9.7 21.7-21.7 21.7zm0-35.4c-7.6 0-13.7 6.2-13.7 13.7s6.2 13.7 13.7 13.7 13.7-6.2 13.7-13.7-6.1-13.7-13.7-13.7z"/><path class="st5" d="M517.4 620.3c-1.3 0-2.6-.6-3.3-1.8l-24.2-36.7c-.4-.7-.7-1.4-.7-2.2v-33.8c0-2.2 1.8-4 4-4s4 1.8 4 4v32.6l23.5 35.7c1.2 1.8.7 4.3-1.1 5.5-.6.5-1.4.7-2.2.7z"/><path class="st5" d="M472.3 620.1c-.7 0-1.4-.2-2-.5-1.9-1.1-2.6-3.5-1.5-5.5l20.9-36.5c1.1-1.9 3.5-2.6 5.5-1.5 1.9 1.1 2.6 3.5 1.5 5.5l-20.9 36.5c-.7 1.3-2.1 2-3.5 2zM515 572.6c-.7 0-1.5-.2-2.1-.6-7.3-4.7-14.6-9.7-21.5-14.8-1.8-1.3-2.1-3.8-.8-5.6 1.3-1.8 3.8-2.1 5.6-.8 6 4.5 12.3 8.8 18.6 13 3.1-2.5 5.5-4.6 7.9-7.6 1.4-1.7 3.9-2.1 5.6-.7 1.7 1.4 2.1 3.9.7 5.6-3.1 4-6.4 6.7-9.9 9.5l-1.5 1.2c-.8.5-1.7.8-2.6.8z"/><path class="st5" d="M472.4 586.6c-1.3 0-2.5-.6-3.3-1.7-1.8-2.6-3-5.2-4.2-7.8-1.1-2.4-2.1-4.6-3.5-6.6-.6-.9-.9-2.1-.6-3.2s.9-2 1.9-2.6l26.5-15.1c1.9-1.1 4.4-.4 5.5 1.5s.4 4.4-1.5 5.5l-22.9 13.1c.7 1.4 1.4 2.7 2 4.1 1.1 2.4 2.1 4.6 3.5 6.6 1.3 1.8.8 4.3-1 5.6-.8.4-1.6.6-2.4.6z"/><g><path class="st8" d="M272.8 585.3c-.4 1.6-1.8 2.4-3 1.8l-16.9-8.6c-1.3-.7-1.9-2.7-1.3-4.3l1.5-3.9c.6-1.6 2.1-2.1 3.3-1.2l15.4 12.5c.9.7 1.3 2.3 1 3.7zM274.5 654.6c-.5-1.6-2-2.3-3.1-1.6l-16.3 9.7c-1.3.8-1.7 2.8-1 4.4l1.8 3.8c.7 1.5 2.3 2 3.4 1l14.6-13.5c.7-.9 1.1-2.4.6-3.8zM260.4 619.9c.6 1.6-.1 3-1.4 3.2l-19.4 5c-1.5.2-3.1-1.1-3.6-2.8l-.4-6.2c-.4-1.7.5-3 2-2.9l20.5 1.1c1.3.1 2.1 1 2.3 2.6z"/></g><g><path class="st8" d="M580.3 585.1c.4 1.6 1.8 2.4 3 1.8l17-8.4c1.3-.7 1.9-2.7 1.3-4.3l-1.5-3.9c-.6-1.6-2.1-2.2-3.3-1.2l-15.5 12.4c-.9.6-1.4 2.2-1 3.6zM577.9 654.4c.6-1.6 2-2.3 3.1-1.5l16.2 9.9c1.3.8 1.7 2.8 1 4.4l-1.8 3.8c-.7 1.5-2.3 2-3.4.9l-14.4-13.7c-.9-.8-1.2-2.4-.7-3.8zM589 620.6c-.6 1.6 0 3 1.4 3.2l19.4 5.2c1.5.2 3.1-1 3.6-2.7l.5-6.2c.4-1.6-.5-3-2-2.9l-20.5.8c-1.4.1-2.2.9-2.4 2.6z"/></g><g><path class="st0" d="M62.1 518.4c-5.5-11-23.7-50.8-27.6-102.9-.3-4-2.3-7.7-5.6-10.1-3.2-2.4-7.3-3.3-11.3-2.5l-10.2 2.2-3.7-19.6c-1.4-7.4-8-12.8-15.5-12.8-4 0-7.9 1.5-10.8 4.3l-3.6 3.4c-6.1-3-15.4-6.7-26.6-8.3 0-1-.1-2-.1-3-.1-4-2-7.8-5.2-10.3-3.1-2.5-7.2-3.6-11.1-2.9l-109.8 19c-6.5 1.1-11.3 6.7-11.6 13.3-.3 10.6-.6 66.3 27.7 118.4 2.4 4.5 7.1 7.3 12.2 7.3.9 0 1.8-.1 2.7-.3l55.2-10.8c5.5 19.7 13.2 38 22.9 54.2 2.5 4.2 7.1 6.8 12 6.8 1.1 0 2.2-.1 3.2-.4l107.5-25.3c4.2-1 7.6-3.8 9.4-7.7 1.9-3.8 1.9-8.2-.1-12z"/><path class="st5" d="M-150.4 506.1c-2.2 0-4.3-1.2-5.4-3.2-27.3-50.3-27-104.1-26.7-114.4.1-2.9 2.2-5.3 5.1-5.8l109.6-18.9c1.7-.3 3.5.2 4.9 1.3s2.2 2.8 2.3 4.5c2 53.7 19.1 95.4 24.3 106.9.8 1.7.7 3.6-.1 5.3-.9 1.7-2.4 2.8-4.3 3.2l-108.5 21c-.4.1-.8.1-1.2.1zm-25.2-116.7c-.3 11.5 0 62.1 25.6 109.6l106.8-20.8c-5.8-13-22.3-54.5-24.4-107.5l-108 18.7zm.1-.7z"/><path class="st9" d="M-101 489.5s-4.9-14.6-5-38.1c0-2.6 1.9-4.9 4.5-5.3l25.4-4.4 7 41.7-31.9 6.1z"/><path class="st10" d="M-90.6 439.8c.1 11.1 2 63.3 30.7 111.6.6 1 1.7 1.5 2.9 1.2l107.5-25.4c1.6-.4 2.5-2.2 1.7-3.7-5.6-11-24.7-52.6-28.8-107-.1-1.6-1.6-2.7-3.2-2.4l-108.8 23.2c-1.2.2-2 1.3-2 2.5z"/><path class="st5" d="M-57.7 556.2c-2.1 0-4.1-1.1-5.2-3-29.3-49.2-31.1-103-31.2-113.3 0-2.9 2-5.4 4.8-6l108.8-23.2c1.7-.4 3.5 0 4.9 1.1s2.3 2.7 2.4 4.4c4.1 53.6 22.8 94.5 28.4 105.8.8 1.7.9 3.6.1 5.3-.8 1.7-2.3 2.9-4.1 3.4L-56.3 556c-.4.1-.9.2-1.4.2zm-29.4-115.7c.1 11.5 2.4 62 29.9 108.6l105.9-24.9c-6.3-12.7-24.4-53.6-28.6-106.5l-107.2 22.8zm0-.7z"/><path class="st9" d="M-9.3 418.2c-12.1 5.1-24.1 10.3-36.9 13.2-.6 1.2-1.7 2.1-3 2.6l-2.5 2.7c-1.6 1.7-.4 4.5 1.9 4.6l42.1 2c1.7.1 3.1-1.5 2.7-3.2l-4.3-21.9zM-64.4 400.8c-.1-.5-.1-1-.1-1.5-8.8-.3-19.3 1.2-28.9 6-2.6 1.3-1.6 5.2 1.3 5 7.5-.4 18 .3 29.6 4.4-1.2-4.5-1.1-9.2-1.9-13.9z"/><path class="st11" d="M-27.4 473s15.3-11.7 23.5-11.7c24.2 0 33.7 54.5-5.8 62.4-35.2 7.1-49.3-24.4-46.5-36.3 1.2-5.1 4.2-11.1 11.1-13.3 8.8-2.9 14.4 10.3 30.5 1.3"/><path class="st12" d="M10.9 504.2c-.7.3-1.5.7-2.3 1-3 2.1-6.4 3.6-10.1 4.4-1.9.4-3.7.5-5.4.5-1.5.2-3 .2-4.4.1-12-.8-23.6-6.6-30.1-16.7-3.1-4.7-5.1-14.4-2.5-19.4-5.2 2.7-11.2 8.7-12.2 13.2-2.8 11.9 11.3 43.3 46.5 36.3 14.2-2.9 22.1-11.7 25.2-21.9-1.6 1.1-3.1 1.9-4.7 2.5z"/><path class="st5" d="M-19.7 527.4c-13.7 0-22.8-6-28.4-11.8-9.1-9.4-12.3-21.8-10.7-28.7 1.8-7.7 6.3-13.1 12.8-15.2 4.4-1.5 8.1.2 11.6 1.8 5 2.3 9.8 4.5 18.4-.4 1.3-.7 2.9-.3 3.6 1 .7 1.3.3 2.9-1 3.6-10.9 6.1-18 2.9-23.1.6-3.4-1.6-5.5-2.4-7.8-1.6-6 2-8.4 7.3-9.4 11.5-1.3 5.5 1.9 16.2 9.4 23.9 5.9 6.1 16.7 12.7 34.1 9.2 20.2-4.1 25.9-20.9 24.6-34.1C13.3 476 6.5 464-3.8 464c-6.9 0-11.7 4.3-11.7 4.3-1.1 1-2.7.9-3.7-.1-1-1.1-.9-2.7.1-3.7.3-.2 6.2-5.7 15.3-5.7 10.3 0 21.6 9.6 23.4 27.9 1.5 15.4-5.1 35-28.7 39.7-3.9.6-7.4 1-10.6 1z"/><path class="st13" d="M-27.8 441.7s-22 18 1.9 34.7c.1 0 24.1-16.3-1.9-34.7z"/><path class="st5" d="M-25.8 479c-.5 0-1-.2-1.5-.5-7.9-5.5-12-11.8-12.2-18.8-.4-11.3 9.7-19.8 10.2-20.1.9-.7 2.2-.8 3.2-.1 8.8 6.3 13.2 13.1 13.1 20.3-.1 11-10.8 18.4-11.3 18.7-.5.4-1 .5-1.5.5zm-1.8-33.9c-2.4 2.5-7 8.1-6.8 14.5.2 4.8 3 9.3 8.5 13.5 2.5-2.1 7.5-7.1 7.6-13.3 0-5-3.1-9.9-9.3-14.7zM-125.4 473c-.4 0-.8-.1-1.1-.3-11.1-5.3-19.3-15.9-21.6-27.8-1.5-7.7 1.5-16.4 7.2-21 4.5-3.6 10.1-4.3 15.6-1.9 7.6 3.2 13 4.2 19.9.3 1.3-.7 2.9-.3 3.6 1s.3 2.9-1 3.6c-8.7 4.9-15.9 3.6-24.5-.1-4.8-2-8.2-.5-10.3 1.2-4.2 3.4-6.5 10.1-5.3 15.9 2 10.2 9.3 19.6 18.7 24.1 1.3.6 1.9 2.2 1.2 3.5-.5 1-1.4 1.5-2.4 1.5z"/><path class="st5" d="M-114.2 428.4c-.7 0-1.4-.3-2-.9-1-1.1-.8-2.7.2-3.7 1.4-1.2 8.1-7.5 7.7-15.5-.3-4.9-3.2-9.6-8.9-14.1-.7.7-1.5 1.6-2.3 2.6-.9 1.1-2.5 1.3-3.7.5-1.1-.9-1.3-2.5-.5-3.7 2.3-3 4.5-4.8 4.6-4.9.9-.7 2.2-.8 3.2-.1 8.1 5.8 12.4 12.3 12.8 19.3.5 10.1-7.1 17.6-9.5 19.6-.3.7-.9.9-1.6.9z"/><path class="st0" d="M1.2 505.8c-.6 0-1.2-.2-1.6-.7-.8-.9-.7-2.3.2-3.1 3.1-2.8 2.8-8.7 2.6-11.1-.1-1.2.7-2.3 1.9-2.4 1.2-.1 2.3.7 2.4 1.9.4 3.9.5 10.9-4 14.9-.5.3-1 .5-1.5.5zM1.3 481.5c-.7 0-1.4-.3-1.8-1-.8-1.3-1.8-2.4-2.9-3.4-.9-.8-1-2.2-.2-3.1s2.2-1 3.1-.2c1.4 1.2 2.7 2.7 3.8 4.3.7 1 .4 2.4-.6 3-.6.3-1 .4-1.4.4z"/><path class="st14" d="M-88.9 395.6c11.9-.6 31.2 1.4 50.4 15.6l-9.8 10.9c-1.6 1.7-.4 4.5 1.9 4.6l42.1 2c1.7.1 3.1-1.5 2.7-3.2l-7.3-37.4c-.4-2.1-3-3-4.6-1.5l-10.6 10s-32.6-22.6-66-6c-2.6 1.2-1.6 5.1 1.2 5z"/><path class="st5" d="M-64 384.5c22.4 0 39.9 12.1 39.9 12.1l10.6-10c.5-.5 1.2-.7 1.9-.7 1.2 0 2.4.8 2.7 2.2l7.3 37.4c.3 1.7-.9 3.2-2.6 3.2h-.1l-42.1-2c-2.3-.1-3.5-2.9-1.9-4.6l9.9-10.9c-17.4-12.9-34.9-15.7-46.9-15.7-1.2 0-2.4 0-3.6.1h-.1c-2.8 0-3.6-3.8-1.1-5 9-4.5 17.8-6.1 26.1-6.1m0-5.3c-10 0-19.6 2.2-28.4 6.6-3.3 1.6-5 5.3-4.2 8.9s4 6.1 7.6 6.1h.4c1.1-.1 2.2-.1 3.3-.1 9.9 0 24.2 2.1 39 11.4l-5.9 6.5c-2.1 2.3-2.7 5.5-1.5 8.4s3.9 4.8 7 4.9l42.1 2h.4c2.4 0 4.6-1.1 6.1-2.9s2.1-4.2 1.6-6.5l-7.3-37.3c-.7-3.7-4-6.5-7.8-6.5-2 0-4 .8-5.4 2.2l-7.7 7.2c-6.7-3.9-21.4-10.9-39.3-10.9z"/><path class="st15" d="M-34.5 406.1C-53.7 391.9-73 390-84.9 390.5c-1.1.1-1.9-.5-2.4-1.3-.9.4-1.9.8-2.8 1.3-2.6 1.3-1.6 5.2 1.3 5 11.8-.6 31 1.4 50 15.3l4.3-4.7zM-2 423.5l-40.5-1.9c-1.7-.1-2.8-1.6-2.6-3.1l-3.3 3.6c-1.6 1.7-.4 4.5 1.9 4.6l42.1 2c1.7.1 3.1-1.5 2.7-3.2l-.3-2z"/><g><path class="st8" d="M-188.2 452.9c.1 1.4-.8 2.5-2 2.3l-16.3-2.4c-1.3-.2-2.3-1.7-2.3-3.2l.1-3.7c.1-1.5 1.2-2.4 2.4-1.9l16.2 6c1.1.4 1.9 1.6 1.9 2.9zM-168.2 509.5c-.9-1.1-2.2-1.3-3-.4l-10.7 12.6c-.8 1-.6 2.8.4 3.9l2.5 2.7c1 1.1 2.4 1 3.1-.2l8.2-15.2c.5-1 .3-2.4-.5-3.4zM-185.1 484.9c.9 1.1.8 2.5-.3 3l-14.6 9.6c-1.1.6-2.9 0-3.7-1.3l-2.1-5c-.8-1.2-.4-2.6.8-2.9l17.2-4.9c1.1-.3 2 .2 2.7 1.5z"/></g><g><path class="st8" d="M37.4 402.4c.8 1.2 2.1 1.5 3 .6l11.7-11.7c.9-.9.9-2.8-.1-3.9l-2.3-2.8c-.9-1.2-2.3-1.2-3.1-.1l-9.3 14.6c-.7.9-.6 2.3.1 3.3zM47.9 460.2c0-1.4 1-2.4 2.2-2.2l16.1 3.6c1.3.3 2.2 1.9 2 3.4l-.4 3.6c-.2 1.5-1.3 2.3-2.5 1.7l-15.7-7.2c-1.1-.4-1.8-1.6-1.7-2.9zM47.5 429.2c0 1.4.9 2.5 2 2.3l17.4-1.1c1.3-.2 2.3-1.7 2.2-3.3l-1.4-5.3c-.1-1.5-1.2-2.3-2.4-1.8l-16.6 6.5c-1 .4-1.5 1.3-1.2 2.7z"/></g></g><g><path class="st0" d="M312.9 196.2c-6-11.6-25.9-53.7-30.2-108.8-.4-4.5-2.7-8.5-6.3-11.2-3.6-2.6-8.1-3.5-12.4-2.6l-11 2.3-4.1-20.3c-1.6-8.1-8.9-13.9-17.3-13.9-4.4 0-8.7 1.6-11.9 4.6l-3.9 3.6c-6.8-3.2-17-7.1-29.2-8.8-.4-4.4-.6-8.8-.8-13.1-.2-4.5-2.3-8.6-5.9-11.4-3.4-2.7-7.9-3.8-12.3-3.1l-120.1 20c-7.3 1.2-12.7 7.4-12.9 14.6-.4 11.3-.7 70.5 30.4 125.9 2.7 4.9 8 7.9 13.6 7.9 1 0 2-.1 2.9-.3l58.6-11.1c6.1 24.7 15.5 47.4 27.7 67.4 2.8 4.6 7.8 7.4 13.3 7.4 1.2 0 2.4-.1 3.5-.4l117.9-26.8c4.6-1.1 8.5-4.1 10.5-8.3 2.1-4.4 2.1-9.3-.1-13.6z"/><path class="st0" d="M78.6 173.1c-2.4 0-4.7-1.3-5.9-3.4C42.7 116.3 43 59.3 43.4 48.4c.1-3 2.4-5.6 5.5-6.2L169 22.1c1.9-.3 3.8.2 5.3 1.3 1.5 1.2 2.4 2.9 2.5 4.8 2.2 56.9 20.9 101.1 26.6 113.3.8 1.8.8 3.9-.2 5.6-.9 1.8-2.6 3-4.7 3.4L79.9 172.9c-.5.1-.9.2-1.3.2z"/><path class="st5" d="M78.6 173.1c-2.4 0-4.7-1.3-5.9-3.4C42.7 116.3 43 59.3 43.4 48.4c.1-3 2.4-5.6 5.5-6.2L169 22.1c1.9-.3 3.8.2 5.3 1.3 1.5 1.2 2.4 2.9 2.5 4.8 2.2 56.9 20.9 101.1 26.6 113.3.8 1.8.8 3.9-.2 5.6-.9 1.8-2.6 3-4.7 3.4L79.9 172.9c-.5.1-.9.2-1.3.2zM51 49.4c-.3 12.2 0 65.8 28.1 116.2l116.9-22c-6.3-13.8-24.4-57.7-26.8-113.9L51 49.4zm0-.8z"/><path class="st9" d="M132.6 155.4s-5.3-8.2-5.5-33.1c0-2.8 2.1-5.2 4.9-5.6l27.8-4.7 7.7 36.9-34.9 6.5z"/><path class="st10" d="M145.1 113.2c.1 11.7 2.2 67.1 33.6 118.3.6 1 1.9 1.6 3.1 1.3L299.6 206c1.8-.4 2.7-2.3 1.9-3.9-6.1-11.8-27-55.9-31.5-113.5-.1-1.7-1.8-2.9-3.5-2.5l-119.2 24.6c-1.3 0-2.2 1.2-2.2 2.5z"/><path class="st5" d="M181.2 236.5c-2.3 0-4.5-1.2-5.7-3.2-32.1-52.2-34.1-109.2-34.2-120.1 0-3.1 2.2-5.7 5.3-6.4l119.2-24.6c1.9-.4 3.8 0 5.4 1.1 1.6 1.1 2.5 2.8 2.7 4.7 4.5 56.8 25 100.2 31.2 112.2.9 1.8.9 3.8.1 5.6-.9 1.8-2.5 3.1-4.5 3.6l-117.8 26.8c-.7.2-1.2.3-1.7.3zm-32.3-122.6c.2 12.2 2.7 65.8 32.7 115.1l116-26.4c-6.9-13.5-26.7-56.8-31.3-112.8l-117.4 24.1zm0-.7z"/><path class="st9" d="M234.2 90.4c-13.2 5.4-26.4 10.9-40.5 14-.7 1.3-1.9 2.2-3.3 2.8l-2.7 2.9c-1.7 1.8-.5 4.8 2.1 4.9l46.1 2.1c1.9.1 3.4-1.6 3-3.4l-4.7-23.3zM173.8 71.8c-.1-.5-.1-1.1-.1-1.6-9.6-.3-21.1 1.3-31.7 6.4-2.8 1.4-1.8 5.5 1.4 5.3 8.3-.4 20.8.3 33.4 4.7-1.2-4.8-2.1-9.8-3-14.8z"/><path class="st11" d="M214.4 148.4s16.8-12.4 25.7-12.4c26.5 0 37 57.7-6.4 66.2-38.5 7.5-54-25.9-50.9-38.4 1.3-5.4 4.6-11.7 12.1-14.1 9.6-3.1 15.8 10.9 33.4 1.4"/><path class="st12" d="M256.3 181.6c-.8.3-1.6.7-2.5 1.1-3.3 2.2-7 3.9-11 4.6-2.1.4-4.1.6-6 .5-1.6.2-3.3.2-4.9.1-13.1-.9-25.8-7-33-17.7-3.4-5-5.6-15.2-2.8-20.6-5.7 2.9-12.2 9.3-13.4 14-3 12.6 12.4 45.9 50.9 38.4 15.6-3 24.2-12.4 27.6-23.2-1.5 1.1-3.2 2-4.9 2.8z"/><path class="st5" d="M222.8 206c-15 0-25-6.4-31.1-12.5-10-10-13.5-23.1-11.7-30.5 2-8.2 7-13.9 14-16.1 4.8-1.5 8.9.2 12.7 1.9 5.5 2.4 10.8 4.7 20.2-.4 1.4-.8 3.1-.3 3.9 1.1.8 1.3.3 3-1.1 3.8-11.9 6.5-19.7 3.1-25.3.6-3.7-1.7-6-2.5-8.6-1.7-6.6 2.1-9.2 7.7-10.2 12.1-1.4 5.9 2.1 17.2 10.3 25.4 6.5 6.5 18.2 13.4 37.3 9.7 22.2-4.3 28.3-22.1 26.9-36.1-1.2-11.9-8.6-24.6-20-24.6-7.6 0-12.8 4.6-12.8 4.6-1.2 1-3 1-4-.1-1.1-1.1-1-2.9.1-3.9.3-.2 6.8-6.1 16.7-6.1 11.2 0 23.7 10.1 25.7 29.6 1.7 16.3-5.6 37.1-31.5 42.1-4.2.7-8 1.1-11.5 1.1z"/><path class="st13" d="M213.9 115.2s-24 19.1 2.1 36.8c.1 0 26.3-17.3-2.1-36.8z"/><path class="st5" d="M216.1 154.7c-.6 0-1.1-.2-1.6-.5-8.6-5.8-13.1-12.5-13.4-19.9-.5-12 10.6-20.9 11.1-21.3 1-.8 2.4-.8 3.5-.1 9.6 6.6 14.5 13.9 14.4 21.5-.1 11.7-11.8 19.5-12.3 19.8-.6.4-1.2.5-1.7.5zm-2-35.9c-2.7 2.6-7.7 8.5-7.4 15.4.2 5.1 3.3 9.9 9.3 14.3 2.8-2.3 8.2-7.6 8.3-14.1 0-5.3-3.4-10.5-10.2-15.6zM106 138c-.4 0-.8-.1-1.2-.3-12.1-5.6-21.2-16.9-23.7-29.5C79.5 100 82.7 90.9 89 86c4.9-3.9 11-4.6 17.1-2.1 8.3 3.4 14.2 4.5 21.8.3 1.4-.7 3.1-.3 3.9 1.1.8 1.3.3 3-1.1 3.8-9.6 5.2-17.4 3.8-26.9-.1-5.2-2.2-9-.5-11.3 1.3-4.6 3.6-7.1 10.7-5.9 16.9 2.1 10.8 10.2 20.8 20.5 25.6 1.4.7 2 2.3 1.4 3.7-.4.9-1.5 1.5-2.5 1.5z"/><path class="st5" d="M118.3 90.7c-.8 0-1.6-.3-2.2-.9-1-1.1-.9-2.9.3-3.9 1.5-1.3 8.9-8 8.4-16.4-.3-5.2-3.5-10.2-9.7-14.9-.7.7-1.6 1.7-2.5 2.8-1 1.2-2.8 1.4-4 .5s-1.5-2.7-.5-3.9c2.5-3.2 4.9-5.1 5-5.2 1-.8 2.4-.8 3.5-.1 8.9 6.1 13.6 13 14 20.5.6 10.7-7.8 18.6-10.4 20.8-.6.5-1.3.7-1.9.7z"/><path class="st0" d="M245.7 183.1c-.7 0-1.3-.3-1.8-.8-.9-1-.8-2.4.2-3.3 3.4-2.9 3.1-9.2 2.8-11.8-.1-1.3.8-2.4 2.1-2.5s2.5.8 2.6 2c.5 4.1.5 11.6-4.4 15.8-.4.4-1 .6-1.5.6zM245.8 157.3c-.8 0-1.5-.4-2-1.1-.9-1.4-2-2.6-3.2-3.6-1-.8-1.1-2.3-.3-3.3.9-1 2.4-1.1 3.4-.3 1.6 1.3 3 2.8 4.1 4.6.7 1.1.4 2.5-.7 3.2-.4.4-.9.5-1.3.5z"/><path class="st14" d="M147 66.3c13.1-.6 34.2 1.5 55.2 16.5l-10.9 11.6c-1.7 1.8-.5 4.8 2.1 4.9l46.1 2.1c1.9.1 3.4-1.6 3-3.4l-8-39.6c-.5-2.3-3.3-3.1-5-1.6l-11.6 10.6s-35.7-24-72.3-6.4c-2.8 1.3-1.7 5.5 1.4 5.3z"/><path class="st5" d="M174.2 54.5c24.6 0 43.7 12.8 43.7 12.8l11.6-10.5c.6-.5 1.3-.8 2.1-.8 1.4 0 2.7.9 3 2.4l8 39.6c.4 1.7-1 3.4-2.8 3.4h-.1l-46.2-2.1c-2.6-.1-3.8-3.1-2.1-4.9l10.9-11.6c-19.1-13.6-38.2-16.6-51.4-16.6-1.4 0-2.7 0-3.9.1h-.2c-3 0-4-4-1.2-5.3 9.9-4.7 19.6-6.5 28.6-6.5m0-5.5c-11 0-21.4 2.4-31.1 7-3.6 1.7-5.5 5.6-4.6 9.4s4.3 6.4 8.4 6.4h.4c1.2-.1 2.4-.1 3.6-.1 10.8 0 26.5 2.2 42.7 12l-6.4 6.9c-2.3 2.5-2.9 5.9-1.6 8.9 1.3 3.1 4.2 5.1 7.7 5.2l46.1 2.1h.4c2.6 0 5-1.1 6.7-3.1 1.6-1.9 2.3-4.5 1.8-6.9l-8-39.6c-.8-4-4.4-6.8-8.6-6.8-2.2 0-4.3.8-6 2.3l-8.4 7.7C210 56.5 193.8 49 174.2 49z"/><g><path class="st15" d="M206.6 77.5c-21-15-42.2-17.1-55.2-16.5-1.2.1-2.1-.5-2.6-1.4-1 .4-2.1.9-3.1 1.4-2.8 1.4-1.8 5.5 1.4 5.3 13-.6 33.9 1.5 54.8 16.2l4.7-5zM242.1 95.9l-44.3-2c-1.9-.1-3.1-1.7-2.9-3.3l-3.6 3.8c-1.7 1.8-.5 4.8 2.1 4.9l46.1 2.1c1.9.1 3.4-1.6 3-3.4l-.4-2.1z"/></g></g></svg>