<svg version="1.1" id="Camada_1" xmlns="http://www.w3.org/2000/svg" x="0" y="0" viewBox="0 0 365 254" style="enable-background:new 0 0 365 254" xml:space="preserve"><style>.st1{fill:#e1feff}.st2{fill:#00beea}.st5{fill:#abcdd6}.st6{fill:#211256}.st7{fill:#0083e5}.st8{fill:#5635dc}</style><path d="M314.4 189.1c.8-35.7.4-58.7.2-64.9v-.6c0-.5 0-.9-.1-1.3-.3-3.2-2.3-11.2-13.4-15-.1 0-.2-.1-.3-.1l-5.6-1.7 9.7-2.7c3.3-.9 6-3.2 7.3-6.3 1.3-3.1 1.1-6.7-.4-9.8l-2.1-5.4c-.2-.5-.4-1-.7-1.4-3.4-5.7-10.5-8-16.1-5.2-.1.1-.3.2-.5.2l-17.4 10 9.9-13.5c2.1-2.7 2.8-6.2 1.9-9.5-.9-3.3-3.2-6-6.4-7.5l-5-3c-.5-.3-.9-.5-1.4-.7-6.2-2.4-13.2.2-15.9 5.8-.1.2-.1.3-.2.4l-6.5 14.6 1.6-14.9c.3-3.4-1-6.7-3.5-9s-5.9-3.3-9.4-2.9l-9.5.2h-.1l.9-1.8c2-3.9.9-8.8-2.6-11.5l-15.9-12.3c-1.3-1-2.9-1.7-4.6-1.9L177.2 14c-3-.3-5.9.8-7.9 3s-2.8 5.3-2.1 8.2c0 0 4.4 18.8 5.6 24.3l-23.3-21.3C134 14.1 119.7 7.6 98.4 4.8l-3.1-.4c-3.5-.5-6.9 1.1-8.9 4L76 24c-2.8 4.1-1.7 9.8 2.4 12.7l13.5 9.4-7 16c-1.6 3.6-.7 7.9 2.2 10.5l12.1 11c-6.6 7.6-15.6 18.1-24.4 28.2-21.3 24.7-29 33.8-32.3 38-1.9 1.3-3.2 3.3-3.7 5.6l-.5 2.2c-2.9 13.1 2.5 26 14.6 34.3 7.1 4.9 16.1 7.8 24 7.8 5.5 0 10.5-1.4 14.4-3.9l.8-.5c1-.6 1.8-1.4 2.5-2.3l8-11.2 2 1.3c1.4.9 3.1 1.4 4.8 1.4l36.6.4c.6 0 1.1 0 1.7-.1V210c0 10.9 7.7 20.3 18.3 22.4l56.5 15.6c.1 0 .2.1.3.1h.2c.1 0 .2.1.4.1l.7.1c.6.1 1.4.3 2.3.4 4.1.6 7.7.9 10.9.9 4.3 0 7.9-.5 11-1.5.3-.1.6-.1.9-.2l47.4-15.6c10.3-2.3 17.8-11.5 17.9-22v-.2c0-.9 0-1.7-.2-2.5-.1-2.6.1-12.4.2-17.7l-.1-.8z" style="fill:#fff"/><path class="st1" d="M201.9 52.5c.5-.7 1-1.4 1.3-2.2.2-.6.3-1.3.4-2 .7-4.9.8-9.9.5-14.8-.1-1-.2-2 .2-2.9 0-.1.1-.3.2-.3.2-.1.4-.1.6 0 1.1.4 1.9 1.2 2.8 1.9 3.1 2.8 6.6 5.2 10.3 7.2.3.1.6.3.6.6 0 .2 0 .4-.1.5-1.8 4.3-3.6 8.5-5.4 12.8-.9 2.1-1.8 4.3-3.6 5.7-1.1.9-2.4 1.4-3.6 1.9-5.4 2-11.1 3.6-16.8 4.5 1.3-2.5 4.6-2.9 6.1-5.2.9-1.3 2.1-2.4 3.2-3.6 1.2-1.2 2.2-2.7 3.3-4.1z"/><path class="st2" d="M190.8 63.3c3-2.6 12.7-10.1 12.6-11.3l1.2-23-25.1-2.9c1 3.9 5.1 22.6 5.1 22.6.5 2.2 6.2 14.6 6.2 14.6z"/><path d="M119 82.8s-66.8 76.8-66.8 78.1c-4.1 18.5 22.4 29 31.2 23.2l58.1-80.8L119 82.8z" style="fill:#ffd15f"/><path d="M78 173.8c-1.2 1.5-2.9 2.1-4.5 1.9-8.1 1.5-14.8-1.1-20.4-5.5 6.3 10.2 22.5 16.6 29.1 12.3l58.1-82.7-5.4-5.6c-4 7-36.5 53.6-56.9 79.6z" style="fill:#fffbe9"/><path class="st1" d="M169 128.3 99.4 64.7l9.8-23.4-18.4-15 4-7.5 33.5 10.4 71.9 64.9z"/><path class="st5" d="M179.6 75.8c-.7-.5-1.1-1.2-1.4-1.8-.4.3-.8.7-1.3 1.1-8.2 7.4-14.2 16.8-20.9 25.4-.6.8-4 5-7.1 8.6 9.9 5.8 18.4 13.4 26.9 21 9.2-11.2 18-22.6 26.6-34.2.1-.2.3-.4.4-.6-7.6-6.7-15.2-13.3-23.2-19.5z"/><path class="st6" d="M169.2 132.2 96.1 65.4l10.2-23.2-19.4-13.5 8.4-12.6 1.7.2c18.9 2.5 31 8.1 44.7 20.6l62.4 57-34.9 38.3zM102.7 64l66.1 60.4 27.5-30.1L138 41c-12.5-11.4-23.2-16.5-40-19l-3.5 5.3 18.7 13L102.7 64z"/><path transform="matrix(.6741 -.7386 .7386 .6741 -14.2685 149.4941)" class="st6" d="M139.1 88.2h46.3v5.5h-46.3z"/><path class="st1" d="M216.4 105.4c-1.5-1.4-12.9-11.8-14.4-13.2-7.3-6.7-21.3-3.3-31.2 7.6s-12 25.1-4.7 31.8c1.5 1.4 12.9 11.8 14.4 13.2 7.3 6.7 21.3 3.3 31.2-7.6s12-25.1 4.7-31.8z"/><path class="st6" d="M190 150.9c-4.4 0-8.3-1.3-11.4-4.1l-14.4-13.2c-4.2-3.9-6-9.8-5-16.7 1-6.5 4.4-13.2 9.5-18.9 5.2-5.7 11.5-9.6 18-11.2 6.8-1.7 12.9-.4 17.1 3.4l14.4 13.2c4.2 3.9 6 9.8 5 16.7-1 6.5-4.4 13.2-9.5 18.9-7 7.7-16 11.9-23.7 11.9zm2.4-59.3c-1.4 0-2.9.2-4.4.6-5.4 1.3-10.8 4.7-15.2 9.6s-7.3 10.5-8.1 16c-.8 5.1.4 9.3 3.2 11.9l14.4 13.2c6.1 5.5 18.6 2.1 27.3-7.4 4.4-4.9 7.3-10.5 8.1-16 .8-5.1-.4-9.3-3.2-11.9l-14.4-13.2c-2-1.9-4.6-2.8-7.7-2.8z"/><g><ellipse transform="matrix(.6743 -.7385 .7385 .6743 -27.8008 187.2948)" class="st5" cx="198.4" cy="125.2" rx="26.6" ry="17.9"/><path class="st6" d="M190 151c-4.5 0-8.4-1.4-11.4-4.1-8.4-7.7-6.4-23.7 4.6-35.6 10.9-12 26.7-15.5 35.1-7.8 4.2 3.9 6 9.8 5 16.7-1 6.5-4.4 13.2-9.5 18.9-5.2 5.7-11.5 9.6-18 11.2-2 .4-4 .7-5.8.7zm16.9-46.2c-6.2 0-13.8 3.6-19.7 10.1-8.7 9.6-11 22.3-4.9 27.9 2.8 2.6 7.1 3.3 12.1 2.1 5.4-1.3 10.8-4.7 15.2-9.6 4.4-4.9 7.3-10.5 8.1-16 .8-5.1-.4-9.3-3.2-11.9-1.9-1.7-4.6-2.6-7.6-2.6z"/></g><g><path class="st6" d="M76.9 188.4c-5.5 0-12-2-17.4-5.8-8.2-5.7-11.8-13.8-9.9-22.3.5-1.7 4.6-6.6 34-40.7 16.5-19.2 33.2-38.4 33.3-38.6l1.8-2.1 26.5 24-59.8 83.2-.4.3c-2.1 1.4-4.9 2-8.1 2zm-22-26.5c-1.6 8.3 4.1 13.7 7.8 16.2 6.9 4.8 15.3 5.8 19 3.9l56.3-78.4-18.7-16.9c-25.1 28.9-61.1 70.6-64.4 75.2z"/></g><path class="st5" d="m140.7 44.3-14.5 40.1L138.8 96 154 55.7z"/><path class="st6" d="M220.4 101 206 87.8c-2.4-2.2-5.3-3.7-8.6-4.4L144 34.6c-14.3-13-26.9-18.9-46.5-21.4l-3.7-.5-11.4 16.9 19.8 13.8-10 22.9 18.6 17c-10.9 12.6-21.2 24.4-29.7 34.3-23.3 27.1-30.7 35.8-33.2 39.2l-.8-.1-.7 3c-2.2 9.9 1.9 19.2 11.2 25.7 5.7 4 13 6.4 19.3 6.4 3.9 0 7.3-.9 9.8-2.6l.9-.6 54.8-76.3 13.5 12.3c.7 4.6 2.8 8.6 6 11.5l14.4 13.2.3.3c5 4.3 12.2 5.8 19.8 3.9 5.6-1.4 11.2-4.4 16.1-8.7l1.2-1.1c.2-.2.4-.4.7-.6l.3-.3c.4-.4.9-.9 1.3-1.4 5.6-6.1 9.3-13.4 10.3-20.6 1.3-8.2-.8-15.2-5.9-19.8zM181 144.6c-.1-.1-.2-.1-.2-.2l-14.4-13.2c-2.3-2.1-3.7-5.1-4.1-8.6l-.1-1.2-20.6-18.8-58.3 81.2c-1.5 1-3.7 1.5-6.2 1.5-5.1 0-10.9-1.9-15.6-5.2-7-4.8-10.1-11.6-8.7-18.7.8-1.8 13.1-16.2 33.3-39.6 13.6-15.8 27.7-32 31.7-36.6l2.1-2.4L100 64.6l10.3-23.5-19-13.2 5.6-8.3c18 2.4 29.6 7.8 42.7 19.7l54.8 50 .9.2c2.5.4 4.6 1.5 6.4 3.1l14.4 13.2c3.4 3.1 4.8 8.1 4 13.9-.9 5.9-4 12-8.7 17.2-.4.4-.7.8-1.1 1.2l-.3.3-1 1-.1.1c-4.2 3.9-9 6.5-13.8 7.7-5.7 1.3-10.7.4-14.1-2.6z"/><g><path class="st2" d="M240 230.3c-1.1-.9-1.7-2.1-1.9-3.5 0-.3.1-.6.1-.9v-74.5c.4-2.4 2.3-4.4 4.9-4.8h.2l47.9-15.8c1.6-.2 3.3.3 4.5 1.4 1.3 1.1 2 2.7 2 4.4v73.5c0 2.9-2.1 5.3-4.9 5.8h-.2l-47.9 15.8c-1.8.2-3.5-.3-4.7-1.4zM233.4 152.4v-1c-.4-2.4-2.3-4.4-4.9-4.8l-.3-.1-.7-.2c-1.3-.2-2.5-.4-3.5-.8l-6.6-2-8.5-2.4c-.3.2-.7.4-1 .6-7.9 4.7-17.4 6.2-25.7 10.1-4.4 2.1-8.7 3.8-13.1 4.7-1.5.5-3 .8-4.5 1.1V210c0 2.9 2.1 5.3 4.9 5.8l.3.1 56.9 15.8c1.6.2 3.3-.3 4.6-1.4 1.1-.9 1.7-2.1 1.9-3.5 0-.3-.1-.6-.1-.9v-73.5h.3zM295 123.5 241.6 107c-1.3.9-2.6 1.9-4 2.7l-5.7 3.6c-.1.2-.2.3-.3.4-4.3 6-8.7 10.3-15.7 13-.2.1-.5.1-.7.2-.5 2-1.2 3.9-2.3 5.7-1 1.4-2.1 2.7-3.1 4.1l8.1 2.5 9.7 2.7c3.8.5 8.5.3 11.6-.7l55.7-17.2c.3-.1.6-.2.8-.3-.1 0-.4-.1-.7-.2z"/><path class="st7" d="M199.7 150.4c-.3-.1-.6-.1-.9 0-4.7 1.6-9.5 3-13.9 5.1-2.7 1.3-5.3 2.4-7.9 3.3-.6.2-1 .8-1 1.4-.1 5.1-.2 14.2-.2 20.5 0 1.5 2 2.1 2.8.8 1.4-2.2 3.1-4.1 5.4-5.4 3.3-1.8 7.3-1.8 10.8-3.2 2.4-.9 13.6-11.7 15.8-13.1 1.7-1.1 3.4-1.4 5.2-1.6 1.7-.1 1.9-2.5.3-3-5.4-1.4-12.2-3.6-16.4-4.8zM287.6 182.3c0-.6-.6-1.2-1.3-1.1-2.7.4-5.2 1.6-7.4 3.2-3.2 2.2-5.7 5.2-8.4 8-2.9 3.1-6 6.1-9.1 9-2.1 1.9-4.4 3.8-7 4.9-1.5.7-3.8.6-5.5.9-.5.1-.8.5-.8 1v10.6c0 .7.8 1.2 1.5 1 12.4-4.5 24.8-8.2 37.3-12.4.4-.1.7-.6.7-1v-24.1z"/><path class="st1" d="M299.1 128.6c-.2-.2-.4-.3-.6-.5l10.6-4.4-11.4-4.6c-.3-.1-.8-.3-1.3-.4l-31.5-9.7-.3.1c-2.2.4-6.5.3-10.7.2-5-.1-9.8-.2-12.5.4l-4.9 1.2 36.3 11.1c1.8.6 1.8 3.2 0 3.7l-35 10.8c-2.2.7-5.9.9-9.1.5l-9.3-2.6-4-1.2-.6.8c-2.1 2.8-4.7 5.1-7.5 6.8-1 .6-2.1 1.2-3.3 1.8l-3.4 1.6 24.3 6.6h.2c.6.1 2.5 1 3.3 1.5v16c-4.4-.1-8.8 1.6-12.1 4.5-3.6 3.3-5.6 6.6-7.9 10.5-.4.7-.8 1.3-1.2 2-1.6 2.6-3.4 5-5.5 7.2-2.2 2.2-4.2 3.6-6.2 4.5-1.2.5-2.4.9-3.7 1.2-.9.2-1.8.5-2.6.8-4.3 1.5-13.4 6.4-15.9 12.6l-2-.6-.8-.2c-.4-.1-.7-.4-.7-.8v-55l-1.8.5c-2.1.6-4.3 1-6.5 1.1h-.2l-1.6.1V210c0 5.3 3.8 9.8 9 10.7l56.8 15.7.7.1c3.1.4 6.2-.5 8.5-2.5.3-.3.7-.6 1-.9.3.3.6.7 1 .9 2 1.7 4.5 2.6 7.1 2.6.4 0 .9 0 1.3-.1l.5-.1 48-15.8c5.2-.9 9-5.4 9-10.7v-73.5c0-2.8-1.3-5.7-3.5-7.8zm-70.9 97.9c-.1.1-.3.2-.4.2l-22.1-6.1c8.6-4.9 15.7-12.5 19.7-21.4.3-.6.5-1.2.8-1.8.7-1.5 1.3-3 2.1-4.3V226.3c0 .1 0 .2-.1.2zm15.4-74.8.6-.1 27.6-9.1c-2.4 3.2-6.7 9.1-10.9 16.2-3.9 6.5-11.9 4.9-17.8 4.5V152c.1-.2.3-.3.5-.3zm48.2 59.2-.6.1-47.6 15.7c-.1 0-.2-.1-.3-.2-.1 0-.1-.1-.1-.2v-39.8c5.6-1.9 11.2-3.7 15.8-7.3 4.7-3.6 7.8-7.1 10.6-12.2s5.7-10.3 10-14.4c3.5-3.3 8.2-5.6 12.9-5.8v63.1c0 .6-.3.9-.7 1z"/><path class="st6" d="M306.1 189.5c.8-37.3.3-61.2.2-65.7v-.1c0-1.7-.9-6-7.9-8.4l-24.6-7.6-34.1-6.2-11.6 12.3-20.6 10.8.6 10.1-13.5 7.4-18 7.8-21.2 3.1.4 10.2h.2v47c0 7 5 13 11.9 14.3l56.8 15.7 1 .2c.6.1 1.2.3 1.9.3 3.7.5 6.9.8 9.7.8 3.6 0 6.5-.4 9-1.2h.2l48-15.8c6.8-1.3 11.7-7.3 11.7-14.2v-.5l-.1-.5c-.4-1.5-.2-11.2 0-19.8zm-67.3-37.9c.4-2 2-3.6 4.1-3.9h.2l48-15.8c1.3-.1 2.7.3 3.7 1.2 1.1.9 1.7 2.3 1.7 3.7v73.5c0 2.4-1.7 4.5-4.2 4.8h-.2l-48 15.8c-1.3.1-2.7-.3-3.7-1.2-.8-.7-1.4-1.7-1.6-2.8v-74.4c.1-.3.1-.6 0-.9zm29.4-35.6 25.4 7.9-53.9 16.7c-2.8.9-7.3 1.1-11.1.6l-9.7-2.7-.4-.1-.4-7.7 16.2-8.5.1-.1 9.1-9.7 24.7 3.6zm-35.8 110.9c-.2 1.1-.8 2.1-1.6 2.8-1 .9-2.4 1.3-3.8 1.1l-57-15.7-.3-.1c-2.4-.4-4.2-2.4-4.2-4.8v-48.4l13.6-1.9 19.7-8.5 14.5-7.9 14.7 4.1.3.1c2 .3 3.7 2.7 4.1 4.8V226c-.1.3-.1.6 0 .9z"/></g><g><path class="st8" d="M258.9 87c-1.6-.5-2.5-1.8-2-2.9l9.5-23.5c.6-1.2 2.6-1.7 4.2-1.1l5.5 3.3c1.6.6 2.3 2.1 1.4 3.1l-15.3 20.8c-.6 1-1.8 1.1-3.3.3z"/></g><g><path class="st8" d="M275 99.1c-1-1.4-.9-2.9.2-3.5l22-12.6c1.2-.6 3.1.2 4 1.7l2.3 5.9c.9 1.5.5 3-.8 3.3l-24.9 7c-1.1.3-2.1-.3-2.8-1.8z"/></g><g><path class="st8" d="M237.4 83.8c-1.6.5-3.1-.1-3.2-1.4l-4.5-24.9c-.2-1.3 1.2-2.8 3-3.2l6.4-.2c1.7-.3 3 .5 2.9 1.9l-1.8 25.8c-.2 1.2-1.1 1.9-2.8 2z"/></g><g><path class="st1" d="M112.8 145.1c-.5.9-1 1.7-1.3 2.7-.2.8-.2 1.5-.3 2.3-.2 5.8.2 11.5 1.2 17.2.2 1.1.4 2.3.1 3.4 0 .2-.1.3-.2.4-.2.1-.4.1-.7.1-1.3-.3-2.4-1.1-3.4-1.9-4-2.9-8.3-5.3-12.8-7.2-.3-.1-.7-.3-.8-.7-.1-.2 0-.4.1-.6 1.6-5.2 3.1-10.3 4.7-15.5.8-2.5 1.6-5.2 3.5-7 1.1-1.1 2.6-1.9 4-2.6 6.1-3 12.4-5.4 18.9-7.2-1.2 3-5 3.9-6.5 6.8-.9 1.6-2.2 3-3.2 4.5-1.2 1.7-2.3 3.5-3.3 5.3z"/><path class="st2" d="M124.3 131.2c-3.2 3.4-13.6 13.2-13.3 14.6l1.3 26.8 29.4.4c-1.6-4.4-8.6-25.6-8.6-25.6-.7-2.5-8.8-16.2-8.8-16.2z"/><path class="st6" d="m207.5 26.3-31.9-3.6.2.7c.1.3 6 25.7 6 26 .5 2.3 5 12.2 6.3 15.2l1.6 3.4 22.7-6.3L223.8 39l-16.3-12.7zm-6.3 32 5.2-6 .9-18 8.7 6.5-8 15.8-6.8 1.7zm.3-26.6-1 19.4c-1.4 1.5-6.1 5.3-8.4 7.2l-.1.1c-2.4-5.4-4.1-9.5-4.3-10.4v-.1c-.6-2.9-2.7-12.3-4.1-18.3l17.9 2.1zM136.4 146.3c-.8-2.6-7.2-13.6-9.1-16.9l-2.2-3.8-25.5 9.9L89 163.3l20.2 12.6.1.1 37.3.5-.2-.7c0-.3-9.9-29.2-10-29.5zm-23.3-8.2-5.5 7.8 1 21.1-11.1-6.6 7.4-19.3 8.2-3zm10.5-1.3c3.5 6 5.9 10.7 6.3 11.6.8 2.3 4.5 13.9 7 21l-21.3-.3-1.1-22.7c1.4-1.9 6.5-6.9 8.9-9.4l.2-.2z"/></g><path class="st7" d="m248.2 118.1 10.6 3.1c8.4 2.4 4.3 3.7-.1 5.3l-13 4.4c-2.7.9-4.9-2.3-3.1-4.5l.7-.9c.4-.4.6-1 .6-1.5l.4-4.5c.2-1.8 2.1-2.1 3.9-1.4z"/></svg>