<svg id="Camada_1" data-name="Camada 1" xmlns="http://www.w3.org/2000/svg" viewBox="0 0 350 300"><defs><style>.cls-3{fill:#fff}.cls-2{fill:#5635dc}.cls-3{fill-rule:evenodd}.cls-4{fill:#211256}.cls-5{fill:#ea267f}.cls-6{fill:#88ffd7}.cls-7{opacity:.3}</style></defs><path d="M302.4 65a33.5 33.5 0 0 0-18-5.5 30.6 30.6 0 0 0-19.4 7l-2 1.7-17.5 28-1.1-2.7a15.5 15.5 0 0 0-21.1-8.4c-3.7 1.8-17.3 7.6-26.7 11.7l-1.6-4a15.4 15.4 0 0 0-21-8.5L156.7 92a15.4 15.4 0 0 0-21.1-8.4c-6.4 3-38.1 16.6-63.7 27.5l-1.3.5-30.3 13a15.5 15.5 0 0 0-8.8 17.6c9 40 36.6 82 67 102.2a15.5 15.5 0 0 0 14.9 1.2l15-6.6c2.8 2.3 5.6 4.4 8.4 6.3a15.5 15.5 0 0 0 14.9 1.2l22.3-9.9a118.5 118.5 0 0 0 12.2 9.4 15.4 15.4 0 0 0 8.5 2.5 15.2 15.2 0 0 0 6.3-1.3l59.9-26.4a15.2 15.2 0 0 0 5.7-4.4c2.1-2.6 19.3-24.3 25.4-35.5a15.2 15.2 0 0 0-2.4-17.8l-7.6-8.5 33.6-49.7 2-2.9.6-3.3c2.7-14.5-6.3-27.5-16-33.5Zm-26 14Z" style="fill:#fff"/><path class="cls-2" d="M110.6 84.4c1.7-.4 2.6-1.7 2-2.9l-8.9-16.4c-.7-1.3-2.8-1.9-4.6-1.3l-4.2 1.4c-1.8.5-2.4 2-1.4 3.1l13.1 15a4.2 4.2 0 0 0 4 1.1ZM157.7 75.4c-1.7.4-3.2-.3-3.3-1.6l-3.6-19c-.1-1.5 1.4-3 3.3-3.3l6.7.1c1.7-.2 3 .7 2.8 2.2l-3 19.6c-.1 1.2-1.1 2-2.9 2Z"/><path class="cls-3" d="M107.8 235a3.5 3.5 0 0 1-1.9-.6c-28-18.6-53.6-57.6-61.9-94.9a3.5 3.5 0 0 1 2-4l31.4-13.4c25.7-11 57.6-24.6 64.1-27.7a3.4 3.4 0 0 1 1.5-.3 3.5 3.5 0 0 1 3.3 2.2c12.3 32 32.8 57.6 47.8 73.5a3.3 3.3 0 0 1 .5 3.8c-5.3 10-23.3 32.7-24.3 33.7a3 3 0 0 1-1.2 1l-59.8 26.4a3.3 3.3 0 0 1-1.4.3Z"/><path class="cls-4" d="M143 96.5a1 1 0 0 1 1 .6 231.8 231.8 0 0 0 48.4 74.3.9.9 0 0 1 .1 1c-5.3 9.9-23 32.4-24 33.2 0 .2-.2.4-.4.5l-59.8 26.4a1.1 1.1 0 0 1-.5 0 1 1 0 0 1-.6 0c-26.4-17.6-52.4-55.7-60.9-93.5a1.1 1.1 0 0 1 .6-1.2c9.5-4.3 85-36.2 95.6-41.2a1 1 0 0 1 .5-.1m0-4.8a6 6 0 0 0-2.5.5c-6.6 3.2-38.5 16.8-64 27.7L45 133.4a6 6 0 0 0-3.4 6.7c8.6 37.7 34.4 77.4 63 96.3a6 6 0 0 0 3.2 1 5.8 5.8 0 0 0 2.5-.5l59.8-26.4a5.5 5.5 0 0 0 2.1-1.7 1.5 1.5 0 0 1-.2.2c1-1 19-23.8 24.7-34.3a5.7 5.7 0 0 0-.9-6.6 226.7 226.7 0 0 1-47.3-72.6 5.9 5.9 0 0 0-5.5-3.8Z"/><path class="cls-5" d="M105.7 194.3c-7.4 0-13-2.6-17-8.1v-.1l-.1-.2a63 63 0 0 1-4.9-12.3c-1.4-5.3-.6-13.7-.5-14v-.2a32.7 32.7 0 0 1 30.7-25.6 28.6 28.6 0 0 1 19.2 7.7c7.3 7 22.5 34.1 18.3 44.5a6.8 6.8 0 0 1-6.8 4.3 15 15 0 0 1-3.4-.4 19.3 19.3 0 0 0-4.6-.5c-4.5 0-9.5 1.1-14.7 2.4s-11 2.5-16.2 2.5Z"/><path class="cls-4" d="M114 135.8a26.4 26.4 0 0 1 17.7 7.1c9.1 8.6 27.8 45.4 13 45.4a13 13 0 0 1-3-.4 21 21 0 0 0-5-.5c-9.6 0-21 5-31 5-5.9 0-11.3-1.8-15.4-7.4a62 62 0 0 1-4.6-12c-1.4-5-.6-13.3-.6-13.3 2.6-13 15.2-24 28.8-24m0-4c-15.3 0-29.7 12-32.7 27.2v.4c0 .9-.9 9.2.7 14.7a65.6 65.6 0 0 0 5 12.8v.2l.2.3c4.5 6 10.6 9 18.7 9 5.4 0 11.1-1.4 16.6-2.7 5.2-1.2 10-2.3 14.3-2.3a17.5 17.5 0 0 1 4 .4 17 17 0 0 0 4 .6 8.8 8.8 0 0 0 8.7-5.7c2.6-6.4-1.2-17.2-4.9-25-4.2-9-9.8-17.7-14-21.6a30.5 30.5 0 0 0-20.5-8.2Z"/><path class="cls-6" d="M89.5 185.7a2.7 2.7 0 0 1-1.8-.7c-4.7-4.7-6.5-14.9-6.8-21.1l-8.3-.7a2.4 2.4 0 0 1-2.2-2c-.9-6.8 4.2-13.3 4.4-13.5a2.4 2.4 0 0 1 1.9-1 2.4 2.4 0 0 1 1.2.4 75 75 0 0 1 5.8 4c4.2-8.2 13.2-14.8 19.2-15.2l.3 4.8a2.3 2.3 0 0 0 2-1.9 2.8 2.8 0 0 0 0 .3 11.9 11.9 0 0 1-3.3 8.3 34.8 34.8 0 0 1 3.8 4.7 2.4 2.4 0 0 1-.6 3.2l-1 .8-4.5 3.6c1.7 2 3.4 4.6 3.9 7.2a2.4 2.4 0 0 1-1.2 2.5 37.5 37.5 0 0 1-7.6 3.6 12.2 12.2 0 0 1-1.2 9.8c-.5.7-2 3-4 3Z"/><path class="cls-4" d="M103 138.3c-.6 0 1.1 4.6-4.5 9a37.4 37.4 0 0 1 5.1 6c-2.4 2-5 4-7.5 5.8 1.8 2.3 4.5 5.3 5 8.2-3.2 1.8-6 3.3-9.5 4 3.4 7.5-1.3 12-2.1 12a.2.2 0 0 1-.2 0c-4.2-4.3-6-15.1-6.1-21.6l-10.4-.8C72 155 76.7 149 76.7 149a98 98 0 0 1 8 5.9c2.8-8.6 12.4-16.3 18.2-16.7m0-4.8h-.3c-6.7.4-15 6.7-19.7 14.1q-2.3-1.7-3.8-2.6a4.8 4.8 0 0 0-6.3 1.2c-.6.7-5.8 7.6-4.9 15.2a4.8 4.8 0 0 0 4.4 4.2l6.2.5c.7 6.8 2.7 15.9 7.4 20.6a5 5 0 0 0 3.5 1.4c3 0 5.2-2.8 6-4a14.2 14.2 0 0 0 2-9.6 50.3 50.3 0 0 0 6-3 4.8 4.8 0 0 0 2.3-5 16 16 0 0 0-2.9-6.4l2.7-2.1 1-.8a4.8 4.8 0 0 0 1.1-6.4 35.5 35.5 0 0 0-2.6-3.5 14 14 0 0 0 2.6-7.8 4.8 4.8 0 0 0-4.5-6Zm0 9.6Z"/><circle class="cls-4" cx="110.1" cy="180.9" r="2.6"/><circle class="cls-4" cx="114.5" cy="163.3" r="2.6"/><circle class="cls-4" cx="117.8" cy="148.1" r="2.6"/><circle class="cls-4" cx="125.9" cy="177.7" r="2.6"/><circle class="cls-4" cx="129.8" cy="160.6" r="2.6"/><g class="cls-7"><path class="cls-4" d="M194.6 196.8c-9.8-2.7-74.1 30.2-74.1 30.2s-34.5-28-51-93.4l75.2-31.5Z"/></g><path class="cls-3" d="M146 235.8a3.4 3.4 0 0 1-1.8-.5c-28.1-18.7-53.6-57.7-62-95a3.5 3.5 0 0 1 2-3.9l31.4-13.4c25.7-11 57.6-24.6 64.2-27.8a3.4 3.4 0 0 1 1.5-.3 3.5 3.5 0 0 1 3.2 2.2c12.3 32.1 32.8 57.7 47.9 73.5a3.3 3.3 0 0 1 .5 3.8c-5.4 10-23.3 32.7-24.3 33.8a3 3 0 0 1-1.2 1l-59.9 26.3a3.5 3.5 0 0 1-1.4.3Z"/><path class="cls-4" d="M181.3 97.3a1 1 0 0 1 1 .7 231.8 231.8 0 0 0 48.3 74.3.9.9 0 0 1 .2 1c-5.4 9.8-23.1 32.3-24 33.2l-.4.4-59.9 26.4a1 1 0 0 1-1 0c-26.4-17.6-52.4-55.7-60.9-93.5a1 1 0 0 1 .7-1.2c9.4-4.2 85-36.2 95.5-41.2a1 1 0 0 1 .5-.1m0-4.8a5.8 5.8 0 0 0-2.5.6c-23.3 11-32.6 14.2-64 27.6a3164 3164 0 0 0-31.5 13.5A5.9 5.9 0 0 0 80 141c8.5 37.8 34.4 77.4 63 96.3a5.8 5.8 0 0 0 5.6.5l59.8-26.4a5.6 5.6 0 0 0 2.1-1.7l-.2.2c1-1 19.1-23.8 24.7-34.3a5.7 5.7 0 0 0-.8-6.6 227 227 0 0 1-47.4-72.6 5.9 5.9 0 0 0-5.5-3.8Z"/><path class="cls-4" d="M146 239a6.7 6.7 0 0 1-3.6-1c-28.7-19-54.7-59-63.3-97a6.7 6.7 0 0 1 3.8-7.5l31-13.2.5-.3 25.6-10.7c13.8-5.8 23-9.6 38.4-17a6.6 6.6 0 0 1 2.9-.6 6.7 6.7 0 0 1 6.2 4.3 225.9 225.9 0 0 0 47.2 72.4 6.5 6.5 0 0 1 1 7.6c-5.4 9.9-22 31.2-24.6 34.1a6.3 6.3 0 0 1-2.4 2l-59.9 26.3a6.5 6.5 0 0 1-2.7.7Zm35.3-145.7a5.1 5.1 0 0 0-2.2.5c-15.5 7.4-24.6 11.2-38.5 17L115 121.5l-.5.3a2491 2491 0 0 0-31 13.2 5.1 5.1 0 0 0-2.8 5.8c8.4 37.6 34.2 77 62.6 95.8a5.1 5.1 0 0 0 4.9.4l59.8-26.4a4.9 4.9 0 0 0 1.7-1.3c1-1.1 19-23.8 24.6-34a4.9 4.9 0 0 0-.8-5.8 227 227 0 0 1-47.5-73 5.1 5.1 0 0 0-4.8-3.2Zm-35.2 141a1.9 1.9 0 0 1-1-.4c-27.8-18.4-53-57-61.3-93.9A1.9 1.9 0 0 1 85 138l31.4-13.5c25.7-11 57.6-24.5 64.2-27.7a1.9 1.9 0 0 1 2.5 1c12.4 32.3 33 58 48.2 74a1.7 1.7 0 0 1 .3 2c-5.3 9.8-23 32.3-24 33.4a2 2 0 0 1-.7.6L146.9 234a1.8 1.8 0 0 1-.8.2Zm-.1-1.7h.2l59.9-26.4a1.4 1.4 0 0 1 .2-.3c.5-.6 18.4-23 23.7-33-15.2-16.1-36-42-48.5-74.6a.2.2 0 0 0-.3-.1c-6.7 3.1-38.6 16.8-64.3 27.7l-31.4 13.5a.3.3 0 0 0-.1.3c8.2 36.5 33 74.7 60.5 93Z"/><path class="cls-5" d="M148.4 193.3c-7.4 0-13-2.6-17-8.1v-.1l-.1-.1a63.6 63.6 0 0 1-4.8-12.4 47.1 47.1 0 0 1-.6-14v-.2a32.7 32.7 0 0 1 30.7-25.5 28.6 28.6 0 0 1 19.2 7.6c7.3 7 22.5 34.2 18.4 44.5a6.8 6.8 0 0 1-6.9 4.4 14.5 14.5 0 0 1-3.4-.5 19.4 19.4 0 0 0-4.6-.5c-4.5 0-9.5 1.2-14.7 2.4s-11 2.5-16.2 2.5Z"/><path class="cls-4" d="M156.7 134.8a26.4 26.4 0 0 1 17.8 7.2c9 8.5 27.7 45.3 12.9 45.3a12.8 12.8 0 0 1-3-.4 21.7 21.7 0 0 0-5-.5c-9.6 0-21 5-31 5-5.9 0-11.2-1.8-15.4-7.4a61.6 61.6 0 0 1-4.6-11.9c-1.4-5-.5-13.3-.5-13.3 2.5-13 15.1-24 28.8-24m0-4c-15.4 0-29.8 12-32.7 27.3V158.4c-.1 1-1 9.3.6 14.8a65.8 65.8 0 0 0 5 12.8l.1.2.2.2c4.4 6 10.5 9 18.6 9 5.5 0 11.1-1.3 16.6-2.6 5.2-1.2 10-2.3 14.3-2.3a17 17 0 0 1 4.1.4 16.8 16.8 0 0 0 4 .5 8.8 8.8 0 0 0 8.6-5.6c2.6-6.5-1.2-17.2-4.8-25-4.2-9-9.8-17.7-14-21.6a30.6 30.6 0 0 0-20.5-8.2Z"/><path class="cls-6" d="M132.2 184.8a2.7 2.7 0 0 1-1.8-.8c-4.7-4.7-6.5-14.8-6.8-21l-8.3-.7a2.4 2.4 0 0 1-2.2-2.1c-.9-6.8 4.2-13.3 4.4-13.5a2.4 2.4 0 0 1 1.9-1 2.3 2.3 0 0 1 1.2.4c1.6 1 3.8 2.5 5.8 4.1 4.2-8.3 13.2-15 19.2-15.3l.3 4.8a2.3 2.3 0 0 0 2-1.9v.3a11.8 11.8 0 0 1-3.3 8.3 34.8 34.8 0 0 1 3.7 4.7 2.4 2.4 0 0 1-.5 3.2l-1 .8-4.5 3.6c1.7 2.1 3.4 4.6 3.9 7.2a2.4 2.4 0 0 1-1.2 2.5 38.6 38.6 0 0 1-7.5 3.6 12.1 12.1 0 0 1-1.3 9.8c-.5.7-2 3-4 3Z"/><path class="cls-4" d="M145.7 137.3c-.5 0 1.1 4.6-4.5 9a38.5 38.5 0 0 1 5.1 6.1c-2.4 2-5 4-7.5 5.7 1.8 2.4 4.5 5.4 5 8.2-3.2 1.8-6 3.3-9.5 4 3.4 7.6-1.3 12-2.1 12a.1.1 0 0 1-.1 0c-4.3-4.2-6.1-15-6.2-21.6l-10.4-.8c-.8-5.8 3.9-11.7 3.9-11.7 2 1.2 5.5 3.8 8 5.8 2.9-8.6 12.5-16.3 18.3-16.7m0-4.8h-.3c-6.7.5-15 6.7-19.7 14.2-1.6-1.2-2.9-2-3.9-2.6a4.9 4.9 0 0 0-2.4-.7 4.8 4.8 0 0 0-3.8 1.8c-.6.8-5.8 7.7-4.9 15.3a4.8 4.8 0 0 0 4.4 4.2l6.2.5c.7 6.7 2.7 15.9 7.4 20.5a5 5 0 0 0 3.5 1.5c3 0 5.2-2.9 6-4a14.3 14.3 0 0 0 2-9.6 50.4 50.4 0 0 0 6-3 4.8 4.8 0 0 0 2.3-5 16.2 16.2 0 0 0-2.9-6.4l2.7-2.2 1-.8a4.8 4.8 0 0 0 1-6.3 33.6 33.6 0 0 0-2.5-3.5 14 14 0 0 0 2.5-7.8 4.7 4.7 0 0 0 .2-1.3 4.8 4.8 0 0 0-4.6-4.8Zm0 9.6Z"/><circle class="cls-4" cx="152.8" cy="179.9" r="2.6"/><circle class="cls-4" cx="157.2" cy="162.3" r="2.6"/><circle class="cls-4" cx="160.5" cy="147.1" r="2.6"/><circle class="cls-4" cx="168.7" cy="176.7" r="2.6"/><circle class="cls-4" cx="172.6" cy="159.6" r="2.6"/><g class="cls-7"><path class="cls-4" d="M225.4 202.6c-9.8-2.6-62.4 24.6-62.4 24.6s-33.5-28-50.1-93.4l71.7-29.8Z"/></g><path class="cls-3" d="M195.5 236.5a3.4 3.4 0 0 1-2-.5c-28-18.7-53.5-57.7-61.9-95a3.5 3.5 0 0 1 2-4l31.5-13.4c25.6-11 57.5-24.6 64-27.7a3.4 3.4 0 0 1 1.6-.3 3.5 3.5 0 0 1 3.2 2.2c12.3 32 32.8 57.6 47.8 73.5a3.3 3.3 0 0 1 .6 3.8c-5.4 10-23.3 32.7-24.4 33.7a3.1 3.1 0 0 1-1.1 1l-60 26.4a3.3 3.3 0 0 1-1.3.3Z"/><path class="cls-4" d="M230.6 98a1 1 0 0 1 1 .7A231.3 231.3 0 0 0 280 173a.9.9 0 0 1 .1 1c-5.3 9.9-23 32.4-23.9 33.2l-.4.5-59.9 26.4a1.1 1.1 0 0 1-.4 0 1 1 0 0 1-.6-.1c-26.4-17.5-52.4-55.7-61-93.4a1 1 0 0 1 .7-1.3c9.5-4.2 85-36.1 95.6-41.2a1 1 0 0 1 .4 0m0-4.9a6 6 0 0 0-2.5.6c-6.5 3.1-38.4 16.7-64 27.7l-31.5 13.4a5.9 5.9 0 0 0-3.3 6.7c8.5 37.8 34.4 77.4 63 96.4a5.9 5.9 0 0 0 5.6.4l59.8-26.4a5.5 5.5 0 0 0 2.1-1.7 2.4 2.4 0 0 1-.2.2c1-1 19.1-23.8 24.7-34.3a5.7 5.7 0 0 0-.8-6.6A227 227 0 0 1 236 97a5.9 5.9 0 0 0-5.5-3.7Z"/><path class="cls-4" d="M195.5 239.7a6.6 6.6 0 0 1-3.7-1c-28.7-19-54.7-59-63.3-97a6.7 6.7 0 0 1 3.8-7.5l31.4-13.5c25.7-11 57.6-24.5 64-27.6a6.7 6.7 0 0 1 9.1 3.6A227.6 227.6 0 0 0 284 169a6.5 6.5 0 0 1 1 7.6 325 325 0 0 1-24.6 34.1 6.2 6.2 0 0 1-2.4 2l-59.8 26.4a6.7 6.7 0 0 1-2.7.5ZM230.6 94a5.1 5.1 0 0 0-2.1.5c-6.6 3.1-38.4 16.7-64 27.6l-31.6 13.6a5.1 5.1 0 0 0-2.9 5.7c8.5 37.6 34.2 77 62.6 95.9a5 5 0 0 0 5 .4l59.7-26.4a4.7 4.7 0 0 0 1.7-1.3l.2-.2c2-2.4 19-23.9 24.4-34a4.9 4.9 0 0 0-.7-5.6 227.8 227.8 0 0 1-47.6-73 5 5 0 0 0-4.7-3.2Zm-35.1 141a1.8 1.8 0 0 1-1-.4c-27.8-18.4-53-57-61.3-93.9a1.9 1.9 0 0 1 1-2.1l31.5-13.5c25.6-11 57.6-24.5 64.2-27.7a1.9 1.9 0 0 1 2.5 1c12.4 32.3 33 58 48.2 74a1.7 1.7 0 0 1 .3 2c-5.4 9.8-23 32.3-24 33.4a1.9 1.9 0 0 1-.7.6l-59.9 26.4a1.8 1.8 0 0 1-.8.1Zm-.2-1.7h.3l59.8-26.4a1 1 0 0 1 .2-.3c.6-.6 18.5-23 23.8-33-15.2-16.1-36-42-48.5-74.6a.3.3 0 0 0-.4-.2c-6.6 3.2-38.6 16.9-64.2 27.8l-31.4 13.5a.3.3 0 0 0-.2.3c8.3 36.5 33.2 74.7 60.6 93Z"/><path class="cls-3" d="M256.8 209.4s5.7-13.9-1.7-35.5c0 0 13.7-5.9 28.2-1.7 0 0-7.4 22.4-26.5 37.2Z"/><path class="cls-4" d="M256.8 211.3a2 2 0 0 1-1.8-2.7c0-.2 5.3-13.5-1.7-34a2 2 0 0 1 1.1-2.5c.6-.2 14.5-6 29.5-1.8a2 2 0 0 1 1.3 2.5c-.3 1-7.8 23.2-27.2 38.2a2 2 0 0 1-1.2.3Zm.8-36.2c4 12.8 3.6 22.8 2.6 28.8a87.5 87.5 0 0 0 20.5-30.4c-10-2.2-19.4.4-23.1 1.6Z"/><path class="cls-5" d="M197.6 195.7c-7.3 0-12.8-2.6-16.7-8h-.1v-.2a63.8 63.8 0 0 1-4.8-12.3 46.5 46.5 0 0 1-.6-13.8v-.2a32.4 32.4 0 0 1 30.4-25.3 28.2 28.2 0 0 1 19 7.6c7.3 6.9 22.3 33.8 18.2 44-.7 2-2.4 4.2-6.5 4.2a14.3 14.3 0 0 1-3.3-.4 19.5 19.5 0 0 0-4.7-.5c-4.5 0-9.5 1.1-14.8 2.4s-11 2.5-16.1 2.5Z"/><path class="cls-4" d="M205.8 137.6a26.4 26.4 0 0 1 17.8 7c9.1 8.7 27.8 45.5 13 45.5a13 13 0 0 1-3-.4 21 21 0 0 0-5-.6c-9.7 0-21 5-31 5-6 0-11.3-1.7-15.4-7.3a62 62 0 0 1-4.6-12c-1.4-5-.6-13.2-.6-13.2 2.6-13 15.2-24 28.8-24m0-3.3c-15 0-29 11.7-32 26.6V161.2c0 .9-.9 9 .6 14.5a65 65 0 0 0 5 12.6v.2l.2.2a21 21 0 0 0 18 8.7c5.4 0 11-1.4 16.5-2.6 5.2-1.3 10-2.4 14.4-2.4a17.8 17.8 0 0 1 4.3.5 16 16 0 0 0 3.7.4c3.9 0 6.7-1.8 8-5.1 4.5-11.2-11.3-39-18.6-46a30 30 0 0 0-20-8Z"/><path class="cls-6" d="M181.3 187a2.3 2.3 0 0 1-1.5-.6c-4.6-4.6-6.3-15-6.7-21.2l-8.6-.6a2 2 0 0 1-1.8-1.8c-.8-6.6 4-12.9 4.3-13.1a2 2 0 0 1 1.5-.8 2 2 0 0 1 1 .3c1.7 1 4 2.7 6.2 4.4 4-8.4 13.1-15.1 19-15.5l.3 3.9a1.8 1.8 0 0 0 1.7-1.5v.3a11.4 11.4 0 0 1-3.5 8.3 35 35 0 0 1 4 5 2 2 0 0 1-.5 2.7l-1 .8-4.9 3.7c1.7 2.2 3.6 4.8 4.1 7.5a2 2 0 0 1-1 2 36.3 36.3 0 0 1-7.8 3.6 11.8 11.8 0 0 1-1.1 10c-.4.6-2 2.7-3.7 2.7Z"/><path class="cls-4" d="M194.9 140c-.6 0 1 4.6-4.5 9a37.8 37.8 0 0 1 5.1 6.1c-2.4 2-5 4-7.6 5.7 1.9 2.4 4.6 5.3 5 8.2a29 29 0 0 1-9.4 4c3.4 7.6-1.3 12-2.2 12-4.4-4.3-6.2-15.1-6.3-21.6l-10.4-.8c-.7-5.9 4-11.7 4-11.7a98 98 0 0 1 8 5.8c2.8-8.6 12.4-16.3 18.3-16.7m0-4h-.3c-6.7.5-15 7-19.5 14.6a62.8 62.8 0 0 0-4.5-3.1 4 4 0 0 0-2-.6 4 4 0 0 0-3.1 1.5c-.6.7-5.7 7.4-4.8 14.7a4 4 0 0 0 3.7 3.4l7 .5c.5 6.6 2.4 16.1 7.1 20.8a4 4 0 0 0 2.9 1.2c2.6 0 4.6-2.6 5.3-3.7a13.5 13.5 0 0 0 1.8-9.6 46 46 0 0 0 6.4-3.3 4 4 0 0 0 2-4 16.3 16.3 0 0 0-3.3-6.7l3.4-2.7 1-.8a4 4 0 0 0 .8-5.2 33 33 0 0 0-3-4 13.3 13.3 0 0 0 2.8-8 3.8 3.8 0 0 0 .2-1 4 4 0 0 0-4-4Zm0 8Z"/><circle class="cls-4" cx="202" cy="182.6" r="2.6"/><circle class="cls-4" cx="206.3" cy="165.1" r="2.6"/><circle class="cls-4" cx="209.6" cy="149.8" r="2.6"/><circle class="cls-4" cx="217.8" cy="179.4" r="2.6"/><circle class="cls-4" cx="221.7" cy="162.4" r="2.6"/><path d="m242 134 34.4-55s16.6-2.4 26.5 16.6L266 150l-28.9 19.6Z" style="fill:#ffd15f"/><path d="M264.2 139.5a22.3 22.3 0 0 0-9.5-7.4 32.3 32.3 0 0 0-12.4-1.2l-10 40c-.6 3.2 4.7 5.4 7.2 3.4l29.3-24.2v-.2c-1.1-2.7-2.8-8-4.6-10.4Z" style="fill:#e1feff"/><path class="cls-5" d="M267.8 99.6a16.1 16.1 0 0 1 8 3.8 49.5 49.5 0 0 1 4.9 3.3c3.4 2.6 10.3 6.3 11 10.5l13.9-25.7C299.9 69.3 279 75 279 75l-15 23.3 3.8 1.3Z"/><path class="cls-4" d="M285 76a17.1 17.1 0 0 1 9.2 3c5.3 3.3 9.8 10.1 8.6 16.6L266 150l-31.7 26.2L242 134l34.3-55a13.8 13.8 0 0 1 8.7-3m-.1-6.8a20.9 20.9 0 0 0-13.2 4.7l-.7.6-.5.8-34.3 55-.9 1.3-.2 1.5-7.4 42.5c-1 4 3.4 8 8.3 4.3l33.8-24.3 1-.8.8-1 36.8-54.4.7-1.2.3-1.4c2-10-4.7-19.3-11.6-23.6a23.9 23.9 0 0 0-12.9-4Z"/><path class="cls-4" d="m269.8 150-2.8 1.2c0-7.4-4.1-14-8.2-16.6-8.6-5.5-19.9-2-20-2l1.3-3.2c.5-.2 10.8-4 20.4 2a23 23 0 0 1 9.3 18.6Z"/><path d="M290.4 96.3a22 22 0 0 0-20.2-7.4l-8.3 12.7c7.9 2.3 19.2 6 24 12.8 1.4 2 2.6 2.2 3.4 4.4l8.1-14c-.5-4-4.5-5.2-7-8.5Z" style="fill:#00beea"/><path class="cls-4" d="M287 123.2a27.9 27.9 0 0 0-17.2-16.8 34 34 0 0 0-12.3-1.1l-.5-3.7c.2 0 23.6-4.9 33.5 18.3ZM300.6 105.4C290.8 87 275.8 86 270.8 85.5h-1l-.2.7-3.6-.5 1 3.2.1.2c.8 1 1.7 1 3.4 1.1 4.7.4 17.4 1.3 26 17.4l.7 1.3 4.1-2.3Z"/><path class="cls-4" d="m260.1 134.2-2.8-1.5 17.6-25.9 2.8 1.4-17.6 26zM234.1 155.5s12.8 1 14.7 10.1l-17.5 12.7Z"/><path class="cls-4" d="M194.8 240.5a7.5 7.5 0 0 1-4.1-1.2 114 114 0 0 1-15-12.1l-27.2 12a7.6 7.6 0 0 1-7.2-.6 110 110 0 0 1-11.6-8.9l-19.5 8.6a7.5 7.5 0 0 1-7.2-.6c-28.8-19.1-55-59.1-63.6-97.3a7.5 7.5 0 0 1 4.3-8.5l30.9-13.2.5-.3c25.6-10.9 57.5-24.5 64-27.6a7.6 7.6 0 0 1 3.2-.8 7.5 7.5 0 0 1 7 4.8l3.2 7.8c13.9-6 22-9.6 25-11a7.4 7.4 0 0 1 10.1 4.1c1.5 3.8 3 7.6 5 11.6 12.9-5.6 29.7-12.8 34.2-15a7.6 7.6 0 0 1 3.2-.7 7.5 7.5 0 0 1 7 4.8c2.1 5.5 4.6 11.1 7.5 16.8l24.8-39.7.9-.8a22.5 22.5 0 0 1 14.2-5.1 25.4 25.4 0 0 1 13.8 4.2c7.4 4.6 14.4 14.5 12.3 25.3l-.3 1.7-1 1.5-37 54.8c3.8 4.6 7.8 9.2 11.9 13.4a7.3 7.3 0 0 1 1.1 8.5 327 327 0 0 1-24.6 34.3 7.3 7.3 0 0 1-2.7 2.2L198 239.9a7.3 7.3 0 0 1-3.3.6Zm-18.5-17.1.7.7a112.4 112.4 0 0 0 15.5 12.5 4.3 4.3 0 0 0 4 .3l59.9-26.4a3.8 3.8 0 0 0 1.5-1.1v-.1c2-2.2 19-23.8 24.4-33.8a4 4 0 0 0-.6-4.8c-4.5-4.6-8.8-9.6-13-14.7l-1-1.3 1.4-1 .6-.8L307 97.6l.2-1c1.7-9-4.2-17.9-11-22a22.2 22.2 0 0 0-12-3.7 19.3 19.3 0 0 0-12.1 4.3l-.5.5-.4.5-27.1 43.5-1.3-2.4a187.7 187.7 0 0 1-8.9-19.8 4.2 4.2 0 0 0-5.8-2.3c-3.6 1.7-15 6.7-35.8 15.6l-1.4.6-.7-1.4c-2.2-4.6-4-9-5.7-13.2a4.2 4.2 0 0 0-5.8-2.3L152.3 106l-1.4.6-.6-1.4c-1.6-3.4-2.9-6.5-4-9.3a4.3 4.3 0 0 0-4-2.8 4.2 4.2 0 0 0-1.8.4c-6.6 3.2-38.5 16.8-64.1 27.7l-.5.3L45 134.8a4.3 4.3 0 0 0-2.4 4.9c8.4 37.4 34 76.6 62.2 95.3a4.3 4.3 0 0 0 4.1.4l21.5-9.5.7.7a107 107 0 0 0 12 9.3 4.3 4.3 0 0 0 4.2.3Z"/><path class="cls-2" d="M205.5 79.6c-1.7-.4-2.6-1.7-2-2.8l8.9-16.5c.7-1.3 2.8-1.9 4.6-1.3l4.2 1.4c1.7.5 2.4 2 1.4 3.1l-13 15a4.3 4.3 0 0 1-4 1.1Z"/></svg>