<svg width="177" height="110" xmlns="http://www.w3.org/2000/svg"><g fill="none" fill-rule="evenodd"><path d="M156.098179 35.3748792c1.440182-7.9912916-3.164894-15.0618543-8.361955-18.5352245-2.791363-1.9240059-6.043909-2.962207-9.374666-2.9955438-3.723167-.0031749-7.329016 1.3810933-10.181061 3.9083353l-.823924.7683324-15.627591 25.6311866L86.4799515 5.45912843l-3.6166363 1.63826239-.6823334-.82706852C78.9675424 2.40326108 75.0623303.17446224 71.1733.01889082c-2.1413939-.12699709-4.2760455.38416618-6.1612273 1.46999125-2.5203182 1.46522886-4.4432575 3.85753644-5.4033788 6.72290816l-.5272575 1.50650292-1.3929849-.65403499c-1.4819848-.70959621-3.0785909-1.11281195-4.7035151-1.19218513-2.1481364-.1349344-4.2881819.37781633-6.1693182 1.47951604-4.1196212 2.36849563-6.4673334 7.13882363-6.2691061 12.75526963.0283182.8746925.1132727 1.7477974.2548637 2.6113776l.2063181 1.2017099-2.3220909.9572405-7.2588939 15.3587099L63.076997 107.274279l31.0798788-16.5429582-2.4043485 19.2067212 32.0534847-23.1245812 31.979318-49.6876093.312849-1.7509723Z" fill="#FFF"/><path d="m84.8246864 10.7707815-3.6409091 1.654137c-2.6780909-4.91002477-6.591394-8.02780319-10.3644546-8.1928994-1.3471363-.0698484-2.6875303.25558163-3.8715.94136589-2.6929242 1.54936443-4.1681666 4.69254227-4.0279242 8.61833961.1051818 2.1653003.581197 4.290914 1.4010757 6.2768309l-1.1785757.5318003c-2.67-5.0846457-6.6979243-8.3405335-10.5276212-8.5056297-1.3457879-.0761983-2.6848334.2492318-3.8634091.9397784-2.7023637 1.5588892-4.1776061 4.7020671-4.0360152 8.6183397.1146212 2.2859475.6351364 4.527446 1.5318788 6.6101982l-4.580803 1.8890817-5.5517121 11.7440553L64.83205 100.892675l49.163061-26.1899737.443651-.2349446 5.182227-10.4470977-34.7963026-53.2498775Z" fill="#211256"/><path d="m40.1839045 41.4007321 26.0325 53.5610204 45.4641665-23.8976764 3.104212-6.9657901S59.592647 25.1371679 58.96695 25.1371679c-.6270455 0-15.1016818 8.3500583-15.1016818 8.3500583l-3.6813637 7.9135059Z" fill="#4CE0AA"/><path fill="#88FFD7" d="m83.2998197 15.4463379-38.181 17.3081152 25.323197 50.1241618 43.8082273-20.0782391z"/><path d="M105.946139 49.158349 95.2958061 67.4427542l-1.9121516 12.9552901s20.0020755-9.3168236 20.8664545-10.6233061c.864379-1.3064825-3.682712-16.0270321-3.682712-16.0270321l-4.621258-4.5893571Z" fill="#00BEEA"/><path d="m84.0661636 12.6077943-1.6478484.7318207-38.1149243 17.3255773-2.1508333.9747026 1.1030606 2.1764125 25.3164545 50.1241618.9291061 1.8462202 1.8137121-.828656 43.8082271-20.0845889 2.397606-1.0985248-1.483333-2.2621356-30.9746971-47.3540379-.9965303-1.523965v-.0269869Zm-.7659394 2.811398 30.9504238 47.3556253-43.8095753 20.0766516-25.315106-50.0971749 38.1742575-17.335102Z" fill="#211256"/><path d="M56.2787455 30.0297306c1.9849697-1.4461793 4.8707272-.6603848 6.4457575 1.7541472 1.5750303 2.4161196 1.2419546 5.5465977-.7430151 6.992777-1.9863182 1.4461793-4.8720758.6603849-6.4471061-1.7557347-1.5750303-2.4145321-1.2419545-5.5450102.7443637-6.9911895" fill="#211256"/><path d="M61.9479106 29.0451857c-.1537273-2.3954825-.8185303-4.7227041-1.9431667-6.8070437-2.0604848-3.9892959-5.0918787-6.643535-7.7200757-6.7562449-.709303-.0365117-1.4159091.1317595-2.0429546.4873513-1.5305303.8715175-2.3220909 2.7510743-2.2317424 5.2243426.1523788 2.3843702.8117879 4.702067 1.9283333 6.7816443l.1550758.304793 3.0489242-1.1159869-.1901363-.3381297-.1146212-.2000204c-.0458485-.0698484-.0876515-.1412843-.1240606-.2174826-.895394-1.6319125-1.429394-3.4574956-1.5655909-5.3370524 0-1.3588688.2804848-2.0383032.6027727-2.2208615.1227121-.0698484.2629545-.0984228.4018485-.0873105 1.2527424.0523863 3.5020151 1.9509927 5.0918788 5.0227347.8913484 1.6319125 1.4226515 3.4511457 1.5575 5.3291151.0485454 1.3668061-.272394 2.0462405-.5933334 2.2287988l-.486803.2095452.1240606.5397376c.2305909.6794344.4692727 1.3572814.7241364 2.0287785l.1995757.5302128.5097273-.2079577h.1078788c.1119242-.0396866.2225-.0857231.3290303-.1396968 1.5237879-.8794548 2.3153485-2.7415496 2.2317424-5.2592668" fill="#E639FF"/><path d="M59.7157636 34.3052462c-.172606 0-.8239242-.1650962-1.507606-1.2445714-.2346364-.5333878-.2346364-1.1493236 0-1.6811239.3209394-.1825583.6418788-.8715175.5933333-2.2287989-.1335-1.8779693-.6661515-3.69879-1.5575-5.3291151-1.5898636-3.0733295-3.8391364-4.9703484-5.0905303-5.0243222h-.0498939c-.1227122-.0047624-.2454243.0253994-.3533031.0873105-.3222878.1825583-.6432272.8715175-.6027727 2.222449.136197 1.8795568.6715455 3.7051399 1.5669394 5.335465.0350606.0761983.0768636.1492216.1227121.21907l.1146212.2000204.1901364.3381297-3.0718485 1.1223368-.1577727-.3032056c-1.115197-2.0811647-1.7746061-4.397274-1.9269849-6.7816443-.0916969-2.5161297.6998637-4.3544125 2.2317425-5.2243426.573106-.32543 1.2122878-.4921137 1.8622575-.4874505h.1820455c2.6268485.1128091 5.6582424 2.7686357 7.7173788 6.7563441 1.1259848 2.0843397 1.7894394 4.4115613 1.9445151 6.8086312.1078788 2.4716808-.6836818 4.3337755-2.2074697 5.2227551v-.0079373Zm2.0092425-13.0616501c-2.4218788-4.6925423-6.0048031-7.6864986-9.3571364-7.83431h-.264303c-.9803485-.00776-1.9485606.2509966-2.808894.7494601-2.175106 1.2620335-3.3442424 3.8734111-3.245803 7.1546983.1618182 2.7066253.9021364 5.3386399 2.1670151 7.6976107l.1564243.3047931.445.86993c2.0753182-.9572405 4.2180606-1.7398601 6.3432727-2.6113776.1456364-.0555612.3074546-.0555612.4530909 0l-.8239242-1.3922055-.1901364-.3397172-.1388939-.2444694-.0660758-.1142974c-.6364848-1.1842478-1.068-2.4764431-1.2783636-3.8210248.9628182.9032668 1.7651667 1.982742 2.3652424 3.1860394.7389697 1.3541064 1.1880152 2.8606093 1.3174697 4.4147362.0148333.1968454.0148333.3952784 0 .5921239l-.1065303.0603236-.2710454.5921239c-.5609697 1.1699606-.5380455 2.5558163.0647272 3.7003775.6378334 1.2509213 1.8258485 2.0779898 3.1635455 2.2033994h.5016363l.4787122-.2524067c2.1831969-1.2620335 3.3698636-3.873411 3.2943484-7.1658105-.1631666-2.7256749-.9169696-5.376739-2.1993787-7.749997Z" fill="#211256"/><path d="M55.2924636 17.2136611c-.573106-.0777857-1.1529545.0507988-1.6478484.3651166-.2386819.1841458-.4369091.3746414-.6513182.5397376.8724697.2365321 3.2296212 1.2540962 5.1903182 6.2609563.1119242-.7826196.4112878-1.5192026.8724696-2.1414884.5434394-.5143382-1.9930606-3.6400539-3.7636212-5.0243221" fill="#F8BBFF"/><path d="M74.4872015 22.1636899c1.9863182-1.4461793 4.8707273-.6603848 6.4457576 1.7541473 1.5750303 2.4161195 1.2419545 5.5465976-.7430152 6.9911895-1.9849697 1.4461793-4.8720757.6603848-6.447106-1.7557347-1.5750303-2.4145321-1.2419546-5.5450102.7443636-6.9896021" fill="#211256"/><path d="M80.1538045 21.1839074c-.1537272-2.3954825-.8185303-4.722704-1.9431666-6.8086312-2.0604849-3.9877084-5.0918788-6.64353495-7.7200758-6.75624486-.712-.03968659-1.424.12858455-2.0510454.48893878-1.5237879.86993003-2.314 2.74948688-2.2236515 5.22275508.1496818 2.3859577.8090909 4.705242 1.9269848 6.7816443l.1564242.3063805 3.0489243-1.1159869-.1901364-.3381297-.1159697-.2000204c-.0404545-.0698484-.0903485-.1396968-.130803-.21907-.89-1.6335-1.421303-3.4574956-1.5575-5.335465 0-1.3588688.2804848-2.0462405.5933333-2.2303863.1281061-.0634986.2710455-.088898.4112879-.0793732 1.2527424.0539738 3.5020152 1.9509927 5.0918788 5.0243222.887303 1.6319125 1.4186061 3.4527332 1.5561515 5.3291151.0498939 1.3668062-.2710454 2.0462406-.5919848 2.2287989l-.4868031.2095452.1146212.5397376c.2400303.6794344.4787122 1.3572813.7335758 2.0271909l.1982273.5318003.5029848-.2095452h.1065303c.1173182-.0349242.2305909-.0841355.3384697-.1460466 1.5237879-.8715175 2.314-2.743137 2.2317424-5.2513295" fill="#E639FF"/><path d="M77.9216576 26.4423805h-.0418031c-.172606 0-.8239242-.1650962-1.5062575-1.2525088-.2346364-.5302128-.2346364-1.1429737 0-1.6731866.3209394-.1825583.6418788-.86993.5919848-2.2287988-.1375454-1.8763819-.6688485-3.6956152-1.5561515-5.3291152-1.5912121-3.0717419-3.8391364-4.9687609-5.0918788-5.0227347h-.0498939c-.1254091-.0031749-.2481212.023812-.361394.0777858-.3141969.1825583-.6351363.8715175-.5933333 2.2303863.1375455 1.8779693.6688485 3.701965 1.5575 5.3370524 0 .0777857.0903485.1476341.130803.2174825l.1159697.2000204.1887879.3381298-3.0475757 1.1159869-.1564243-.304793c-1.1178939-2.0779898-1.777303-4.3956866-1.9283333-6.7816444-.0903485-2.5161297.7012121-4.35282502 2.225-5.22434252.5744545-.32384256 1.2176818-.4921137 1.869-.48744966h.1820454c2.6268485.11280826 5.6582425 2.76863478 7.7187273 6.75634328 1.1259849 2.0843396 1.7907879 4.4115612 1.9445152 6.8086312.1227121 2.4732682-.6675 4.3433003-2.1912879 5.2227551M79.9309 13.3823178c-2.4218788-4.69254229-6.004803-7.68649856-9.3571364-7.83583493h-.264303c-.981697-.00623506-1.9485606.25093404-2.8102424.7493976-2.1737576 1.25409621-3.3604243 3.86547373-3.2444546 7.16581053.1618182 2.7050379.9021364 5.3370524 2.1670152 7.6960233l.1564242.304793.445.86993c2.0753182-.955653 4.2167122-1.7938338 6.3419243-2.6097901.1456363-.0587361.3074545-.0587361.4530909 0l-.8225758-1.393793-.1901363-.3397172-.138894-.2444694-.0660757-.1127099c-.6337879-1.1858353-1.0653031-2.479618-1.2783637-3.8226122.9628182.9032667 1.7638182 1.982742 2.363894 3.1876268.7389697 1.3509315 1.1893636 2.8590219 1.3188181 4.4131487.0148334.1968455.0148334.3952784 0 .5921239l-.1065303.0603236-.2723939.5921239c-.5609697 1.1699607-.536697 2.5558163.0647273 3.7003776.6378333 1.2493338 1.8271969 2.0779898 3.1648939 2.2033994h.5016364l.4787121-.2524067c2.183197-1.2620335 3.3685152-3.8749986 3.2943485-7.1658105-.1618182-2.7304373-.9142727-5.3830889-2.1993788-7.7579344" fill="#211256"/><path d="M73.4970091 9.3260309c-.5717576-.07937317-1.1516061.04921137-1.6478485.36511662-.2454242.18414577-.4355606.37464138-.6499697.53973758.8724697.2365321 3.2282727 1.2540962 5.1903182 6.2609563.1092273-.7746822.4058939-1.503328.8643788-2.1160889.5515303-.5143382-1.9863182-3.6384665-3.7568788-5.0497216" fill="#F8BBFF"/><path d="M88.85315 37.9872092c-3.2943485 1.6112755-6.5415 3.4209839-9.926197 4.8592259v-.2619315c-.0107878-.6032361-.0633788-1.2064723-.1577727-1.8017711-.9304545-.260344-1.8865303-.4444898-2.8088939-.7222959-1.7017879 2.263723-3.5289849 4.421086-5.4694546 6.4593892-.1240606-1.4969781-.1240606-3.003481 0-4.5004592-.9965303-.2746312-1.9741818-.6238732-2.9248636-1.044551-2.0348637 3.2384257-3.4184091 6.8959417-5.4613637 10.1343673.7335758.5746619 1.4658031 1.1477362 2.1737576 1.7398601 1.2824091-2.0875146 2.4394091-4.2559898 3.4696515-6.4943134.049894 1.1318615.0984394 2.2541982.0903485 3.3701851-.0080909.0396866-.0080909.0809607 0 .1206473l2.4717727.7318207c2.0861061-1.9668674 4.0400607-4.0845438 5.8483788-6.338742v.3143178l1.6478485 1.73986c4.1182727-1.5398396 7.9493182-3.7702259 11.9030758-5.684707-.2225-.8096064-.5353485-1.7319227-.8562879-2.6209023M95.0476848 52.1362719c-2.9329545 1.4715787-5.8160151 3.0384052-8.8231363 4.352825v-.2619314c-.0107879-.6032362-.0620303-1.2064724-.1564243-1.8017712-.931803-.2619315-1.8865303-.4444898-2.8088939-.7238834-1.7004394 2.266898-3.5262879 4.424261-5.4694545 6.4625642-.1240606-1.4985656-.1240606-3.0050685 0-4.5020467-.9978788-.2730437-1.9755303-.6238732-2.9248637-1.0461385-2.0348636 3.2400132-3.4184091 6.8959417-5.4627121 10.1343674.7335758.5762493 1.4671515 1.1509111 2.1764545 1.743035 1.2783637-2.0891021 2.4367122-4.2591647 3.4669546-6.4959009.0498939 1.1318615.0997879 2.263723.0836061 3.3685977-.005394.041274-.005394.0825481 0 .1222347l2.4717727.7318207c2.0847576-1.9652799 4.0414091-4.0845438 5.8470303-6.338742 0 .2619315-.0404546.609586 0 .3222551l1.6478485 1.7414475c3.7649697-1.4112551 7.2993485-3.3955845 10.9078939-5.2227551-.2481212-.8365933-.6270454-1.7160481-.9560758-2.5859781M67.1548152 96.0861529l-1.9364243-1.9335306 3.9213939-11.4408499 1.9350758.3317799z" fill="#211256"/><path d="m104.587136 71.0199446 28.831955-47.2238659s9.226333-1.4112551 14.679606 9.6644782l-30.175045 46.8936734-15.955273 11.4741866 2.618757-20.8084723Z" fill="#FFD15F"/><path d="M116.877632 74.2074127c-1.343091-1.9351181-3.164894-3.441621-5.263137-4.3544126-2.226348-.6889591-4.55653-.9127915-6.862439-.6603848l-.164515 1.8620948-5.6096971 27.1916632L119.39795 80.3889958l.040455-.0619111c-.640531-1.6287376-1.572334-4.7449286-2.560773-6.119672" fill="#E1FEFF"/><path d="M136.771694 44.42993c.753803 1.1286866 1.383545 2.3446837 1.878439 3.6225919l10.922728-16.9604607c-3.121743-12.9806895-14.653985-9.6819402-14.653985-9.6819402l-9.458273 15.5238061c4.342121 1.3668061 8.634349 3.5257566 11.311091 7.4960029" fill="#EA267F"/><path d="M138.213629 18.0321554c-2.667303-.0015856-5.252349.973117-7.315531 2.7590136l-.378924.3587667-.271045.4524271-28.833303 47.2318032-.461182.7492828-.10653.8699301-2.5958337 20.8100597-1.1030606 8.8453474 6.9770603-5.0338474 15.890546-11.4741866.585242-.4175029.403197-.6270481 30.175046-46.8492245.445-.6889592.140242-.8096064c1.062606-5.859328-2.586394-11.3170277-6.433621-13.8426822-2.110379-1.4858659-4.582152-2.2954723-7.117303-2.3335733m0 4.0131098c1.812363.0396865 3.574833.6254606 5.083788 1.6906486 2.907333 1.9398805 5.41956 5.9450511 4.73453 9.7248018l-30.175045 46.8936735-17.538394 15.2967988 4.309757-24.6310845 28.831955-47.2238659c1.363318-1.1397989 3.055666-1.7557347 4.793863-1.7414476" fill="#211256"/><path d="M119.686526 81.0765262h-1.235212c0-4.3401253-2.299167-8.1817871-4.570016-9.7343265-4.7615-3.2193761-10.1015-1.1445612-10.15409-1.1223367l-.439606-1.219172c.241378-.1000102 5.961651-2.3399213 11.261196 1.2429839 2.555379 1.7446225 5.137728 6.0260117 5.137728 10.8328513" fill="#211256"/><path d="M141.195129 33.9037767c-2.568864-3.4813076-7.115955-4.944949-11.195121-4.3528251l-4.539 7.427742c4.342121 1.3668061 8.618166 3.5241691 11.31109 7.4944154.752455 1.1286866 1.383546 2.3446837 1.877091 3.6225919l6.426879-9.2374505c-.272394-2.3859577-2.471773-3.0558673-3.880939-4.9544737" fill="#00BEEA"/><path d="M135.981617 25.189713c-.2225.1809708-.090349.0428615-.182046.4000408-.126757.4286152-.337121.8270685-.617606 1.1651982-.868424.98264-1.805621 1.8986065-2.800803 2.7351997-.825273.9905773-1.4685 2.136726-1.894621 3.3781225-.726833 1.9319431-2.276243 3.3844723-4.176258 3.9178601l-.412636.6445102 6.697924 4.482997 6.441712-9.9502215s1.738197-4.0940685 5.766122-2.5605787c0 0-2.776531-5.6593076-7.41397-4.944949-.50703.1523965-.984394.4000408-1.407818.7318207" fill="#E1FEFF"/><path d="M138.354545 49.593949c-2.044303-5.0608338-5.252348-8.3579956-9.536484-9.7962376-3.189167-1.0715379-5.760728-.6699097-5.786349-.6651473l-.314197-2.1510131c.117318-.0190495 12.0595-1.7985962 17.530303 11.7583426l-1.893273.8540554ZM142.206492 43.8098668c-4.984-9.8263995-12.29009-10.4010613-15.042348-10.6153688-.805046-.065086-1.105758-.088898-1.316121-.3651167l-.125409-.4746516 1.059909.1555715c.039106-.2936808-.16047-.4905263-.269697-.5254505.089.0285744.430166.0555613.730879.0793732 2.632242.2063703 10.644939.8365933 15.906727 11.2106676l-.94394.5349753ZM145.253664 40.1358411c-4.975909-9.8136997-12.280652-10.3947114-15.031561-10.6137813-.810439-.065086-1.115197-.0873105-1.326909-.3651167l-.126758-.4746516 1.061258.1523965c.037758-.2920932-.159121-.4857638-.267-.520688.089.0285743.435561.0555612.73897.0809606 2.632242.2079578 10.642242.8461181 15.897288 11.2059053l-.945288.5349752Z" fill="#211256"/><path fill="#211256" d="m114.76132 70.18605-1.022152-.7334082 17.983394-27.9933323 1.020803.7349956zM100.229642 83.556938s7.06741.5492624 8.121925 5.9371137l-9.6794246 7.3848805 1.5574996-13.3219942Z"/><path d="M155.718985 75.8785356c2.042954-.2889184 4.119621-.5397376 6.128863-.8715175 2.009243-.3301924 4.068379-.6857843 6.095152-1.0715379l5.264485-1.0080394-4.653621-3.0558673c-2.513576-1.636675-5.051425-3.2146137-7.612197-4.7623907l.403197-.1396968c1.647848-.5921239 3.237712-1.1318615 4.835666-1.7858965 3.21344-1.2271093 6.383728-2.6113775 9.490637-4.1274052-3.444031.2889183-6.813894.784207-10.148697 1.393793-1.647849.2698688-3.295697.6524475-4.985349.9842274-1.688303.3301924-3.294348.7143586-4.942197 1.1064621l-4.596985 1.0953498 4.019834 2.7447245c2.265454 1.547777 4.564621 3.0384053 6.878621 4.5004592-.279136.0698484-.559621.130172-.822576.2079577-1.986318.5064009-3.955106 1.1064621-5.931985 1.6636618-1.976878.5571997-3.937575 1.2017099-5.898272 1.8890817-1.960697.6873717-3.911955 1.393793-5.857819 2.219274 2.078016 0 4.119622-.1476341 6.19494-.3301924 2.076666-.1825583 4.087257-.4095656 6.138303-.6524475M167.869777 85.4637993c-3.059712-1.1858353-6.177409-2.1875248-9.342303-3.0034811l-3.574833-.86993 1.252742 3.7765758c.453091 1.3779184.930455 2.7447245 1.415909 4.1020058-2.256015-.8175437-4.530909-1.5922259-6.828727-2.2986472-1.894621-.5794242-3.816212-1.1112245-5.766121-1.5938134-1.941818-.4937012-3.909258-.8746924-5.89153-1.1382114 1.747636 1.0524884 3.485833 2.0446531 5.248303 3.0018936 1.763818.958828 3.526288 1.8906691 5.306288 2.7780612 3.557303 1.7985962 7.152363 3.4876575 10.782484 5.0671837l4.440561 1.9319431-1.647848-4.8052521c-.585243-1.6715992-1.178576-3.335261-1.796182-4.989398 1.912151.3476545 3.833742.6857843 5.766121 1.0096268 1.647848.21907 3.195909.4968761 4.820833.654035 1.622228.1571589 3.244455.3397172 4.890955.4079781-1.457712-.8096064-2.947788-1.5414271-4.447303-2.1938746-1.499515-.6524475-3.073197-1.2175845-4.629349-1.8366953M4.76109545 70.5238622l5.28066665 1.4874534c1.9863182.5667245 3.9874697 1.0985248 5.9886212 1.5938134 2.0025.4968761 4.0211819.958828 6.0466061 1.3763309 2.0267727.4175029 4.0616364.784207 6.0951515 1.1318615 2.0362121.3476545 4.1196212.6000613 6.1706667.7476954-1.869-1.0255015-3.7636212-1.897019-5.6676818-2.7494869-1.9027122-.8540554-3.8135152-1.6461997-5.7661213-2.3684956-1.9512575-.7238834-3.8472272-1.4715788-5.7661212-2.1240263-.264303-.0968353-.5272575-.1762084-.8239242-.2619315 2.3814242-1.2985452 4.7372273-2.612965 7.0606667-4.0226326l4.1182727-2.4716808-4.3744849-1.0985248c-1.2271212-.3127303-2.4717727-.6254606-3.6813636-.9842274l-3.7069848-1.0350262c-1.2365607-.3667041-2.4717728-.6619723-3.7501364-1.0191516-1.2756667-.3555918-2.5284091-.6349854-3.82160607-.86993 1.07878788.784207 2.19937877 1.4969781 3.29569697 2.2113367 1.0949697.7127711 2.2573636 1.3747434 3.4184091 1.9843294 1.0302424.5492624 2.0672273 1.1143995 3.1217424 1.6112756-2.7927121 1.3398192-5.5692424 2.7256749-8.30396968 4.1956661l-4.93410607 2.6653513ZM26.1801591 86.6218539c-2.3477121.5143382-4.6630606 1.1048747-6.9784091 1.7414476.5852424-1.3144199 1.1623939-2.6113776 1.7139242-3.9702464l1.5399697-3.6749781-3.6328181.5667245c-3.2242273.5445-6.4174394 1.284258-9.56345459 2.2113367-1.5575.4968761-3.12174242.9413659-4.6630606 1.5144402-1.5399697.5762493-3.0799394 1.1509111-4.59563637 1.8462201 1.64784849.0619111 3.29434849.0523863 4.94219697 0 1.64784849-.0523863 3.23636364-.1825583 4.85184849-.2778061 1.9445151-.1571589 3.8809394-.349242 5.7661212-.5492624-.7322273 1.6033382-1.4401818 3.2130263-2.1494848 4.8322391l-2.0105909 4.6576181 4.5646212-1.5763513c3.7231666-1.287433 7.4139697-2.6796385 11.1115151-4.1861414 1.8339394-.7492828 3.6638333-1.5319024 5.4869849-2.3510336 1.8204545-.8175437 3.6328181-1.6636618 5.4451818-2.6113775-1.9957576.1079475-3.9834243.3333673-5.9562576.6699096-1.9701364.3190802-3.9294848.7048338-5.8726515 1.1572609" fill="#5635DC"/></g></svg>