<svg width="88" height="76" xmlns="http://www.w3.org/2000/svg" xmlns:xlink="http://www.w3.org/1999/xlink"><defs><path id="a" d="M.6073.7426h71.312V76H.6073z"/><path id="c" d="M0 .16945253h9.87758709v4.69835692H0z"/></defs><g fill="none" fill-rule="evenodd"><g transform="translate(7 -.7423)"><mask id="b" fill="#fff"><use xlink:href="#a"/></mask><path d="M58.5903 42.5766c2.681-4.313 4.096-9.287 4.096-14.417 0-2.437-.317-4.839-.942-7.153.817-.263 1.539-.731 2.12-1.377.697-.778 1.482-2.147 1.262-4.262l-.026-.201c-.37-2.421-2.416-4.191-4.847-4.207-.139-.005-.761-.076-1.264-.35-.372-.201-.777-.512-.892-1.642-.225-2.559-2.348-4.488-4.938-4.488-.977 0-1.932.288-2.739.821-4.482-2.984-9.709-4.558-15.152-4.558-15.118 0-27.418 12.299-27.418 27.417 0 3.408.621 6.734 1.847 9.896-.079.082-.155.166-.228.253-1.056 1.257-1.512 2.584-1.356 3.946.221 1.925 1.165 3.274 2.751 3.95l-10.257 16.68 17.433 1.377 9.03 11.739 8.855-13.392 9.522 13.392 9.031-11.739 17.441-1.378-13.329-20.307Z" fill="#FFF" mask="url(#b)"/></g><path fill="#EA267F" d="m57.1982 36.3704 14.418 22.068-12.363.977-6.507 8.459-14.298-20.762z"/><path fill="#EA267F" d="m28.6523 36.3704-13.75 22.068 12.363.977 6.507 8.459 13.63-20.762z"/><path d="M34.9277 55.4085c1.788.422 3.572.629 5.35.65l1.702-2.627 1.59 2.455c1.811-.207 3.613-.592 5.4-1.132 4.627-1.398 10.303-3.902 14.286-7.645l-7.004-11.33-14.272 8.178-14.273-8.178-7.524 12.173c4.425 3.328 9.322 6.178 14.745 7.456" fill="#9E1D6A"/><path d="m44.6552 54.1692 8.134 11.457 5.767-7.496 10.71-.846-12.497-19.129-6.933 3.972c-.552 1.722-1.123 3.298-1.742 4.807-.567 1.381-1.215 2.722-1.841 4.02-.237.489-.473.98-.706 1.473-.255.539-.549 1.141-.892 1.742Zm8.048 15.952-11.264-15.868.502-.763c.464-.705.846-1.476 1.19-2.205.236-.5.476-.997.716-1.493.637-1.319 1.239-2.565 1.775-3.873.649-1.581 1.245-3.247 1.824-5.092l.156-.499 10.025-5.744 16.339 25.01-14.016 1.106-7.247 9.421Z" fill="#211256"/><path d="m17.1987 57.2805 10.763.85 5.724 7.44 11.82-18.005-16.4-9.396-11.907 19.111Zm16.659 12.896-7.289-9.476-13.962-1.103 15.592-25.026 21.099 12.088-15.44 23.517Z" fill="#211256"/><path d="M65.4208 27.4173c0 12.787-10.366 23.152-23.152 23.152-12.787 0-23.153-10.365-23.153-23.152 0-12.786 10.366-23.151 23.153-23.151 12.786 0 23.152 10.365 23.152 23.151" fill="#F9D15F"/><path d="M58.2548 29.51c-1.047 8-7.911 14.032-15.966 14.032-.7 0-1.411-.047-2.113-.137-8.815-1.155-15.047-9.265-13.894-18.08 1.047-7.999 7.911-14.032 15.966-14.032.701 0 1.412.046 2.112.138 8.815 1.154 15.048 9.264 13.895 18.079M44.6238 9.422c-.676-.089-1.36-.14-2.038-.152l-.675-.003v.003c-8.923.166-16.474 6.899-17.638 15.793-1.299 9.923 5.718 19.051 15.641 20.35.786.104 1.585.156 2.375.156 9.07 0 16.797-6.791 17.975-15.796 1.299-9.923-5.717-19.053-15.64-20.351" fill="#FFF"/><path d="M42.2685 5.6018c-12.029 0-21.816 9.786-21.816 21.815 0 12.031 9.787 21.817 21.816 21.817 12.029 0 21.816-9.786 21.816-21.817 0-12.029-9.787-21.815-21.816-21.815m0 46.304c-13.503 0-24.488-10.986-24.488-24.489 0-13.502 10.985-24.488 24.488-24.488s24.488 10.986 24.488 24.488c0 13.503-10.985 24.489-24.488 24.489" fill="#211256"/><path d="M56.9091 29.3333c-.959 7.327-7.245 12.852-14.622 12.852-.641 0-1.293-.043-1.935-.127-8.072-1.057-13.78-8.484-12.724-16.556.959-7.326 7.244-12.852 14.621-12.852.642 0 1.293.043 1.935.127 8.073 1.056 13.781 8.484 12.725 16.556m-12.484-18.396c-.619-.082-1.245-.128-1.867-.14l-.617-.002v.002c-8.172.152-15.088 6.319-16.154 14.464-1.189 9.087 5.237 17.448 14.325 18.637.72.094 1.452.142 2.175.142 8.306 0 15.383-6.219 16.462-14.466 1.189-9.088-5.236-17.448-14.324-18.637" fill="#CC8237"/><path d="M59.7031 23.7249c-.889 0-1.608-.645-1.688-1.505-.515-4.053-2.986-4.53-4.791-4.88-.977-.188-2.188-.423-2.247-1.598-.087-.681.041-1.23.379-1.633.525-.625 1.322-.649 1.903-.666.249-.008.506-.015.666-.063l.053-.015.054-.01c3.342-.6 4.393-4.214 4.447-4.855.1-.88.806-1.499 1.68-1.499.899 0 1.625.661 1.689 1.536.468 4.793 4.857 4.942 5.356 4.943.841.002 1.543.606 1.67 1.436l.006.048c.077.741-.072 1.328-.445 1.742-.219.246-.618.538-1.268.54l-.128-.001c-4.09 0-5.493 3.721-5.662 5.024-.094.837-.799 1.456-1.674 1.456" fill="#FFF"/><path d="M60.1591 5.9993c-1.392 0-2.516.991-2.673 2.357l-.003.03-.003.029c-.003.023-.694 3.428-3.625 3.953l-.109.02-.095.028c-.077.015-.284.02-.422.025-.683.021-1.826.055-2.64 1.023-.522.621-.726 1.421-.609 2.379.073.945.68 1.729 1.655 2.121.431.173.901.264 1.399.359 1.83.355 3.558.69 3.985 4.008.136 1.37 1.277 2.396 2.683 2.396 1.384 0 2.502-.979 2.669-2.332.02-.124.756-4.149 4.668-4.149l.093.001.019.001.019-.001c.795-.003 1.509-.312 2.011-.871.392-.437.83-1.227.696-2.516l-.005-.048-.007-.046c-.203-1.324-1.32-2.286-2.658-2.288-.009 0-1.116-.017-2.202-.573-1.286-.659-1.992-1.795-2.16-3.473-.119-1.39-1.268-2.433-2.686-2.433m0 2.004c.33 0 .661.205.69.607.565 5.791 6.117 5.87 6.353 5.871.341.001.63.25.682.587.056.541-.029 1.173-.721 1.175-.042 0-.083-.001-.124-.001-4.619 0-6.42 4.077-6.655 5.899-.044.39-.362.582-.682.582-.33 0-.661-.205-.69-.609-.87-6.939-7.024-5.094-7.035-6.457-.236-1.637 1.239-1.022 2.232-1.316 3.957-.71 5.191-4.847 5.268-5.756.045-.391.363-.582.682-.582" fill="#211256"/><path d="M26.1249 48.0305c-.83 0-1.503-.604-1.579-1.408-.421-3.301-2.357-3.676-3.913-3.977-.784-.152-1.96-.38-2.021-1.488-.077-.616.042-1.118.356-1.492.488-.58 1.2-.602 1.72-.617.19-.006.406-.013.521-.046l.053-.017.055-.01c2.72-.487 3.575-3.429 3.62-3.95.094-.829.754-1.408 1.573-1.408.841 0 1.52.619 1.581 1.44.381 3.902 3.952 4.021 4.358 4.022.787.001 1.445.567 1.563 1.345l.007.047c.069.671-.07 1.205-.415 1.59-.292.325-.713.505-1.186.507l-.108-.001c-3.335 0-4.479 3.035-4.617 4.1-.089.783-.749 1.363-1.568 1.363" fill="#FFF"/><path d="M26.5097 32.6155c-1.336 0-2.415.953-2.566 2.266l-.003.029-.001.012c-.023.118-.583 2.67-2.8 3.067l-.109.02-.075.022c-.063.008-.203.012-.298.015-.587.017-1.681.05-2.457.974-.344.41-.718 1.127-.586 2.237.071.917.656 1.675 1.592 2.051.391.158.802.237 1.236.321 1.489.288 2.775.537 3.107 3.104.133 1.316 1.228 2.299 2.575 2.299 1.328 0 2.401-.939 2.562-2.239.017-.104.591-3.224 3.623-3.224l.073.001h.039c.76-.003 1.444-.301 1.928-.84.372-.415.79-1.161.665-2.363l-.005-.047-.007-.048c-.194-1.269-1.267-2.192-2.551-2.195-.004 0-.881-.017-1.73-.457-.984-.511-1.504-1.359-1.634-2.67-.116-1.334-1.218-2.335-2.578-2.335m0 2.004c.278 0 .557.173.582.512.476 4.882 5.157 4.949 5.355 4.95.288 0 .532.21.575.494.048.457-.024.989-.608.991-.035-.001-.069-.001-.104-.001-3.894 0-5.412 3.437-5.611 4.973-.037.329-.305.49-.574.49-.278 0-.557-.173-.582-.513-.733-5.85-5.922-4.295-5.93-5.444-.2-1.38 1.043-.861 1.881-1.109 3.335-.598 4.376-4.086 4.441-4.853.038-.329.306-.49.575-.49" fill="#211256"/><path d="m46.2319 18.1409-.005-.017c-.178-.532-.465-.944-.854-1.226-.285-.204-.641-.368-1.089-.5-.426-.125-.958-.187-1.627-.187-.87 0-1.664.339-2.35.996l-4.42 3.974c-.939.835-1.396 1.67-1.396 2.552 0 .823.384 1.648 1.172 2.524 1.065 1.185 2.211 1.59 3.434 1.241v7.051c0 .481.016.848.049 1.12.047.396.178.783.419 1.232.525.911 1.566 1.353 3.184 1.353.617 0 2.496 0 3.232-1.418.218-.41.348-.787.396-1.153.034-.262.05-.615.05-1.081v-14.659c0-.778-.062-1.35-.195-1.802" fill="#FFF"/><path d="M41.1694 18.2317c.456-.456.952-.685 1.487-.685.535 0 .952.044 1.25.132.299.088.527.189.685.303.158.114.28.303.368.565.088.299.132.764.132 1.396v14.659c0 .404-.013.707-.04.908-.026.202-.11.435-.25.698-.246.473-.93.711-2.053.711-1.088 0-1.763-.228-2.026-.685-.141-.263-.224-.504-.25-.724-.027-.218-.04-.539-.04-.961v-9.395l-.342.315c-.719.545-1.334.817-1.842.817-.509 0-1.04-.307-1.593-.921-.552-.614-.828-1.158-.828-1.632s.315-.991.947-1.553l4.316-3.895.079-.053Z" fill="#CC8237"/><path d="M11.9496 14.3596c-.136.638-.648.991-1.142.789l-6.843-2.806c-.533-.218-.817-.987-.608-1.645l.5-1.576c.203-.64.786-.902 1.269-.568l6.342 4.382c.398.275.6.872.482 1.424" fill="#5635DC"/><g transform="translate(0 22.2577)"><mask id="d" fill="#fff"><use xlink:href="#c"/></mask><path d="M9.8456 2.6654c.139.629-.188 1.154-.729 1.171l-7.871 1.031c-.584.018-1.166-.56-1.246-1.237l.19-2.424c-.078-.658.353-1.128.937-1.022l7.97 1.375c.482.086.757.463.749 1.106" fill="#5635DC" mask="url(#d)"/></g><path d="M11.207 35.1858c-.136-.638-.648-.991-1.142-.789l-6.843 2.806c-.533.218-.818.987-.609 1.645l.501 1.576c.203.64.786.902 1.268.569l6.343-4.382c.398-.276.6-.873.482-1.425M75.7123 14.3596c.137.638.648.991 1.143.789l6.842-2.806c.534-.218.818-.987.609-1.645l-.501-1.576c-.203-.64-.786-.902-1.268-.568l-6.343 4.382c-.398.275-.6.872-.482 1.424M77.8168 24.9231c-.139.629.187 1.154.729 1.171l7.871 1.031c.584.018 1.165-.56 1.245-1.237l-.189-2.424c.078-.658-.353-1.128-.937-1.022l-7.97 1.375c-.482.086-.757.463-.749 1.106M76.4555 35.1858c.136-.638.648-.991 1.142-.789l6.843 2.806c.533.218.817.987.608 1.645l-.5 1.576c-.203.64-.786.902-1.269.569l-6.342-4.382c-.398-.276-.6-.873-.482-1.425" fill="#5635DC"/></g></svg>