<svg width="109" height="64" xmlns="http://www.w3.org/2000/svg" xmlns:xlink="http://www.w3.org/1999/xlink"><defs><path id="a" d="M0 .1h85.6v67.3H0z"/><path id="c" d="M.5.4h10.7v10H.5z"/><path id="e" d="M.7.7h12.4V11H.7z"/></defs><g fill="none" fill-rule="evenodd"><g transform="rotate(-7 43 24.5)"><mask id="b" fill="#fff"><use xlink:href="#a"/></mask><path d="M37.7 0 32 23.9 15.8 13l-.5-.3-1-.3c-2.3-.7-4.8-.6-7 .4-2.1 1-3.8 2.4-5 4.2-2.3 3.2-3.5 8.7-.6 13l.6.9 24 15-2.3 9.6 47.8 11.9 13.7-55 .1-.4L37.7 0Z" fill="#FFF" mask="url(#b)"/></g><path fill="#FFD15F" d="m32.2 54 41.2 5 6-48.7-41.2-5z"/><path d="m39.2 6.5-5.7 46.7 39 4.7 5.7-46.7-39-4.7ZM31 55l6.3-51 43.3 5.2-6.2 51L31 55.2Z" fill="#211256"/><path fill="#E0AC38" d="m52 45.2-6.3-12.8-8.6-7.7L34.9 39z"/><path d="M61.3 29.8c2-1.2 3.4-2.3 4-3.3.7-.8 1-1.8 1.2-2.8.2-2.5-.7-4.5-2.8-6.2-1.5-1.3-3.7-2-6.4-2.4-3.5-.3-6.2.2-8 1.7a9.7 9.7 0 0 0-3.3 5.4l6.2 1.4c.4-1.3.9-2.2 1.6-2.8.8-.7 1.8-1 3-.9 1 .1 1.8.5 2.3 1 .5.7.7 1.4.6 2.4 0 1-.8 1.8-2.1 2.7a39.7 39.7 0 0 0-4.2 3 6.3 6.3 0 0 0-2 4.5l-.4 3.7 6.2.7.5-3.8a5 5 0 0 1 .7-1.8c.4-.7 1.4-1.5 3-2.5M57.3 43.5a3.6 3.6 0 1 1-7.2-.8 3.6 3.6 0 0 1 7.2.8" fill="#D457EA"/><path d="M59.9 21.3c.6.8.9 1.7.7 2.8 0 1.2-.9 2.3-2.5 3.4a36.5 36.5 0 0 0-4 3c-.5.4-.9 1-1.2 1.6-.3.5-.4 1.3-.6 2.3l-.3 2.9 4.6.4.3-3c.2-.8.5-1.5.9-2 .5-.9 1.5-1.7 3.2-2.8 2.4-1.5 3.3-2.5 3.8-3 .5-.8.8-1.6 1-2.5a6 6 0 0 0-2.5-5.5 10.9 10.9 0 0 0-6-2.2c-3.3-.3-5.8.2-7.4 1.5a8.6 8.6 0 0 0-2.8 4.2l4.6 1c.4-1 1-2 1.6-2.5 1-.8 2.2-1.2 3.6-1a4.3 4.3 0 0 1 3 1.4Zm-9.7 17.5.5-4.6c.1-1.2.4-2.1.7-2.9a7 7 0 0 1 1.6-2c.6-.7 2-1.7 4.2-3.2 1.1-.7 1.7-1.5 1.8-2.2 0-.7 0-1.2-.5-1.6-.3-.4-1-.7-1.8-.8a3 3 0 0 0-2.3.7c-.6.5-1 1.3-1.3 2.4l-.2.8-7.9-1.8.2-.8c.6-2.5 1.9-4.5 3.7-5.9 2-1.6 4.9-2.2 8.6-1.8 2.9.3 5.2 1.1 6.9 2.5a7.7 7.7 0 0 1 3 7 6.5 6.5 0 0 1-1.3 3.2c-.7 1-2.1 2.2-4.2 3.5-1.4 1-2.4 1.7-2.8 2.3-.2.4-.4.8-.5 1.4l-.6 4.5-7.8-.7Z" fill="#211256"/><path d="M56 42.1a2.8 2.8 0 0 0-4-.4c-.6.5-1 1.2-1 2 0 .6.1 1.4.6 2 .5.5 1.2.9 2 1A2.8 2.8 0 0 0 56 42m-5.7 4.5a4.4 4.4 0 0 1 .7-6.2 4.4 4.4 0 0 1 6.2.7c.8.9 1.1 2 1 3.2a4.4 4.4 0 0 1-7.8 2.4h-.1" fill="#211256"/><path d="M39.8 35.1 12.1 21.2s-5.8 2.3-5.4 10.3l28.4 13.2 12.8 1L40 35Z" fill="#88FFD7"/><path d="M33.7 41c.2-1.5.7-3 1.7-4.2 1-1 2.3-2 3.7-2.6l1.2.7 11.4 13.3-17.5-3c-.2-1.1-.6-3.1-.5-4.2" fill="#E1FEFF"/><path d="M16.8 33.7v2.6L5.1 30.7c-2.3-8.2 5.4-10.3 5.4-10.3L21 25.8c-2 2.2-3.9 4.8-4.1 7.9" fill="#EA267F"/><path d="M4.1 23.3c-1.4 2.7-1.8 7 .7 9.8l.4.4.4.2L34 47l.4.2h.5l12.8 1 5.7.4-3.5-4.5-8.1-10.6-.3-.4-.5-.3L13.3 19l-.3-.2h-.4c-1.7-.4-3.5 0-5 .9A8.8 8.8 0 0 0 4 23.3M8.8 22c1-.6 2.2-.8 3.3-.7l28.4 14.2 7.8 10.2-13.2-1L6.7 31.5c-1.6-1.8-1.4-4.9-.3-6.9.5-1 1.4-2 2.4-2.6" fill="#211256"/><path d="M10.8 29.4a8.2 8.2 0 0 1 5.2-6.2l5 2.6c-2.1 2.2-4 4.8-4.2 7.9v2.6l-6.6-2.9c-.6-1.4.4-2.5.6-4" fill="#00BEEA"/><path d="M10 23a3 3 0 0 1 1-.2c2.7 1.8 5.7 3.3 8.7 4.9l.3.1-1.6 3-7-3.2s-2.2-1.7-4 .5c0 0-.3-4 2.7-5.2" fill="#E1FEFF"/><path d="M17.5 37c-.4-3.4.4-6.3 2.4-8.5A9.4 9.4 0 0 1 23 26l-.5-1.2s-7.5 3-6.4 12.3l1.4-.2ZM13.4 35.1c-.2-7 3.8-9.8 5.4-10.8.4-.3.6-.4.6-.7v-.3l-.6.5c-.2-.2-.1-.3 0-.4l-.5.3c-1.4 1-5.9 4-5.6 11.5h.7Z" fill="#211256"/><path d="M10.5 34.2c-.3-7 3.8-9.9 5.3-11 .5-.2.6-.3.7-.6l-.1-.3-.6.5v-.4l-.4.3c-1.4 1-5.9 4-5.6 11.5h.7ZM17.4 30.8l.7-1.3 16 7.4c2.2-3 5.6-3.6 5.8-3.6h.3l.2 1.3H40s-3.7.7-5.3 4c-.8 1.5-1 4.2.4 6.5l.2.3-1.2.7-.2-.3a9 9 0 0 1-.6-7.7L17.7 31l-.3-.1ZM46.3 40.5s-3.9 2.7-2.8 6l8 .8-5.2-6.8Z" fill="#211256"/><path d="M17.8 51.9a.7.7 0 0 0-.2-1.4l-12-1.2a.7.7 0 0 0-.6.2c-.2.2-.2.4-.2.6l.6 5a.7.7 0 0 0 1 .5L17.6 52h.1" fill="#5635DC"/><g transform="rotate(-7 27.3 -97.6)"><mask id="d" fill="#fff"><use xlink:href="#c"/></mask><path d="M10.4 10.4c.2 0 .4-.2.6-.4a1 1 0 0 0 0-1.2l-6-8A1 1 0 0 0 3.3.6L.7 3.8A1 1 0 0 0 1 5.3l8.7 5h.7" fill="#5635DC" mask="url(#d)"/></g><g transform="rotate(-7 468 -674.3)"><mask id="f" fill="#fff"><use xlink:href="#e"/></mask><path d="M.8 1.9A.7.7 0 0 1 1.7.8l11 4.8a.7.7 0 0 1 .4.5v.6l-3 4a.7.7 0 0 1-1.1 0L.9 2l-.1-.1" fill="#5635DC" mask="url(#f)"/></g><path d="M91.7 20.5a1 1 0 0 1-.4-1.7l7.4-6.9a1 1 0 0 1 1.5.3l2.1 3.5a1 1 0 0 1-.5 1.5l-9.5 3.3a1 1 0 0 1-.6 0M95.7 37.8a.7.7 0 0 1 .2-1.4l11.8-2.2a.7.7 0 0 1 .9.8l-.2 4.9c0 .2 0 .4-.3.6h-.6L96 37.9h-.2" fill="#5635DC"/></g></svg>