<svg id="Camada_1" data-name="Camada 1" xmlns="http://www.w3.org/2000/svg" viewBox="0 0 350 300"><defs><style>.cls-1{fill:#fff}.cls-2{fill:#f9d15f}.cls-2,.cls-6,.cls-8{fill-rule:evenodd}.cls-3{fill:#211256}.cls-5{fill:#e1feff}.cls-6{fill:#88ffd7}.cls-8{fill:#d7f9f9}.cls-11{fill:#5635dc}</style></defs><path class="cls-1" d="M330.8 125.28c-.47-1-1-2-1.5-3a11.85 11.85 0 0 0 1.15-1.54l2.43-3.82a12.85 12.85 0 0 0-.62-14.62c-6.76-8.86-24-20.94-27.37-23.27a12.93 12.93 0 0 0-9.22-2.1l-3.12.49V69a12.28 12.28 0 0 0-.74-4.25c-2.95-8.9-13.35-12.52-35.89-12.52-16.09 0-26 1.89-31.1 5.93a12.78 12.78 0 0 0-5.47 10.49v9.13c-.34-.07-.69-.11-1-.15l-9-.87a12.66 12.66 0 0 0-9.15 2.62 212.45 212.45 0 0 0-20.08 17.76h-.43c-1.76-.12-4.41-1.35-7.48-2.77-7.65-3.54-18.02-8.37-34.21-6.48-21.86 2.51-33.51 22.5-37.88 32.05-.51-.45-1-.89-1.58-1.31-18.72-14.72-44.84 1.63-45.94 2.33a12.8 12.8 0 0 0 9.4 23.35 3.5 3.5 0 0 1 4.13 2c.39.89.81 1.78 1.26 2.64a12.73 12.73 0 0 0-6.1 13.5c2.47 12.64 8.07 22.58 16.23 28.82a12.84 12.84 0 0 0-4.3 12.2 42.39 42.39 0 0 0 12.22 21.6c7.76 7.39 17.38 10.88 27.11 9.8a41.72 41.72 0 0 0 7.52-1.82c8.43-2.54 11.3-2.5 12-2.42 8 7.27 18.87 17.09 34.13 17.09a35.18 35.18 0 0 0 17.1-4.58c8.92-4.91 15.33-2.64 15.55-2.56a11.81 11.81 0 0 0 1.12.43c1.09.35 27 8.59 59.45.12 1.3-.07 2.57-.16 3.82-.28l.08.3 10.07-1.88 3.44-.88.71-.24a80.69 80.69 0 0 0 15.7-6.42 79.56 79.56 0 0 0 7-4.26c34.18-22.72 47.3-66.66 30.56-102.19Z"/><path class="cls-2" d="M291.57 114.93c-28-26.3-64.22-19-79.76-15.09s-22.38 10.44-33.26 9.67-19-11.6-39.23-9.28-29.13 28.11-29.13 28.11c7.38-4.64 17.18-11.5 32.24-6.58 18.49 6 15.14 24.37 15.14 24.37-18.25-5-31.07-8.12-48.16 13.53-15.57 19.74-35.73 0-35.73 0 5.44 27.85 24.94 26.77 33 25.53 16.17-2.47 24.27-16.19 38.81-13.13 22.76 4.79 12 27.25 12 27.25-4.66-8.55-23-15.14-47.66 4.09-4.38 3.41-17.22 3.78-24.21-2.69 1.77 9.14 11.95 22.58 25.37 21.11 4.91-.53 21.32-8.48 29.22-1.28 9.87 9 22 19.18 36.78 11.06s26.8-3.09 26.8-3.09 31.63 10.36 68-5.54c43.86-19.22 47.74-81.74 19.78-108.04Z"/><path class="cls-3" d="M166.06 237c-11.35 0-20.7-8.51-27.46-14.67-5-4.57-15.06-1.55-21.71.46a36.7 36.7 0 0 1-5.64 1.43c-14.83 1.63-26-12.6-28-23a2.4 2.4 0 0 1 4-2.22c6.33 5.86 17.78 5.15 21.1 2.56 17.79-13.89 31.23-13.73 37.66-12.4a21.93 21.93 0 0 1 10.69 5.31c.94-3.41 1.7-8.48-.38-12.67-1.82-3.68-5.62-6.15-11.3-7.34-7.28-1.53-12.86 1.72-19.31 5.5-5.22 3.05-11.13 6.5-18.65 7.65-19 2.91-31.71-6.83-35.73-27.44a2.39 2.39 0 0 1 4-2.17c.09.09 9.06 8.71 18.94 8.05 4.94-.32 9.39-2.95 13.23-7.82 17.4-22.06 31.13-19.68 47.9-15.13.07-4.84-1.36-15-13.75-19-13.33-4.36-22.15 1.22-29.23 5.71l-1 .62a2.4 2.4 0 0 1-3.55-2.82c.39-1.11 9.68-27.24 31.13-29.71 13.26-1.52 21.75 2.42 28.59 5.58 4 1.84 7.42 3.44 11.08 3.7 5.83.41 10.54-1.55 16.5-4a104.93 104.93 0 0 1 16-5.56c34.28-8.54 61.86-3.26 82 15.66 14.61 13.75 21.43 37.82 17.37 61.34s-17.85 41.88-37.86 50.64c-36.76 16.09-68.35 6.06-69.68 5.63l-.17-.07c-.45-.18-11.24-4.44-24.72 3a24.82 24.82 0 0 1-12.05 3.18Zm-35-21.87c4 0 7.78.94 10.76 3.65 10.62 9.67 21.21 17.77 34 10.73 15-8.25 27.36-3.8 28.76-3.25 1.61.5 32 9.5 66.2-5.48 18.51-8.1 31.29-25.26 35.05-47.07 3.8-22-2.45-44.35-15.93-57-18.84-17.77-44.9-22.65-77.51-14.54a102.51 102.51 0 0 0-15.33 5.34c-6.29 2.62-11.72 4.89-18.68 4.39-4.53-.32-8.53-2.17-12.76-4.13-6.61-3.06-14.11-6.54-26-5.16-12.09 1.39-20 12.25-24 19.64 6.86-3.72 15.67-6.65 27.54-2.77 20.25 6.61 16.8 26.87 16.76 27.08a2.39 2.39 0 0 1-3 1.88c-17.62-4.85-29.26-8.05-45.64 12.71-4.73 6-10.35 9.23-16.72 9.64-6.59.42-12.64-2.33-16.81-5 4.59 13.48 14.17 19.2 28.56 17 6.62-1 11.88-4.08 17-7 6.7-3.92 13.63-8 22.72-6.06 7.2 1.52 12.12 4.86 14.62 9.94 4.49 9.1-.75 20.23-1 20.7a2.4 2.4 0 0 1-2.1 1.36 2.36 2.36 0 0 1-2.16-1.25c-1.74-3.18-5.61-5.67-10.35-6.65-5.62-1.16-17.47-1.22-33.74 11.48-4 3.12-13.3 4.2-21 1.08 3.65 6.87 11 14.11 20.48 13.07a38.81 38.81 0 0 0 4.78-1.26c4.38-1.35 10.11-3.08 15.51-3.08Z"/><path class="cls-2" d="M99.58 150.1s-13.58 9.67-21.89-9.25c-5.31-12.16-18.37-9.46-18.37-9.46s19.4-12.33 31.17-3.08 9.09 21.79 9.09 21.79Z"/><path class="cls-3" d="M91.58 155a14.23 14.23 0 0 1-3.78-.51c-5.12-1.43-9.26-5.68-12.31-12.65-4.44-10.18-15.24-8.16-15.7-8.07a2.4 2.4 0 0 1-1.79-4.4c.85-.55 21-13.13 34-3 12.79 10.07 10.07 23.61 9.94 24.19a2.35 2.35 0 0 1-1 1.45 17.65 17.65 0 0 1-9.36 2.99ZM68.5 129.6a17.78 17.78 0 0 1 11.39 10.29c2.43 5.56 5.51 8.9 9.15 9.94a11.7 11.7 0 0 0 8.33-1.2c.3-2.91.34-11.6-8.36-18.44-5.91-4.64-14.36-2.92-20.51-.59Z"/><path d="M254.06 228.07c-1.47 0-19.1-.12-20.56-.26a59.23 59.23 0 0 1-48.58-33.92c-15-31.92-.82-72 31.76-89.56a67.5 67.5 0 0 1 28.2-8.07c1.36-.07 18.87-.1 20.21-.09 22.69.18 0 132.16-11.03 131.9Z" style="fill:#bf2170;fill-rule:evenodd"/><path class="cls-3" d="M254.09 230.47H254l-4.75-.05c-9.63-.07-15-.13-16-.22a61.63 61.63 0 0 1-50.53-35.29c-15.55-33-.84-74.58 32.8-92.69a69.33 69.33 0 0 1 29.2-8.35c1.51-.08 19.41-.12 20.36-.1 2.2 0 5.33 1 7.75 5.27 11.94 21.34-3.33 110.39-13.6 127.44-.57.99-2.37 3.99-5.14 3.99Zm0-4.8Zm9.55-127.11c-4.53 0-17.58 0-18.64.1a64.63 64.63 0 0 0-27.2 7.78c-31.43 16.93-45.21 55.7-30.73 86.43a56.89 56.89 0 0 0 46.64 32.55c1 .09 10.46.16 15.56.2h4.59c6.78-4.34 24.45-87.1 16.77-118.85-.91-3.75-2.62-8.23-5.57-8.25Z"/><path class="cls-5" d="M246.85 97.09V78.78h17.55l.33 16.3-17.88 2.01z"/><path class="cls-3" d="M246.85 99.49a2.4 2.4 0 0 1-2.39-2.4V78.77a2.39 2.39 0 0 1 2.39-2.39h17.55a2.4 2.4 0 0 1 2.4 2.35l.33 16.3a2.4 2.4 0 0 1-2.13 2.43l-17.88 2Zm2.4-18.32v13.24l13-1.47-.23-11.77Z"/><path class="cls-6" d="M197.84 125.09s9.83-16.88 26.86-24.66L216.92 90l-9.1-.88s-17.77 13.81-23.2 21.88l2.65 3.67Z"/><path class="cls-3" d="M197.84 127.49a2.38 2.38 0 0 1-1.69-.69l-10.57-10.43a2.55 2.55 0 0 1-.26-.3l-2.65-3.67a2.41 2.41 0 0 1 0-2.74c5.58-8.29 23-21.86 23.72-22.43a2.31 2.31 0 0 1 1.7-.5l9.1.88a2.39 2.39 0 0 1 1.69 1L226.62 99a2.38 2.38 0 0 1 .41 2 2.41 2.41 0 0 1-1.33 1.59c-16.11 7.41-25.7 23.55-25.79 23.71a2.42 2.42 0 0 1-1.76 1.17 1.62 1.62 0 0 1-.31.02Zm-8.75-14.39 8.33 8.21c3.31-4.83 11.45-15.31 23.63-21.76l-5.42-7.26-7.09-.69c-3.17 2.52-15.66 12.6-21 19.41Z"/><path class="cls-6" d="M309.55 124.52s-10.8-16.28-28.26-23l7.16-10.87 9-1.41s18.55 12.74 24.44 20.48l-2.42 3.82Z"/><path class="cls-3" d="M309.55 126.92h-.17a2.4 2.4 0 0 1-1.82-1.06c-.11-.16-10.63-15.74-27.14-22.15a2.38 2.38 0 0 1-1.13-3.55l7.16-10.87a2.42 2.42 0 0 1 1.63-1l9-1.41a2.45 2.45 0 0 1 1.73.39c.77.53 18.93 13.06 25 21A2.39 2.39 0 0 1 324 111l-2.43 3.82a2.43 2.43 0 0 1-.24.32l-9.94 11a2.41 2.41 0 0 1-1.84.78Zm-24.67-26.54c12.54 5.72 21.28 15.71 24.87 20.34l7.83-8.69 1.39-2.18c-5.7-6.49-18.75-15.81-22.07-18.14l-7 1.1Z"/><path d="M288.18 222.22c-32.59 17.55-71.36 6.12-86.4-25.8s-.81-72 31.77-89.56 71.18-5.89 86.22 26 .99 71.82-31.59 89.36Z" style="fill:#ea267f;fill-rule:evenodd"/><ellipse class="cls-1" cx="262.42" cy="164.27" rx="49.65" ry="46.21" transform="rotate(-50.98 262.4081987 164.27324394)"/><path class="cls-3" d="M259.17 215a47.92 47.92 0 0 1-15-2.41 45.43 45.43 0 0 1-27.12-24c-11.53-24.48-.63-55.33 24.31-68.75 12.52-6.74 26.5-8.12 39.36-3.88a45.43 45.43 0 0 1 27.11 24c11.54 24.48.63 55.32-24.3 68.74a51.27 51.27 0 0 1-24.36 6.3Zm6.51-96.7a46.57 46.57 0 0 0-22.07 5.7c-22.73 12.24-32.7 40.27-22.24 62.48a40.69 40.69 0 0 0 24.28 21.53c11.59 3.82 24.23 2.56 35.58-3.55 22.77-12.2 32.71-40.22 22.24-62.46a40.66 40.66 0 0 0-24.28-21.53 43 43 0 0 0-13.51-2.15Z"/><path class="cls-8" d="M256.88 142.54c8.33-6.1 16.78-12 25.28-17.86-11.3-5.17-25.11-5-37.58 1.72a47 47 0 0 0-24.7 42.79c12.8-8.14 24.71-17.66 37-26.65ZM242.23 189.58q29.46-22.47 60-43.45c-.34-.9-.7-1.79-1.12-2.67a39.13 39.13 0 0 0-7.2-10.49c-11.08 7.56-22.09 15.24-32.85 23.27-12.49 9.33-24.8 18.94-38.07 27 .25.61.52 1.22.8 1.83a39 39 0 0 0 7.7 10.93c3.59-2.11 7.16-4.27 10.74-6.42ZM244.69 204.71a42.26 42.26 0 0 0 35.57-2.57 47.1 47.1 0 0 0 24.68-38.61c-19.54 14.59-39.31 28.81-60.25 41.18Z"/><path class="cls-3" d="M255.63 230.52a64.47 64.47 0 0 1-20.22-3.25 61.11 61.11 0 0 1-36.5-32.36c-15.55-33-.83-74.58 32.8-92.69 16.88-9.09 35.71-11 53-5.24a61.18 61.18 0 0 1 36.49 32.36c15.55 33 .83 74.58-32.8 92.69a69.15 69.15 0 0 1-32.77 8.49Zm8.89-132a64.48 64.48 0 0 0-30.52 7.92c-31.42 16.93-45.21 55.7-30.73 86.43a56.4 56.4 0 0 0 33.66 29.85c16.05 5.29 33.55 3.54 49.26-4.91 31.42-16.92 45.21-55.69 30.73-86.43a56.42 56.42 0 0 0-33.66-29.84 59.63 59.63 0 0 0-18.74-3.01Z"/><path d="M293.26 139.45a4 4 0 0 0-5.57-2.42l-20.52 18.18h-.07L242.51 140a4 4 0 0 0-5.29 3 5.1 5.1 0 0 0 3.24 5.86l23.62 14.73c2.16.85 3 1.83 4.78 1l21.79-19a5.09 5.09 0 0 0 2.61-6.14Z" style="fill:#211256;fill-rule:evenodd"/><path d="m234.48 167.84 33.25 11.63s-6.63 18.2-21.77 12.69-11.48-24.32-11.48-24.32Z" style="fill-rule:evenodd;fill:#fff"/><path class="cls-3" d="M251.48 195.6a18.46 18.46 0 0 1-6.34-1.18c-13.51-4.91-14.42-19.83-13-27a2.4 2.4 0 0 1 3.15-1.8l33.24 11.62a2.41 2.41 0 0 1 1.47 3.09c-2.17 5.87-8.47 15.27-18.52 15.27Zm-15-24.5c-.3 5 .37 15.21 10.26 18.81s15.54-4.81 17.7-9Z"/><path class="cls-3" d="M243.44 182a1.61 1.61 0 0 1-.6-.12l-7.44-3a1.6 1.6 0 1 1 1.2-3l7.44 3a1.6 1.6 0 0 1 .89 2.08 1.62 1.62 0 0 1-1.49 1.04Z"/><ellipse class="cls-3" cx="252.45" cy="159.53" rx="5.44" ry="6.41"/><ellipse class="cls-3" cx="280.32" cy="159.21" rx="5.44" ry="6.41"/><rect class="cls-11" x="67.9" y="90.93" width="31.25" height="10.42" rx="3.26"/><rect class="cls-11" x="11.95" y="158.61" width="31.25" height="10.42" rx="3.26"/><rect class="cls-11" x="27.51" y="194.08" width="31.25" height="10.42" rx="3.26"/><path class="cls-5" d="M279.6 68.64h-.09v-.09c0-2.15-10.65-3.89-23.78-3.89-12.6 0-22.88 1.6-23.7 3.63H232v9.53h.12a.74.74 0 0 0-.12.39c0 2.15 47.56 2.15 47.56 0h.07Z"/><path class="cls-3" d="M255.76 82.22c-6.28 0-12.13-.14-16.49-.4-6.37-.39-9.69-.72-9.69-3.61a1.48 1.48 0 0 1 0-.21 1.09 1.09 0 0 1 0-.18v-9.53a2.4 2.4 0 0 1 .72-1.72 2.87 2.87 0 0 1 .44-.34c2-1.7 7.91-4 25-4 11.33 0 24.73 1 26.07 5.52a2.27 2.27 0 0 1 .17.86v9.53a2.35 2.35 0 0 1-.08.6c-.13 2.13-2.04 3.48-26.14 3.48Zm23.77-4Zm-45.15-1.59c6.83 1.12 36.13 1.12 42.82 0v-7.21c-1.91-.92-9.27-2.36-21.44-2.36s-19.42 1.42-21.38 2.35ZM73.09 142.68c3.4 7.78 8.15 12.56 14.12 14.22a16.79 16.79 0 0 0 4.53.62 20.5 20.5 0 0 0 11-3.43 5.18 5.18 0 0 0 2.07-3.15c.14-.64 3.21-15.83-10.95-27-14.52-11.4-36.26 2.2-37.18 2.78a5.2 5.2 0 0 0 3.84 9.48c.37-.04 8.99-1.71 12.57 6.48Zm-11.65-12.21c5-2.71 19.57-9.48 29-2.09 10.87 8.55 9.25 19.71 9 21.23a15 15 0 0 1-7.64 2.31 11.3 11.3 0 0 1-3-.41c-4.27-1.19-7.8-4.91-10.49-11.07-3.84-8.6-11.64-10.35-16.87-9.97Z"/><path class="cls-3" d="M323.93 127.89a66 66 0 0 0-4-7.22l3.55-4a4.37 4.37 0 0 0 .52-.67l2.43-3.82a5.23 5.23 0 0 0-.25-5.94C320 98.13 302.56 86 300.59 84.66a5.27 5.27 0 0 0-3.75-.86l-9 1.42a5.17 5.17 0 0 0-3.54 2.27l-3.41 5.17A68.15 68.15 0 0 0 270 90.91l-.13-6.37c10.52-.42 14.53-1.52 15-5.57a5.35 5.35 0 0 0 .11-1v-9.58a4.89 4.89 0 0 0-.34-1.81c-1.11-3.46-5.51-7.37-28.7-7.37-14.18 0-22.91 1.48-26.68 4.51a5.25 5.25 0 0 0-2.3 4.32v9.53a1.28 1.28 0 0 0 0 .19 1.34 1.34 0 0 0 0 .2c0 5.66 6 6 12.32 6.4l2.56.13v6.06A113.73 113.73 0 0 0 225 91.72l-3.79-5.08a5.18 5.18 0 0 0-3.66-2.06l-9.08-.88a5.15 5.15 0 0 0-3.71 1.06c-.57.45-13.74 10.69-21.17 19.1a19.85 19.85 0 0 1-4.54.22c-3.14-.23-6.37-1.72-10.1-3.45-7.15-3.31-16-7.43-30.09-5.82-23.17 2.67-33 30.4-33.45 31.57a5.19 5.19 0 0 0 7.68 6.1l1-.62c6.94-4.39 14.79-9.36 26.87-5.41 8.05 2.63 10.75 8.15 11.54 12.66-16.17-4-30.32-4.07-47 17.09-3.33 4.22-7.1 6.49-11.2 6.76-8.56.49-16.74-7.19-16.81-7.26a5.2 5.2 0 0 0-8.74 4.71c4.3 22 18.47 32.8 38.9 29.67 8-1.23 14.2-4.83 19.65-8 6.2-3.62 11.09-6.49 17.31-5.17 4.8 1 8 3 9.37 5.84a12.19 12.19 0 0 1 1 6.5 26.76 26.76 0 0 0-8.2-3.12c-6.91-1.42-21.28-1.65-39.95 12.93-2.28 1.78-12.24 2.45-17.48-2.4a5.2 5.2 0 0 0-8.63 4.8 34.49 34.49 0 0 0 10 17.54c6.1 5.82 13.57 8.57 21 7.75a37 37 0 0 0 6.16-1.54c5.67-1.71 15.16-4.57 19-1.06 7.14 6.5 16.91 15.4 29.34 15.4a27.67 27.67 0 0 0 13.44-3.64c12.28-6.76 21.92-3 22.27-2.86a2.7 2.7 0 0 0 .41.16c1 .33 25.32 8 56-.21 1.66-.06 3.3-.18 4.85-.35h.52c.62-.07 1.23-.15 1.82-.24 1.07-.14 2.13-.31 3.23-.52l-.53-2.74.71 2.71a71.29 71.29 0 0 0 20.77-7.37 72.9 72.9 0 0 0 6.41-3.88c30.98-20.73 42.96-60.56 27.81-92.72Zm-31 88a69.28 69.28 0 0 1-5.94 3.61 66.07 66.07 0 0 1-19.18 6.8l.54 2.74-.71-2.71c-1 .18-2 .34-3 .47-.56.08-1.12.16-1.67.22h-.47c-1.55.17-3.16.28-4.79.34l-.65.09c-29.18 7.95-52.1.69-53 .38-1.27-.52-12.78-4.77-27.12 3.12a22.23 22.23 0 0 1-10.72 3.05c-10.26 0-19.11-8.06-25.58-13.95-2.53-2.31-5.87-3.12-9.42-3.12-5.12 0-10.69 1.67-15 3a36.28 36.28 0 0 1-5.14 1.34c-8.13.89-21.34-5.6-24.68-19.64 7.27 5.78 19.34 5.42 23.81 1.92 16.9-13.19 29.41-13.09 35.37-11.86a19 19 0 0 1 9.33 4.6l3.38 3.22 1.24-4.5c1.1-3.95 1.89-9.7-.56-14.66-2.22-4.49-6.67-7.46-13.23-8.84-8.34-1.76-14.63 1.92-21.31 5.83-5 2.92-10.66 6.23-17.65 7.3-17.2 2.63-28.35-5.67-32.32-24 2.69 2.31 11 8.59 20.16 8 5.77-.38 10.89-3.37 15.25-8.89 16-20.24 27.64-18.85 45-14.16l3.47.95.06-3.61c.07-5-1.32-17-15.68-21.71-14.56-4.76-24.39 1.44-31.57 6 2-5 10.8-24.72 28.39-26.74 12.48-1.43 20.25 2.17 27.1 5.34 4.05 1.88 7.89 3.65 12.05 4a25.45 25.45 0 0 0 7-.49l.94-.2.62-.73c6.55-7.69 19.44-17.84 20.88-19l8.76.85 5.7 7.63 1.67-.26a106.93 106.93 0 0 1 20.29-1.3l2.89.1V79.09l-2.7-.09c-1.86-.06-3.59-.14-5.11-.23-2.28-.14-6-.36-7-.9v-9.61l.17-.14c.91-.78 5.29-3.31 23.21-3.31 21.28 0 23.37 3.48 23.38 3.51l.07 9.51c-.9.36-3.7 1-12.43 1.21l-2.77.08.35 17.12 2.63.11a61.57 61.57 0 0 1 14.19 2.23l2 .55 5.55-8.41 8.7-1.36c6.37 4.39 19.31 14 24 20.09l-2.32 3.55-6.48 7.19 1.24 1.82a61.69 61.69 0 0 1 4.75 8.3c13.97 29.63 2.84 66.44-25.87 85.59Z"/><path class="cls-3" d="M273.09 98.93c.65.08 1.3.16 1.94.26l-2-.31a.17.17 0 0 1 .06.05Z"/></svg>