<svg width="279" height="279" fill="none" xmlns="http://www.w3.org/2000/svg"><path d="M139.08 278.25a139.003 139.003 0 0 1-139-139 139 139 0 0 1 278 0c2.56 80.28-61.26 140.34-139 139Z" fill="#F66"/><path d="M139.87 243.15a90.74 90.74 0 0 1-90.74-90.73 90.75 90.75 0 0 1 90.74-90.74 90.738 90.738 0 0 1 90.73 90.74c1.68 52.4-39.98 91.58-90.73 90.73Z" fill="#FFD37B"/><path d="M230.65 155.47c0 50.86-41 88.53-90.79 87.68a90.73 90.73 0 0 1-90.73-90.73c0-1.12 0-2.23.06-3.35a90.75 90.75 0 0 0 90.67 87.39c48.78.84 89.15-35.33 90.74-84.65v.61c.04 1.02.05 2.04.05 3.05Z" fill="#F4B060"/><path d="M132.08 153.07c0 14.58-12.09 27.68-27 27.68s-27-13.1-27-27.68 12.09-26.4 27-26.4 27 11.82 27 26.4Z" fill="#F2B770"/><path d="M132.08 153.07c0 14.58-9.61 27.68-27 27.68s-27-13.1-27-27.68h54Z" fill="#F4B060"/><path d="M105.08 176.9c14.58 0 26.4-11.82 26.4-26.4 0-14.58-11.82-26.4-26.4-26.4-14.58 0-26.4 11.82-26.4 26.4 0 14.58 11.82 26.4 26.4 26.4Z" fill="#0F6D1B"/><path d="M131.6 150.5a27.552 27.552 0 0 1-7.66 18.86 26.765 26.765 0 0 1-8.57 6 27.196 27.196 0 0 1-37.75-24.84 27.63 27.63 0 0 1 7.87-19.59 27.354 27.354 0 0 1 9-6.06 27.913 27.913 0 0 1 10.63-2.07 26.82 26.82 0 0 1 10.52 2.32 27.071 27.071 0 0 1 8.64 6.24 28 28 0 0 1 7.32 19.14Zm-.26 0-.17-2.57c-.12-.85-.27-1.7-.41-2.54-.14-.84-.45-1.65-.68-2.48-.23-.83-.62-1.59-.92-2.39a25.63 25.63 0 0 0-5.92-8.18 26.38 26.38 0 0 0-18.16-6.91 25.145 25.145 0 0 0-9.58 2 25.4 25.4 0 0 0 9.58 48.85 25.856 25.856 0 0 0 14.525-4.135 25.863 25.863 0 0 0 9.735-11.545 25.491 25.491 0 0 0 2-10.1Z" fill="#0B4F11"/><path d="M105.08 171.11c11.383 0 20.61-9.227 20.61-20.61s-9.227-20.61-20.61-20.61-20.61 9.227-20.61 20.61 9.227 20.61 20.61 20.61Z" fill="#0B4F11"/><path d="M125.82 150.5a21.81 21.81 0 0 1-6 14.77 20.885 20.885 0 0 1-14.77 6.5 21.456 21.456 0 0 1-19.93-13 21.679 21.679 0 0 1 11.51-28.56 21.348 21.348 0 0 1 8.42-1.62c2.867.043 5.694.683 8.3 1.88a21.059 21.059 0 0 1 6.77 5 22.172 22.172 0 0 1 5.7 15.03Zm-.27 0a19.149 19.149 0 0 0-1.74-7.76 19.841 19.841 0 0 0-4.66-6.31 20.688 20.688 0 0 0-14.07-5.22 20.08 20.08 0 0 0-13.65 5.64 19.271 19.271 0 0 0-5.9 13.65 19.647 19.647 0 0 0 5.58 14 19.878 19.878 0 0 0 14 6A20.085 20.085 0 0 0 124 158.34a19.722 19.722 0 0 0 1.55-7.84Z" fill="#062808"/><path d="M97.26 155.59a5.09 5.09 0 1 0 0-10.18 5.09 5.09 0 0 0 0 10.18Z" fill="#EFD050"/><path d="M102.48 150.5a6.431 6.431 0 0 1-1.42 3.79 5.28 5.28 0 0 1-3.8 2 5.848 5.848 0 0 1-4.22-1.53 6.109 6.109 0 0 1-1.93-4.22 6.41 6.41 0 0 1 1.63-4.53 5.762 5.762 0 0 1 4.52-1.88 5.26 5.26 0 0 1 2.37.69 5.38 5.38 0 0 1 1.73 1.62 6.81 6.81 0 0 1 1.12 4.06Zm-.26 0a3.791 3.791 0 0 0-.538-1.785 3.792 3.792 0 0 0-1.322-1.315 5.243 5.243 0 0 0-3.1-.67 4.64 4.64 0 0 0-2.67 1.1 3.767 3.767 0 0 0-1.36 2.67 4.159 4.159 0 0 0 1 3 4.362 4.362 0 0 0 3 1.45 4.897 4.897 0 0 0 3.4-1 4.12 4.12 0 0 0 1.59-3.45Z" fill="#062808"/><path d="M112.67 155.58a5.08 5.08 0 1 0 0-10.16 5.08 5.08 0 1 0 0 10.16Z" fill="#EFD050"/><path d="M117.89 150.5a6.404 6.404 0 0 1-1.43 3.79 5.218 5.218 0 0 1-3.79 2 5.871 5.871 0 0 1-4.21-1.52 6.07 6.07 0 0 1-1.93-4.22 6.38 6.38 0 0 1 1.62-4.52 5.805 5.805 0 0 1 4.52-1.89 5.266 5.266 0 0 1 2.37.7 5.456 5.456 0 0 1 1.73 1.61 6.9 6.9 0 0 1 1.12 4.05Zm-.27 0a3.81 3.81 0 0 0-1.85-3.1 5.32 5.32 0 0 0-3.1-.66 4.72 4.72 0 0 0-2.67 1.09 3.806 3.806 0 0 0-1.35 2.67c-.035.545.04 1.091.221 1.606.18.516.462.99.829 1.394a4.298 4.298 0 0 0 3 1.45 4.94 4.94 0 0 0 3.4-1 4.14 4.14 0 0 0 1.52-3.45Z" fill="#062808"/><path d="M201.71 153.07c0 14.58-12.09 27.68-27 27.68s-27-13.1-27-27.68 12.09-26.4 27-26.4 27 11.82 27 26.4Z" fill="#F2B770"/><path d="M201.71 153.07c0 14.58-9.61 27.68-27 27.68s-27-13.1-27-27.68h54Z" fill="#F4B060"/><path d="M174.71 176.9c14.58 0 26.4-11.82 26.4-26.4 0-14.58-11.82-26.4-26.4-26.4-14.58 0-26.4 11.82-26.4 26.4 0 14.58 11.82 26.4 26.4 26.4Z" fill="#0F6D1B"/><path d="M201.23 150.5a27.552 27.552 0 0 1-7.66 18.86 26.872 26.872 0 0 1-8.57 6 27.192 27.192 0 0 1-34.439-12.062 27.207 27.207 0 0 1-3.311-12.778 27.632 27.632 0 0 1 7.87-19.59 27.355 27.355 0 0 1 9-6.06 27.87 27.87 0 0 1 10.63-2.07c3.627.054 7.206.843 10.52 2.32a27.071 27.071 0 0 1 8.64 6.24 28 28 0 0 1 7.32 19.14Zm-.26 0-.17-2.57c-.12-.85-.27-1.7-.41-2.54-.14-.84-.46-1.65-.68-2.48-.22-.83-.62-1.59-.92-2.39a25.792 25.792 0 0 0-5.92-8.18 26.4 26.4 0 0 0-18.16-6.91 25.146 25.146 0 0 0-9.58 2 25.4 25.4 0 0 0 9.58 48.85 25.84 25.84 0 0 0 14.552-4.148A25.845 25.845 0 0 0 199 160.55a25.688 25.688 0 0 0 2-10.05h-.03Z" fill="#0B4F11"/><path d="M174.71 171.11c11.383 0 20.61-9.227 20.61-20.61s-9.227-20.61-20.61-20.61-20.61 9.227-20.61 20.61 9.227 20.61 20.61 20.61Z" fill="#0B4F11"/><path d="M195.45 150.5a21.77 21.77 0 0 1-6 14.77 20.785 20.785 0 0 1-6.69 4.72 21.115 21.115 0 0 1-8.07 1.78 21.447 21.447 0 0 1-19.93-13 21.671 21.671 0 0 1-.196-16.678 21.69 21.69 0 0 1 11.706-11.882 21.347 21.347 0 0 1 8.42-1.62c2.867.043 5.694.683 8.3 1.88a21.059 21.059 0 0 1 6.77 5 22.224 22.224 0 0 1 5.69 15.03Zm-.27 0a19.326 19.326 0 0 0-1.74-7.76 19.841 19.841 0 0 0-4.66-6.31 20.688 20.688 0 0 0-14.07-5.22 20.059 20.059 0 0 0-13.65 5.64 19.419 19.419 0 0 0-4.31 6.21 19.697 19.697 0 0 0 8.724 24.996 19.694 19.694 0 0 0 9.276 2.394 20.48 20.48 0 0 0 14.37-5.57 20.08 20.08 0 0 0 4.54-6.54 19.566 19.566 0 0 0 1.52-7.84Z" fill="#062808"/><path d="M166.89 155.59a5.09 5.09 0 1 0 0-10.18 5.09 5.09 0 0 0 0 10.18Z" fill="#EFD050"/><path d="M172.11 150.5a6.375 6.375 0 0 1-1.43 3.79 5.25 5.25 0 0 1-3.79 2 5.862 5.862 0 0 1-4.22-1.53 6.109 6.109 0 0 1-1.93-4.22 6.453 6.453 0 0 1 1.62-4.53 5.792 5.792 0 0 1 4.53-1.88 5.258 5.258 0 0 1 2.37.69 5.384 5.384 0 0 1 1.74 1.58 6.804 6.804 0 0 1 1.11 4.1Zm-.26 0a3.791 3.791 0 0 0-.538-1.785 3.792 3.792 0 0 0-1.322-1.315 5.244 5.244 0 0 0-3.1-.67 4.64 4.64 0 0 0-2.67 1.1 3.772 3.772 0 0 0-1.36 2.67 4.158 4.158 0 0 0 1 3 4.357 4.357 0 0 0 3 1.45 4.908 4.908 0 0 0 3.4-1 4.184 4.184 0 0 0 1.211-1.533c.276-.6.406-1.257.379-1.917Z" fill="#062808"/><path d="M182.3 155.58a5.08 5.08 0 1 0 0-10.16 5.08 5.08 0 1 0 0 10.16Z" fill="#EFD050"/><path d="M187.52 150.5a6.457 6.457 0 0 1-1.43 3.79 5.25 5.25 0 0 1-3.79 2 5.905 5.905 0 0 1-4.22-1.52 6.059 6.059 0 0 1-1.92-4.22 6.38 6.38 0 0 1 1.62-4.52 5.785 5.785 0 0 1 4.52-1.89 5.266 5.266 0 0 1 2.37.7 5.58 5.58 0 0 1 1.73 1.61 6.9 6.9 0 0 1 1.12 4.05Zm-.27 0a3.81 3.81 0 0 0-1.85-3.1 5.32 5.32 0 0 0-3.1-.66 4.72 4.72 0 0 0-2.67 1.09 3.806 3.806 0 0 0-1.35 2.67c-.035.545.04 1.091.221 1.606.18.516.462.99.829 1.394a4.298 4.298 0 0 0 3 1.45 5.002 5.002 0 0 0 3.4-1 4.142 4.142 0 0 0 1.52-3.45Z" fill="#062808"/><path d="M140.05 214a13.084 13.084 0 0 1-12.16-9.08 1.997 1.997 0 0 1 1.338-2.283 2.001 2.001 0 0 1 2.432 1.043 8.996 8.996 0 0 0 9.49 6.28 8.742 8.742 0 0 0 7-6.43 2.003 2.003 0 0 1 2.38-1.144 2.003 2.003 0 0 1 1.44 2.214 12.695 12.695 0 0 1-10.19 9.28 11.92 11.92 0 0 1-1.73.12Z" fill="#331593"/><path d="M252.56 138.23A16.112 16.112 0 0 1 242 153.35a10.58 10.58 0 0 1 3.123 5.605 10.584 10.584 0 0 1-.686 6.379 10.584 10.584 0 0 1-10.487 6.291 10.587 10.587 0 0 1-9.148-14.202 10.586 10.586 0 0 1 3.928-5.073 16.127 16.127 0 0 1-7.87-10 16.108 16.108 0 0 1-10.716-23.682 16.107 16.107 0 0 1 7.296-6.718 19.412 19.412 0 0 1-.69-3.26 39.704 39.704 0 0 1-30.676.503A39.713 39.713 0 0 1 164.19 87.69a24.074 24.074 0 0 1-24.553 15.823A24.065 24.065 0 0 1 117.9 84a27.667 27.667 0 0 1-13.16 7.6 18.89 18.89 0 0 1 1.219 10.752 18.894 18.894 0 0 1-14.256 15.058 18.89 18.89 0 0 1-10.803-.63 27.543 27.543 0 0 1-21.15 9.87 24.81 24.81 0 0 1-2.6-.13 18.672 18.672 0 0 1 2.6 9.55 18.908 18.908 0 0 1-9.57 16.44 12.334 12.334 0 0 1 9.607 11.968 12.332 12.332 0 0 1-17.58 11.215 12.334 12.334 0 0 1-6.803-13.757A12.33 12.33 0 0 1 39.64 155a18.889 18.889 0 0 1-.64-37.7 27.62 27.62 0 0 1 32.85-43.06A27.79 27.79 0 0 1 119 46.5a30.524 30.524 0 0 1 26.665-21.036A30.521 30.521 0 0 1 175.27 42.11a39.688 39.688 0 0 1 63.492 18.744 39.693 39.693 0 0 1-.802 25.616 19.84 19.84 0 0 1 6.66 37.87 16.07 16.07 0 0 1 7.94 13.89Z" fill="#5328B2"/><path d="M47.39 178.55a13.993 13.993 0 0 1-13.933-15.287 14 14 0 0 1 2.763-7.143 20.547 20.547 0 0 1-15.949-19.905A20.553 20.553 0 0 1 35.98 116.12a29.269 29.269 0 0 1 23.77-46.35c3.25-.009 6.478.529 9.55 1.59a29.44 29.44 0 0 1 49.05-27.94 32.196 32.196 0 0 1 27.514-19.64 32.187 32.187 0 0 1 29.896 15.78 41.342 41.342 0 0 1 64.248 19.78 41.335 41.335 0 0 1 .162 25.73 21.494 21.494 0 0 1 17.378 17.109 21.488 21.488 0 0 1-9.798 22.331 17.773 17.773 0 0 1 6.373 15.513 17.765 17.765 0 0 1-9.373 13.907A12.23 12.23 0 1 1 226 152.6a17.807 17.807 0 0 1-6.41-8.77 17.763 17.763 0 0 1-12.99-14.965 17.768 17.768 0 0 1 8.94-17.685.272.272 0 0 1 0-.09 41.368 41.368 0 0 1-51.24-19.33 25.723 25.723 0 0 1-25.183 13.506A25.726 25.726 0 0 1 117 87.17a29.36 29.36 0 0 1-10.05 5.56 20.574 20.574 0 0 1-14.46 26.222 20.564 20.564 0 0 1-11.04-.222 29.239 29.239 0 0 1-21.54 9.6 20.569 20.569 0 0 1-6.12 23.76 14 14 0 0 1-6.37 26.46h-.03ZM59.75 73.09a26 26 0 0 0-19.49 43.12l2.14 2.43-3.22.31a17.23 17.23 0 0 0 .56 34.35l4.25.27-3.31 2.67a10.678 10.678 0 0 0-2.9 12.976 10.682 10.682 0 0 0 20.287-4.644 10.68 10.68 0 0 0-8.257-10.422l-4.14-.95 3.69-2.1a17.234 17.234 0 0 0 8.584-17.294 17.229 17.229 0 0 0-2.214-6.416l-1.66-2.81 3.25.33c.77.07 1.59.11 2.43.11a25.942 25.942 0 0 0 19.89-9.27l.74-.89 1.09.4a17.239 17.239 0 0 0 21.75-23l-.76-1.78 1.88-.47a25.997 25.997 0 0 0 12.38-7.15l2.23-2.3.58 3.16a22.412 22.412 0 0 0 34.18 14.765 22.411 22.411 0 0 0 8.95-11.265l1.44-4 1.64 3.92a38.069 38.069 0 0 0 20.971 20.596 38.053 38.053 0 0 0 29.389-.486l2-.9.28 2.21c.119 1.017.33 2.021.63 3l.43 1.39-1.32.6a14.466 14.466 0 0 0-8.308 14.752 14.476 14.476 0 0 0 11.378 12.538l1 .2.26 1a14.557 14.557 0 0 0 7.06 8.94l2.35 1.27-2.19 1.53a8.943 8.943 0 0 0-3.864 7.901 8.937 8.937 0 0 0 9.204 8.405 8.948 8.948 0 0 0 7.519-4.565 8.945 8.945 0 0 0 1.141-4.401 8.84 8.84 0 0 0-2.84-6.53l-2-1.83 2.52-.93a14.458 14.458 0 0 0 7.818-20.154 14.457 14.457 0 0 0-5.508-5.846l-2.66-1.69 2.91-1.31a18.188 18.188 0 0 0 10.417-19.726A18.19 18.19 0 0 0 237.8 88.12l-2.2-.16.78-2.07a37.996 37.996 0 0 0-37.159-51.485 38 38 0 0 0-22.911 8.965l-1.59 1.35-1-1.87a28.884 28.884 0 0 0-27.969-15.661A28.88 28.88 0 0 0 120.55 47l-.9 2.79-1.92-2.22a26.15 26.15 0 0 0-44.31 26.09l1.42 3.86-3.7-1.81a25.72 25.72 0 0 0-11.39-2.62Z" fill="#331593"/><path d="M87.65 194.03a3.19 3.19 0 1 0 0-6.38 3.19 3.19 0 0 0 0 6.38ZM99.17 192.6a3.19 3.19 0 1 0 0-6.38 3.19 3.19 0 0 0 0 6.38ZM95.98 202.5a3.19 3.19 0 1 0 0-6.38 3.19 3.19 0 0 0 0 6.38ZM107.59 199.31a3.19 3.19 0 1 0 0-6.38 3.19 3.19 0 0 0 0 6.38ZM190.57 192.6a3.19 3.19 0 1 0 0-6.38 3.19 3.19 0 0 0 0 6.38ZM181.68 200.93a3.19 3.19 0 1 0 0-6.38 3.19 3.19 0 0 0 0 6.38ZM178.5 190.84a3.19 3.19 0 1 0 0-6.38 3.19 3.19 0 0 0 0 6.38ZM170.07 199.31a3.19 3.19 0 1 0 0-6.38 3.19 3.19 0 0 0 0 6.38Z" fill="#DD944B"/><path d="M142.27 92.52a1.58 1.58 0 0 1-.63-.13c-5.26-2.18-8.71-7.92-8.59-14.3a13.151 13.151 0 0 1 8.65-12.58c7.85-2.89 15.9-1.42 21 3.83 4.73 4.85 5.86 12 3 19.07a1.653 1.653 0 1 1-3.07-1.23c2.36-5.92 1.51-11.59-2.34-15.53-4.19-4.31-10.89-5.47-17.5-3a9.938 9.938 0 0 0-6.48 9.54c-.1 5 2.59 9.55 6.54 11.19a1.652 1.652 0 0 1 1.001 1.85 1.65 1.65 0 0 1-1.631 1.33l.05-.04ZM239.28 109.51c-10.26 0-14.24-5.84-14.54-10.84-.34-5.93 4.09-12.79 13-13.84a1.652 1.652 0 0 1 .39 3.28c-6.9.82-10.35 5.95-10.09 10.36.22 3.74 3.29 7.73 11.24 7.73a1.658 1.658 0 0 1 1.531 1.655 1.658 1.658 0 0 1-1.531 1.655ZM60.36 108a11.445 11.445 0 0 1-9.75-4.69 11 11 0 0 1-.82-11.19 9.9 9.9 0 0 1 9.16-5.16 1.65 1.65 0 1 1 0 3.3 6.6 6.6 0 0 0-6.22 3.39 7.66 7.66 0 0 0 .59 7.76c1.77 2.55 4.88 3.67 8.75 3.17 10.07-1.3 14.75-8.63 15.7-14.52 1-6.28-1.59-11.89-6.61-14.3a1.66 1.66 0 1 1 1.42-3c6.38 3.06 9.7 10.05 8.45 17.81-1.13 7-6.66 15.74-18.53 17.27-.71.097-1.424.15-2.14.16ZM189.69 81.89a17.39 17.39 0 0 1-4.34-.55c-8.26-2.11-15.48-10.37-17.56-20.08-1.78-8.31.56-15.77 6.44-20.45a1.65 1.65 0 0 1 2 2.59c-4.85 3.87-6.77 10.13-5.26 17.17 1.83 8.53 8.06 15.75 15.15 17.57 6.29 1.61 12.64-1.05 18.38-7.7a11.178 11.178 0 0 0 2-11.54c-1.48-3.92-4.72-6.87-8.07-7.33-2.68-.38-5.17.88-7.22 3.64a1.659 1.659 0 1 1-2.65-2c2.76-3.73 6.43-5.49 10.33-4.95 4.51.63 8.81 4.43 10.7 9.45A14.38 14.38 0 0 1 207 72.57c-5.21 6.13-11.24 9.32-17.31 9.32Z" fill="#331593"/></svg>