<svg width="236" height="236" fill="none" xmlns="http://www.w3.org/2000/svg"><circle cx="118" cy="118" r="118" fill="#7D8DFF"/><mask id="a" style="mask-type:alpha" maskUnits="userSpaceOnUse" x="0" y="0" width="236" height="236"><circle cx="118" cy="118" r="118" fill="#2E00FF"/></mask><g mask="url(#a)"><path d="M205.818 122.39v22.951a20.325 20.325 0 0 1-20.316 20.325H159.74a4.331 4.331 0 0 0-4.33 4.33v60.117a10.46 10.46 0 0 1-10.456 10.464H89.737a10.453 10.453 0 0 1-10.447-10.456v-34.355a4.34 4.34 0 0 0-4.339-4.338h-24.41a20.323 20.323 0 0 1-20.325-20.316v-25.368a15.366 15.366 0 0 1 14.836-15.466 15.173 15.173 0 0 1 10.954 4.318 15.167 15.167 0 0 1 4.562 10.854v8.392a5.871 5.871 0 0 0 5.874 5.874h6.974a5.873 5.873 0 0 0 5.874-5.874v-60.94c0-20.979 16.699-38.316 37.628-38.551a37.932 37.932 0 0 1 27.348 11.152c6.898 6.882 11.152 29.262 11.152 39.777v22.481c0 1.682.669 3.296 1.858 4.486a6.349 6.349 0 0 0 4.486 1.858h7.628a6.347 6.347 0 0 0 6.344-6.344v-5.035a15.259 15.259 0 0 1 14.728-15.349 15.058 15.058 0 0 1 10.828 4.284 15.041 15.041 0 0 1 4.528 10.729Z" fill="#1EC62E"/><path d="M205.818 122.39v22.951a20.325 20.325 0 0 1-20.316 20.325H159.74a4.33 4.33 0 0 0-4.33 4.33v60.117a10.46 10.46 0 0 1-10.456 10.464H89.737a10.446 10.446 0 0 1-10.372-9.146h52.674a10.467 10.467 0 0 0 10.465-10.465v-60.109c0-2.391-2.3-4.33.092-4.33h30c11.219 0 25.963-7.72 25.963-18.94 0 0 3.886-23.664-6.83-30.209a15.054 15.054 0 0 1 14.089 15.012Z" fill="#129B1B"/><path d="M143.234 241.417h-5.547c0-4.381.084-10.557.184-17.715.336-24.336.84-61.024-.839-94.28-2.517-48.965-8.651-64.942-13.376-69.725a4.88 4.88 0 0 0-3.482-1.738v-5.546a10.264 10.264 0 0 1 7.434 3.356c15.735 15.944 16.901 90.168 15.819 167.983-.109 7.167-.193 13.326-.193 17.665Z" fill="#129B1B"/><path d="M80.825 105.985c10.288 3.423 26.451 4.8 36.084 4.8 9.634 0 29.639.738 38.501-3.407l-.285-18.772-75.76 1.745 1.46 15.634Z" fill="#129B1B"/><path d="M101.108 240.46h-5.556c0-5.522-.2-13.301-.427-22.297-.663-25.477-1.57-60.369.52-92.483 2.517-39.19 8.887-63.214 19.359-73.435l3.877 3.969c-9.382 9.113-15.314 32.61-17.773 69.826-2.073 31.888-1.167 66.605-.512 91.972.268 9.046.512 16.825.512 22.448Z" fill="#129B1B"/><path d="M139.432 240.586h-4.439c0-4.372.084-10.557.185-17.707.612-44.215 2.047-147.75-14.384-164.408a5.424 5.424 0 0 0-3.885-1.896v-4.44a9.734 9.734 0 0 1 7.041 3.223c7.863 7.964 12.705 31.838 14.803 73.007 1.678 33.424 1.2 70.246.839 94.607-.076 7.107-.16 13.267-.16 17.614Z" fill="#0B490F"/><path d="M30.216 161.537v9.575a20.324 20.324 0 0 0 20.324 20.316h2.4a23.649 23.649 0 0 0-22.724-29.891Z" fill="#FFA81D"/><path d="M114.576 240.586h30.378a10.453 10.453 0 0 0 9.662-6.461c.525-1.269.795-2.63.794-4.004v-27.172a42.918 42.918 0 0 0-40.834 37.637Z" fill="#D62A1D"/><path d="M97.852 240.586h-4.44c0-5.539-.2-13.318-.436-22.322-.663-25.46-1.569-60.344.52-92.425 2.518-39.054 8.829-62.937 19.201-73.074l3.105 3.172c-9.433 9.23-15.441 32.811-17.875 70.187-2.072 31.888-1.174 66.646-.512 92.031.235 9.029.437 16.834.437 22.431Z" fill="#0B490F"/><path d="M144.954 242.801H89.737a12.698 12.698 0 0 1-12.68-12.68v-34.355a2.123 2.123 0 0 0-2.114-2.123H50.54A22.555 22.555 0 0 1 28 171.112v-25.36a17.62 17.62 0 0 1 17.002-17.698 17.4 17.4 0 0 1 17.79 17.396v8.392a3.623 3.623 0 0 0 3.617 3.625h7.006a3.623 3.623 0 0 0 3.617-3.625v-60.94c0-22.238 17.866-40.523 39.827-40.766a40.278 40.278 0 0 1 40.741 40.28v35.345a4.13 4.13 0 0 0 4.129 4.12h7.628a4.13 4.13 0 0 0 4.128-4.12v-5.035a17.513 17.513 0 0 1 16.893-17.564 17.276 17.276 0 0 1 12.437 4.929A17.267 17.267 0 0 1 208 122.424v22.951a22.566 22.566 0 0 1-22.54 22.54h-25.762a2.112 2.112 0 0 0-2.115 2.114v60.118a12.686 12.686 0 0 1-12.629 12.654ZM45.396 132.46h-.294a13.184 13.184 0 0 0-12.663 13.259v25.359a18.125 18.125 0 0 0 18.101 18.101h24.403a6.554 6.554 0 0 1 6.554 6.554v34.355a8.248 8.248 0 0 0 8.24 8.24h55.217a8.245 8.245 0 0 0 8.24-8.24v-60.084a6.554 6.554 0 0 1 6.546-6.554h25.762a18.123 18.123 0 0 0 18.101-18.1v-22.96a12.837 12.837 0 0 0-3.856-9.169 12.814 12.814 0 0 0-9.252-3.653 13.045 13.045 0 0 0-12.545 13.124v5.035a8.581 8.581 0 0 1-2.515 6.051 8.582 8.582 0 0 1-6.053 2.509h-7.628a8.57 8.57 0 0 1-8.56-8.56V92.415a35.842 35.842 0 0 0-10.65-25.487 35.855 35.855 0 0 0-25.61-10.353c-19.535.21-35.437 16.514-35.437 36.327v60.982a8.075 8.075 0 0 1-8.056 8.064h-7.032a8.064 8.064 0 0 1-8.056-8.064v-8.392a12.952 12.952 0 0 0-7.98-12.041 12.959 12.959 0 0 0-4.977-.991Z" fill="#0B490F"/><path d="m207.068 69.364-.671 1.124c-5.37 4.498-42.638 7.989-87.81 7.989-43.862 0-80.265-3.29-87.272-7.603l-1.217-1.51c0-5.035 39.608-9.122 88.473-9.122 48.864 0 88.497 4.087 88.497 9.122Z" fill="#F79E1C"/><path d="m198.45 79.593-.595 1.259c-4.742 5.035-37.654 8.962-77.539 8.962-38.744 0-70.892-3.692-77.068-8.526l-1.066-1.678c0-5.648 34.976-10.221 78.134-10.221s78.134 4.548 78.134 10.204Z" fill="#CC7A0E"/><path d="M69.43 92.457S78.165 59.32 97.625 26.66c9.785-16.43 27.382-14.744 39.239.352 13.368 17.027 29.22 65.455 29.22 65.455l-96.654-.009Z" fill="#FFB743"/><path d="M166.084 92.457H69.43a268.494 268.494 0 0 1 10.556-30.21c15.483 6 48.411 7.117 54.739 2.518 6.327-4.599-3.055-30.764-11.396-48.268 4.825 1.854 9.507 5.437 13.535 10.556 13.368 16.985 29.22 65.404 29.22 65.404Z" fill="#F79E1C"/><path d="m206.406 70.488-3.609 6.084-2.626 4.414-4.951 8.391c0 5.035-33.374 9.122-74.526 9.122-41.153 0-74.526-4.087-74.526-9.121l-6.1-7.553-4.104-5.102-4.632-5.773c6.99 4.313 43.393 7.602 87.272 7.602 45.156-.075 82.423-3.566 87.802-8.064Z" fill="#FFB743"/><path d="m202.797 76.572-17.706 8.467-16.758-5.799-15.071 7.905-16.33-6.36-15.491 7.451-16.54-6.906-16.733 6.621-15.751-7.88-17.505 5.539-18.948-8.963 4.103 5.103 14.635 6.931 17.472-5.53 15.86 7.922 16.842-6.663 16.649 6.956 15.532-7.468 16.372 6.377 15.139-7.93 16.691 5.782 14.912-7.141 2.626-4.414Z" fill="#D62A1D"/><path d="M56.196 87.145h-2.778v16.028h2.778V87.145ZM89.485 89.512h-2.777v16.607h2.777V89.512ZM122.867 89.805h-2.777v16.322h2.777V89.805ZM154.739 88.715h-2.778v17.412h2.778V88.715ZM186.568 86.583h-2.778v16.582h2.778V86.583Z" fill="#D62A1D"/><path d="M54.803 110.835a7.662 7.662 0 1 0 0-15.323 7.662 7.662 0 0 0 0 15.323Z" fill="#FF960B"/><path d="M87.975 113.789a7.661 7.661 0 1 0 0-15.323 7.661 7.661 0 0 0 0 15.323Z" fill="#ED2626"/><path d="M121.432 113.789a7.661 7.661 0 1 0 .001-15.323 7.661 7.661 0 0 0-.001 15.323Z" fill="#FF960B"/><path d="M153.983 113.789a7.661 7.661 0 1 0 .001-15.323 7.661 7.661 0 0 0-.001 15.323Z" fill="#ED2626"/><path d="M185.401 110.835a7.661 7.661 0 1 0 .001-15.323 7.661 7.661 0 0 0-.001 15.323Z" fill="#FF960B"/><path d="m49.786 162.302-9.125 9.127 2.748 2.747 9.124-9.128-2.747-2.746ZM55.166 169.614l-9.124 9.128 2.747 2.747 9.125-9.128-2.748-2.747ZM116.986 213.819l-2.747 2.747 9.126 9.126 2.747-2.747-9.126-9.126ZM125.087 207.657l-2.747 2.748 9.126 9.126 2.747-2.747-9.126-9.127Z" fill="#043304"/></g></svg>