<svg width="279" height="279" fill="none" xmlns="http://www.w3.org/2000/svg"><path d="M139.19 278.25a139.002 139.002 0 0 1-139-139 139 139 0 0 1 139-139 139.001 139.001 0 0 1 139 139c2.56 80.28-61.26 140.34-139 139Z" fill="#A4FBFF"/><path d="M139.2 230a90.74 90.74 0 0 1-90.74-90.73 90.742 90.742 0 0 1 90.74-90.74 90.727 90.727 0 0 1 83.826 56.016 90.736 90.736 0 0 1 6.904 34.724c1.68 52.39-39.93 91.6-90.73 90.73Z" fill="#FFDCA4"/><path d="M212.57 195.11C196 217 169.18 230.52 139.2 230a90.577 90.577 0 0 1-72.54-36.23c18 18.2 43.71 31.72 72.44 31.72 29.04.51 55.41-12.4 73.47-30.38Z" fill="#F2B770"/><path d="M139.1 115.88a2 2 0 0 1-2-2V97.05a2 2 0 0 1 4 0v16.85a1.998 1.998 0 0 1-2 1.98ZM128.81 117a2 2 0 0 1-1.78-1.11l-6.44-13.24a1.998 1.998 0 0 1 2.449-2.939 1.996 1.996 0 0 1 1.121 1.209l6.43 13.23a2 2 0 0 1-.91 2.65 1.944 1.944 0 0 1-.87.2ZM150.21 118.54a2.087 2.087 0 0 1-.65-.11 1.999 1.999 0 0 1-1.22-2.52l4.8-13.91a2.006 2.006 0 0 1 .967-1.338 1.994 1.994 0 0 1 2.366.282 2.001 2.001 0 0 1 .417 2.346l-4.81 13.91a1.999 1.999 0 0 1-1.87 1.34Z" fill="#2C1154"/><path d="M144.33 15.63a5.191 5.191 0 0 1 2.72-.3c.928.137 1.831.41 2.68.81 1.639.79 3.138 1.84 4.44 3.11a25.98 25.98 0 0 1 3.39 4c.501.702.964 1.43 1.39 2.18.45.758.86 1.54 1.23 2.34l-4.67-.88c.71-.66 1.39-1.18 2.11-1.74s1.44-1.06 2.18-1.57a36.12 36.12 0 0 1 4.7-2.67 22.22 22.22 0 0 1 5.26-1.73c.936-.175 1.89-.236 2.84-.18a5.679 5.679 0 0 1 2.67.81c-1.644.271-3.2.93-4.54 1.92a47.808 47.808 0 0 0-3.88 3c-1.25 1-2.49 2.13-3.72 3.22-1.23 1.09-2.47 2.23-3.6 3.3l-2.79 2.63-1.88-3.52-1.06-2-1.11-2c-.75-1.33-1.5-2.66-2.29-4a38.58 38.58 0 0 0-2.51-3.73 9.53 9.53 0 0 0-3.56-3Z" fill="#B71C58"/><path d="M235.32 188.65c-13 18-36 22.21-53 8.6 0 0 23.22 1.94 32.62-12.91 11.36-18 4-40.73-24.69-61.47-17.58-12.68-39.16-24.56-51.11-49.51-11.94 24.95-33.53 36.83-51.1 49.51-28.71 20.74-36.05 43.52-24.69 61.47 9.4 14.85 32.62 12.91 32.62 12.91-17 13.61-40 9.37-53-8.6-16.94-23.43-14.31-66 10.86-105 21.18-32.84 49.76-46.88 85.27-46.9h.12c35.52 0 64.1 14.06 85.29 46.9 25.12 39.03 27.77 81.57 10.81 105Z" fill="#F2B770"/><path d="M240.57 191.35c-13.5 19.64-37.38 24.28-55 9.4 0 0 24.11 2.13 33.86-14.1 11.79-19.63 4.17-44.52-25.63-67.17-18.26-13.89-42.25-27.59-54.64-55-12.38 27.36-36.37 41.06-54.63 55-29.8 22.65-37.42 47.54-25.63 67.17 9.75 16.23 33.85 14.1 33.85 14.1-17.64 14.88-41.52 10.24-55-9.4-17.59-25.6-14.85-72.09 11.26-114.72 22-35.93 53.26-51.27 90.17-51.25 36.91.02 68.17 15.32 90.18 51.25 26.06 42.63 28.8 89.12 11.21 114.72Z" fill="#D83068"/><path d="M69.61 211.18a35.954 35.954 0 0 1-4.74-.32c-11.21-1.51-21.34-8.11-28.53-18.58-18.73-27.24-14.12-75.15 11.21-116.51 21.15-34.53 51.94-52 91.51-52h.15c39.57 0 70.35 17.51 91.51 52 25.33 41.35 29.94 89.27 11.22 116.51-7.2 10.47-17.33 17.07-28.54 18.58-10.25 1.38-20.52-1.76-28.92-8.84l-4-3.36 5.2.45c.23 0 23.2 1.82 32.29-13.32 5.66-9.42 6.58-20.15 2.65-31-4.17-11.54-13.8-23.28-27.86-34-3-2.26-6.06-4.49-9.33-6.84-15.77-11.39-33.56-24.22-44.31-45.58-10.75 21.36-28.53 34.19-44.31 45.58-3.26 2.36-6.35 4.58-9.32 6.84-14.06 10.69-23.69 22.43-27.86 34-3.93 10.88-3 21.61 2.64 31 9.1 15.14 32.07 13.34 32.3 13.32l5.19-.45-4 3.36a37.406 37.406 0 0 1-24.15 9.16ZM139.06 27c-38.34 0-68.18 17-88.69 50.46-24.67 40.28-29.32 86.72-11.31 112.92 6.66 9.69 16 15.79 26.25 17.17a32.93 32.93 0 0 0 22.31-5.11c-7.93-.33-22.77-2.66-30.17-15-12.79-21.3-3.06-47.22 26.05-69.34 3-2.29 6.11-4.52 9.39-6.89 16.2-11.69 34.56-24.94 44.74-47.42l1.5-3.33 1.51 3.33c10.17 22.48 28.54 35.73 44.74 47.42 3.28 2.37 6.38 4.6 9.39 6.89 29.1 22.12 38.84 48 26.05 69.34-7.4 12.31-22.25 14.64-30.18 15a32.999 32.999 0 0 0 22.36 5.14c10.27-1.38 19.59-7.48 26.25-17.17 18-26.21 13.36-72.64-11.31-112.92C207.39 44 177.54 27 139.2 27h-.14Z" fill="#B71C58"/><path d="M169.24 142.13c0 16.2-13.44 30.76-30 30.76-16.56 0-30-14.56-30-30.76 0-16.2 13.44-29.34 30-29.34 16.56 0 30 13.14 30 29.34Z" fill="#F2B770"/><path d="M169.24 142.13c0 16.2-10.69 30.76-30 30.76-19.31 0-30-14.56-30-30.76" fill="#F2B770"/><path d="M139.22 168.61c16.204 0 29.34-13.136 29.34-29.34s-13.136-29.34-29.34-29.34-29.34 13.136-29.34 29.34 13.136 29.34 29.34 29.34Z" fill="#441F7F"/><path d="M168.76 139.27a31.147 31.147 0 0 1-8.5 21 29.78 29.78 0 0 1-9.53 6.75 30.178 30.178 0 0 1-33.16-6.13 30.758 30.758 0 0 1-9.27-21.66 30.858 30.858 0 0 1 18.91-29 30.575 30.575 0 0 1 12-2.31l3.06.22c1 .15 2 .34 3 .51 1 .17 2 .56 2.94.84.94.28 1.89.75 2.83 1.13a29.627 29.627 0 0 1 9.64 7.13 31.761 31.761 0 0 1 8.08 21.52Zm-.4 0-.2-2.85c-.13-.94-.31-1.88-.47-2.81-.16-.93-.52-1.83-.77-2.74-.25-.91-.7-1.76-1-2.64a27.413 27.413 0 0 0-6.65-9 29.451 29.451 0 0 0-20-7.36 28.46 28.46 0 0 0-19.35 8 27.29 27.29 0 0 0-6.13 8.8 27.898 27.898 0 0 0 14.69 36.6 28.513 28.513 0 0 0 10.79 2.3 29.084 29.084 0 0 0 20.45-7.9 27.894 27.894 0 0 0 6.48-9.3c.32-.89.68-1.78 1-2.68.32-.9.51-1.84.7-2.78.19-.94.29-1.88.4-2.83l.06-2.81Z" fill="#2C1154"/><path d="M139.22 162.18c12.653 0 22.91-10.257 22.91-22.91s-10.257-22.91-22.91-22.91-22.91 10.257-22.91 22.91 10.257 22.91 22.91 22.91Z" fill="#2C1154"/><path d="M162.33 139.27a24.714 24.714 0 0 1-6.62 16.49 23.128 23.128 0 0 1-16.49 7.41 24.219 24.219 0 0 1-24.49-23.9 24.92 24.92 0 0 1 6.91-17.58 23.822 23.822 0 0 1 17.58-7.31c3.254.063 6.458.816 9.4 2.21a23.367 23.367 0 0 1 7.55 5.74 25.303 25.303 0 0 1 6.16 16.94Zm-.4 0a20.707 20.707 0 0 0-2-8.57 21 21 0 0 0-5.26-6.87 23.001 23.001 0 0 0-15.45-5.48 22.19 22.19 0 0 0-14.81 6.11 21.133 21.133 0 0 0-4.72 6.72 21.233 21.233 0 0 0 4.25 23.38 21.81 21.81 0 0 0 15.28 6.63 22.79 22.79 0 0 0 15.91-6 21.565 21.565 0 0 0 5.07-7.19c.26-.69.54-1.38.77-2.09.23-.71.4-1.43.55-2.16.15-.73.23-1.47.31-2.21l.1-2.27Z" fill="#160C30"/><path d="M130.89 144.57a5.3 5.3 0 1 0 0-10.6 5.3 5.3 0 0 0 0 10.6Z" fill="#FFDCA4"/><path d="M136.39 139.27a7.396 7.396 0 0 1-1.46 4 5.494 5.494 0 0 1-4 2.25 6.43 6.43 0 0 1-4.68-1.61 6.749 6.749 0 0 1-2.2-4.68 7.258 7.258 0 0 1 1.75-5.13 6.293 6.293 0 0 1 2.31-1.67 6.221 6.221 0 0 1 2.82-.48 5.62 5.62 0 0 1 2.66.86 5.794 5.794 0 0 1 1.84 1.92 8.123 8.123 0 0 1 .96 4.54Zm-.4 0a3.488 3.488 0 0 0-.65-1.84 3.54 3.54 0 0 0-1.45-1.15 4.7 4.7 0 0 0-1.6-.38 7.125 7.125 0 0 0-1.4.06 5.003 5.003 0 0 0-2.36.95 3.332 3.332 0 0 0-.928 1.035 3.34 3.34 0 0 0-.422 1.325 3.868 3.868 0 0 0 .9 2.82c.347.421.774.77 1.256 1.026a4.158 4.158 0 0 0 1.554.464 5.11 5.11 0 0 0 3.46-.85 4 4 0 0 0 1.65-3.46h-.01Z" fill="#140930"/><path d="M147.31 144.57a5.3 5.3 0 1 0 0-10.6 5.3 5.3 0 0 0 0 10.6Z" fill="#FFDCA4"/><path d="M152.81 139.27a7.466 7.466 0 0 1-1.45 4 5.511 5.511 0 0 1-1.778 1.57 5.506 5.506 0 0 1-2.272.68 6.43 6.43 0 0 1-4.68-1.61 6.749 6.749 0 0 1-2.2-4.68 7.258 7.258 0 0 1 1.75-5.13 6.338 6.338 0 0 1 5.13-2.15 5.662 5.662 0 0 1 2.67.86 5.882 5.882 0 0 1 1.83 1.92 8.006 8.006 0 0 1 1 4.54Zm-.39 0a3.59 3.59 0 0 0-.66-1.84 3.54 3.54 0 0 0-1.45-1.15 4.7 4.7 0 0 0-1.6-.38 7.128 7.128 0 0 0-1.4.06 5.008 5.008 0 0 0-2.35.95 3.322 3.322 0 0 0-1.36 2.36 3.868 3.868 0 0 0 .9 2.82c.347.421.774.77 1.256 1.026a4.158 4.158 0 0 0 1.554.464 5.088 5.088 0 0 0 3.46-.85 3.996 3.996 0 0 0 1.65-3.46Z" fill="#140930"/><path d="M127.81 191.59a23.99 23.99 0 0 0 5.58 5.48 10.864 10.864 0 0 0 6 2 8.787 8.787 0 0 0 3-.51 12.325 12.325 0 0 0 2.91-1.56 23.761 23.761 0 0 0 5.37-5.68 11.534 11.534 0 0 1-.341 4.554 11.535 11.535 0 0 1-2.079 4.066 11.743 11.743 0 0 1-3.78 3.18 11.22 11.22 0 0 1-2.47.88l-.64.15-.65.08-.66.08h-1.31l-.66-.07-.65-.08-.63-.14-.63-.17-.6-.21-.6-.22c-.2-.08-.39-.19-.58-.28a12.121 12.121 0 0 1-3.84-3 11.577 11.577 0 0 1-2.74-8.55Z" fill="#F2B770"/><path d="M139.38 200.62a13.086 13.086 0 0 1-12.16-9.09 2.012 2.012 0 0 1-.009-1.633 1.993 1.993 0 0 1 1.211-1.096A2.006 2.006 0 0 1 131 190.3a8.997 8.997 0 0 0 9.49 6.27 8.72 8.72 0 0 0 7-6.43 2.003 2.003 0 0 1 2.38-1.144 2 2 0 0 1 1.44 2.214 12.695 12.695 0 0 1-10.19 9.28c-.575.091-1.157.135-1.74.13Z" fill="#2C1154"/><path d="M183.07 189.98c10.759 0 19.48-4.15 19.48-9.27 0-5.12-8.721-9.27-19.48-9.27-10.758 0-19.48 4.15-19.48 9.27 0 5.12 8.722 9.27 19.48 9.27ZM95.14 189.98c10.759 0 19.48-4.15 19.48-9.27 0-5.12-8.721-9.27-19.48-9.27-10.758 0-19.48 4.15-19.48 9.27 0 5.12 8.722 9.27 19.48 9.27Z" fill="#FF9C9C"/><path d="M147.55 54.25a190.125 190.125 0 0 0 28 32.88l2 1.85 2 1.82c1.33 1.2 2.65 2.42 4 3.59 2.69 2.38 5.42 4.72 8.21 7a186.804 186.804 0 0 0 17.43 12.78l4.63 3c1.55 1 3.08 2.13 4.55 3.3a58.794 58.794 0 0 1 8.16 7.77 50.855 50.855 0 0 1 6.36 9.3 48.13 48.13 0 0 1 4 10.5 54.622 54.622 0 0 1 .69 22.15 63.257 63.257 0 0 1-2.74 10.69 51.442 51.442 0 0 1-4.66 10l-.46-.27a51.178 51.178 0 0 0 4.06-10 63.851 63.851 0 0 0 2.2-10.58 52.698 52.698 0 0 0-1.62-21.23 45.01 45.01 0 0 0-4.15-9.73 46.953 46.953 0 0 0-6.26-8.49 55.004 55.004 0 0 0-7.92-7c-1.42-1.05-2.9-2-4.4-3l-4.63-2.85c-3.16-1.89-6.29-3.83-9.35-5.89-1.54-1-3.05-2.07-4.58-3.11-1.53-1.04-3-2.13-4.49-3.25A136.724 136.724 0 0 1 171.9 90.9a171.017 171.017 0 0 1-7.42-8.25c-2.34-2.87-4.63-5.77-6.73-8.81-1.05-1.52-2.08-3-3.07-4.61-.99-1.61-1.93-3.15-2.83-4.76a75.85 75.85 0 0 1-4.74-10l.44-.22Z" fill="#B71C58"/><path d="M169.49 60a29.1 29.1 0 0 0 4.87 5.71c1.81 1.75 3.71 3.42 5.63 5.08 3.84 3.3 7.78 6.52 11.7 9.77 3.92 3.25 7.8 6.57 11.59 10 3.79 3.43 7.6 6.87 11.42 10.31 3.82 3.44 7.64 6.86 11.38 10.42l1.39 1.35 1.36 1.43c.89 1 1.84 1.88 2.64 2.93l1.24 1.52c.428.498.829 1.019 1.2 1.56.75 1.07 1.54 2.12 2.25 3.22a66.728 66.728 0 0 1 6.82 14 59.453 59.453 0 0 1 3.35 15.1l-.53.05a51.537 51.537 0 0 0-1.73-7.42c-.18-.61-.39-1.21-.58-1.81-.19-.6-.4-1.2-.63-1.8l-.66-1.78-.74-1.75a64.737 64.737 0 0 0-7.48-13.1c-.73-1-1.55-2-2.32-3a18.309 18.309 0 0 0-1.23-1.41l-1.26-1.38c-.82-.95-1.77-1.77-2.66-2.63l-1.36-1.29-1.44-1.24c-3.84-3.34-7.79-6.58-11.76-9.8-3.97-3.22-8-6.37-12.05-9.53-4.05-3.16-7.94-6.51-11.71-10a153.662 153.662 0 0 1-10.83-11.11 67.644 67.644 0 0 1-4.84-6.16 22.38 22.38 0 0 1-3.53-7.08l.5-.16ZM204.26 203.67a14.828 14.828 0 0 1 1.63-.53c.53-.14 1.05-.25 1.56-.41.51-.16 1-.27 1.53-.38.253-.049.504-.113.75-.19l.74-.19c2-.51 4-.64 6-1.28a30.62 30.62 0 0 0 5.74-2.49 28.811 28.811 0 0 0 5.24-3.65l.25.21a24.992 24.992 0 0 1-4.56 4.81c-.44.34-.87.69-1.32 1l-1.39.95a32.867 32.867 0 0 1-3 1.61l-.76.38-.79.34c-.52.22-1 .47-1.58.67-1.08.396-2.212.632-3.36.7a13.155 13.155 0 0 1-6.72-1.24l.04-.31ZM122.62 64.62a24.932 24.932 0 0 1-2.39 6.45c-.52 1-1.12 2-1.73 3-.61 1-1.25 1.93-1.93 2.85-.68.92-1.37 1.83-2.08 2.73-.71.9-1.46 1.75-2.22 2.61-1.49 1.71-3.06 3.36-4.67 5a119.57 119.57 0 0 1-10.13 9c-3.52 2.79-7.19 5.38-10.81 8s-7.24 5.24-10.81 7.88c-1.79 1.33-3.57 2.66-5.31 4-1.74 1.34-3.48 2.72-5.08 4.16a48.789 48.789 0 0 0-8.53 9.81 37.705 37.705 0 0 0-3.07 5.79 27.244 27.244 0 0 0-1.9 6.28h-.53c.117-2.277.53-4.53 1.23-6.7a38.452 38.452 0 0 1 2.6-6.31 46.625 46.625 0 0 1 8-11.13c3.25-3.26 6.73-6.09 10.19-8.94 3.46-2.85 7-5.61 10.38-8.46 3.38-2.85 6.79-5.75 10.17-8.61l10.14-8.5c1.68-1.42 3.33-2.87 5-4.32.82-.73 1.62-1.48 2.41-2.23s1.6-1.5 2.36-2.28a49.2 49.2 0 0 0 8.23-10.2l.48.12Z" fill="#B71C58"/><path d="M125.81 48.69a28.013 28.013 0 0 1-3.64 4.53c-1.34 1.4-2.73 2.74-4.14 4-1.41 1.26-2.85 2.56-4.3 3.81l-4.39 3.69c-5.9 4.84-11.9 9.51-17.9 14.15-6 4.64-12.07 9.16-18.06 13.76-3 2.3-6 4.69-8.75 7.1a70.616 70.616 0 0 0-7.66 8 83.051 83.051 0 0 0-11.67 19 77.44 77.44 0 0 0-6.13 21.46 59.5 59.5 0 0 0 1.07 22.28 51.681 51.681 0 0 0 10 20.06l-.41.34a52.611 52.611 0 0 1-6.66-9.34 51.569 51.569 0 0 1-4.45-10.65 61.59 61.59 0 0 1-2.07-23 79.08 79.08 0 0 1 5.61-22.48 86.603 86.603 0 0 1 11.53-20.18 77.86 77.86 0 0 1 7.81-8.75c1.45-1.37 2.85-2.62 4.29-3.9 1.44-1.28 2.87-2.55 4.33-3.79 5.8-5.02 11.8-9.75 18-14.19 3.08-2.25 6.24-4.38 9.36-6.56 3.12-2.18 6.3-4.28 9.45-6.39l4.73-3.17a339.171 339.171 0 0 0 4.7-3.19 224.5 224.5 0 0 0 4.62-3.28c.76-.56 1.51-1.14 2.23-1.74a20.727 20.727 0 0 0 2.07-1.9l.43.33ZM116.39 39.39c-2.4 1.54-4.73 3-7.08 4.47-2.35 1.47-4.69 2.88-7 4.29-2.31 1.41-4.73 2.73-7.17 4-1.21.63-2.44 1.25-3.64 1.9-1.2.65-2.38 1.36-3.57 2.06l-3.46 2.2c-1.16.74-2.26 1.55-3.4 2.32-1.14.77-2.23 1.59-3.34 2.4L76 64.24l-1.59 1.3a77.07 77.07 0 0 0-11.83 11.51l-.44-.3 2.3-3.53c.81-1.14 1.7-2.23 2.55-3.35.42-.57.88-1.1 1.35-1.63l1.4-1.59c.91-1.08 1.91-2.06 2.9-3.08l1.49-1.5 1.56-1.43c1-.95 2.07-1.93 3.16-2.82 1.09-.89 2.16-1.82 3.28-2.67l3.37-2.57c1.15-.83 2.29-1.65 3.42-2.5 1.13-.85 2.32-1.63 3.47-2.45a50.165 50.165 0 0 1 7.39-4.16 64.196 64.196 0 0 1 8-3 36.003 36.003 0 0 1 8.46-1.57l.15.49ZM149.33 38.54a37.11 37.11 0 0 1 12.79-.17 62.666 62.666 0 0 1 12.43 3.18 64.648 64.648 0 0 1 11.51 5.57 119.109 119.109 0 0 1 10.46 7.29 99 99 0 0 1 9.56 8.38 86.056 86.056 0 0 1 8.24 9.66 69.457 69.457 0 0 1 6.46 10.88c.42 1 .88 1.91 1.27 2.89.39.98.77 2 1.11 2.95.34.95.63 2 .92 3l.73 3.05-.51.13a56.628 56.628 0 0 0-5-11.29 66.249 66.249 0 0 0-7.09-10 83.273 83.273 0 0 0-8.58-8.73 90.409 90.409 0 0 0-20.16-13.66 293.223 293.223 0 0 0-10.94-5.24c-3.69-1.65-7.43-3.18-11.28-4.46a75.313 75.313 0 0 0-11.93-2.92l.01-.51Z" fill="#B71C58"/></svg>