<svg width="279" height="279" fill="none" xmlns="http://www.w3.org/2000/svg"><path d="M139.92 278.5a139.002 139.002 0 0 1-139-139 139 139 0 1 1 278 0c2.56 80.27-61.25 140.33-139 139Z" fill="#FFB45A"/><path d="M136.44 134c26.548 0 48.07-21.522 48.07-48.07 0-26.548-21.522-48.07-48.07-48.07-26.548 0-48.07 21.522-48.07 48.07 0 26.548 21.522 48.07 48.07 48.07Z" fill="#F7929A"/><path d="M136.44 136.64a50.718 50.718 0 0 1-49.745-60.619A50.72 50.72 0 0 1 187.16 85.93a50.767 50.767 0 0 1-50.72 50.71Zm0-96.14a45.432 45.432 0 0 0-44.557 54.293 45.435 45.435 0 0 0 35.694 35.694A45.432 45.432 0 0 0 181.87 85.93a45.479 45.479 0 0 0-45.43-45.43Z" fill="#EA596A"/><path d="m136.26 71.54-8.42-11.23a9.502 9.502 0 0 1-1.42-8.64l4.17-12.74 5 1.64-4.18 12.75a4.209 4.209 0 0 0 .63 3.82l8.42 11.23-4.2 3.17ZM122.1 86.15l-8.67-9.1a8.918 8.918 0 0 1-1.48-10.2l2.62-5.11a3.585 3.585 0 0 0-.06-3.37l-6.45-11.55 4.62-2.58 6.45 11.55a8.872 8.872 0 0 1 .15 8.36l-2.62 5.11a3.616 3.616 0 0 0 .6 4.14l8.67 9.1-3.83 3.65ZM106.12 95.18h-5.28V81.94a4.909 4.909 0 0 0-3-4.5l-6.9-3 2.11-4.85 6.9 3a10.189 10.189 0 0 1 6.12 9.35l.05 13.24Z" fill="#EA596A"/><path d="M193.49 115.06c-1.25-13.94 29.89-35.73 40.14-23.83 10.25 11.9-12.63 32.14-12.63 32.14s14.07-9.38 19-.89-16.76 20.95-16.76 20.95 18-6.55 19.33 5c1.77 15.68-38.43 17.55-47.69-4.64l-1.39-28.73Z" fill="#F5FCFF"/><path d="M217.55 89.15S201.2 102 222 159.3l-16.28 2.6L201 99.54l16.55-10.39Z" fill="#BECACE"/><path d="M224.12 162.59c-11.89 0-26.1-5.2-31.42-17.94l-.16-.38-1.36-29.06c-.85-10 11.5-22.19 23.59-27.3 8.88-3.76 16.39-3.09 20.62 1.82 7.21 8.37.87 19.66-5.21 27.21 1.928-.41 3.922-.41 5.85 0a9.062 9.062 0 0 1 3.435 1.579 9.067 9.067 0 0 1 2.495 2.841 7.85 7.85 0 0 1 .73 6.18c-1.13 4.23-5.27 8.46-9.34 11.75a13.87 13.87 0 0 1 7.22 1.77 9.246 9.246 0 0 1 4.26 7.12c.7 6.26-3.79 11.28-12 13.42a35.002 35.002 0 0 1-8.71.99Zm-27-19.36c5.81 13.18 24 16.57 34.5 13.85 2.79-.73 9.21-3 8.6-8.42a4.597 4.597 0 0 0-2.09-3.7c-3.73-2.32-11.48-.32-14.15.64l-1.94-4.18c4-2.29 14.66-9.48 16.17-15.12a3.355 3.355 0 0 0-.26-2.66 4.375 4.375 0 0 0-3-2.23c-4.18-1-10.62 2.47-12.75 3.89l-2.81-3.66c.21-.19 21-19 12.45-28.9-4-4.66-12-2-15.31-.57-11.3 4.78-21.39 15.8-20.77 22.68v.1l1.36 28.28Z" fill="#1A1A1A"/><path d="M92.16 115.06c1.26-13.94-29.88-35.73-40.14-23.83-10.26 11.9 12.68 32.14 12.68 32.14s-14.07-9.38-19-.89 16.76 20.95 16.76 20.95-18-6.55-19.32 5c-1.77 15.68 38.42 17.55 47.69-4.64l1.33-28.73Z" fill="#F5FCFF"/><path d="m62.35 143.37.08.06a.648.648 0 0 0-.2-.07l.12.01Z" fill="#F5FCFF"/><path d="M67.64 89.15s7.15 9.15 6.32 27.5c-.49 10.82-2.14 43.65-26.67 40l32.19 5.26 4.69-62.36-16.53-10.4Z" fill="#BECACE"/><path d="M61.54 162.59a35.15 35.15 0 0 1-8.68-1c-8.24-2.14-12.74-7.16-12-13.42a9.245 9.245 0 0 1 4.26-7.12 13.87 13.87 0 0 1 7.22-1.77c-4.07-3.29-8.21-7.52-9.34-11.75a7.85 7.85 0 0 1 .72-6.18 9.117 9.117 0 0 1 5.93-4.42c1.928-.41 3.922-.41 5.85 0-6.07-7.55-12.41-18.84-5.2-27.21 4.23-4.91 11.74-5.58 20.62-1.82 12.09 5.11 24.44 17.3 23.58 27.3l-1.36 29.06-.16.38c-5.34 12.75-19.55 17.95-31.44 17.95Zm-9.18-18.71a9.301 9.301 0 0 0-4.84 1.08 4.575 4.575 0 0 0-2.09 3.7c-.62 5.42 5.81 7.69 8.59 8.42 10.5 2.72 28.7-.67 34.51-13.85l1.33-28.38c.62-6.88-9.48-17.9-20.78-22.68-3.26-1.38-11.29-4.09-15.3.57-8.51 9.89 12.24 28.71 12.45 28.9l-2.82 3.66c-2.12-1.41-8.56-4.87-12.75-3.89a4.341 4.341 0 0 0-3 2.23 3.271 3.271 0 0 0-.26 2.66c1.51 5.64 12.18 12.83 16.17 15.12l-1.95 4.18a31.042 31.042 0 0 0-9.26-1.72Z" fill="#1A1A1A"/><path d="M140.75 34.23c-2.26 15.07-7.51 53.41-58.13 50.65 0 0-6.64 61.94-17.13 95.08-10.49 33.14-9.81 50.29 7.29 51 17.1.71 22.23-17 38.91-17.45 16.68-.45 11.42 17.45 28.33 16.23 16.91-1.22 22.78-11.2 35.37-13 12.59-1.8 18.33 22.26 37.61 12.17 13.55-7.07-5.63-138.55-25.43-172.26-14.34-24.4-46.82-22.42-46.82-22.42Z" fill="#F5FCFF"/><path d="M121.24 216.34c-2.17-1.8-5.07-3-9.55-2.86-16.68.49-21.8 18.12-38.91 17.45-6.74-.27-10.92-3.09-12.88-8.44a16.473 16.473 0 0 0 8.31 2.2c17.1.63 22.23-15.76 38.91-16.22 8.39-.23 11.23 3.88 14.12 7.87ZM213 228.91c-19.26 10-25-14.07-37.6-12.23-12.6 1.84-18.45 11.82-35.36 13-9.25.66-11.86-4.41-15.07-9.06 2.28 2 5.37 3.25 10.5 2.92 16.91-1.14 22.78-10.41 35.36-12.12 12.58-1.71 15.23 18.53 34.5 9.2 13.55-6.57-5.38-123.64-22.32-158-9.56-19.37-34.86-20.62-43.49-20.85.56-2.88.93-5.48 1.25-7.61 0 0 32.48-2 46.81 22.42 19.78 33.78 38.96 165.26 25.42 172.33Z" fill="#BECACE"/><path d="M125 220.65a24.568 24.568 0 0 1-3.71-4.31 20.587 20.587 0 0 1 3.71 4.31Z" fill="#F5FCFF"/><path d="M184.71 97c.56 9-2.27 17.34-8.29 17.71-6.02.37-9.85-7.54-10.41-16.56" fill="#B2B6BF"/><path d="M176.563 110.833c4.977-.306 8.607-7.15 8.106-15.287-.5-8.136-4.941-14.484-9.919-14.177-4.978.306-8.607 7.15-8.107 15.286.501 8.137 4.942 14.484 9.92 14.178Z" fill="#1F2426"/><path d="M176.17 112.19c-2.73 0-5.33-1.58-7.37-4.5a21.608 21.608 0 0 1-3.51-10.93c-.55-9 3.55-16.33 9.34-16.68 5.79-.35 10.76 6.41 11.32 15.41.56 9-3.55 16.33-9.35 16.69l-.43.01Zm-1.12-29.48h-.26c-4.16.26-7.31 6.62-6.86 13.89a19 19 0 0 0 3 9.58c1.6 2.29 3.55 3.47 5.47 3.36 4.17-.26 7.31-6.61 6.87-13.88-.4-7.12-4.15-12.95-8.22-12.95Z" fill="#141616"/><path d="M159 97c.56 9-2.27 17.34-8.29 17.71-6.02.37-9.85-7.54-10.41-16.56" fill="#B2B6BF"/><path d="M150.891 110.83c4.978-.307 8.607-7.151 8.107-15.287-.501-8.136-4.942-14.484-9.919-14.178-4.978.306-8.608 7.15-8.107 15.287.5 8.136 4.941 14.484 9.919 14.178Z" fill="#1F2426"/><path d="M150.49 112.19c-2.73 0-5.33-1.58-7.37-4.5a21.504 21.504 0 0 1-3.51-10.93c-.56-9 3.55-16.33 9.34-16.68 5.79-.35 10.76 6.41 11.32 15.41.55 9-3.56 16.33-9.35 16.69l-.43.01Zm-1.12-29.48h-.26c-4.17.26-7.31 6.62-6.86 13.89a18.819 18.819 0 0 0 3 9.58c1.6 2.29 3.55 3.47 5.47 3.36 4.17-.26 7.31-6.61 6.87-13.88-.44-7.27-4.15-12.95-8.22-12.95Z" fill="#141616"/><path d="M117.06 136.55c5.38-2.1 6.77-12.26 17.69-8.08 9.31 3.56 6 29.67-17.69 36.47 0 0-36.27-15.28-22-32.84 8.3-10.28 17.94 6.04 22 4.45Z" fill="#F44A4A"/><path d="m111.305 153.865-11.156 10.309 2.246 2.431 11.156-10.309-2.246-2.431ZM128.052 143.312l-.509 3.271 15.01 2.334.508-3.271-15.009-2.334ZM102.927 147.701 91.771 158.01l2.246 2.431 11.156-10.309-2.246-2.431Z" fill="#0D0E0F"/><path d="M204.07 233.69c-7.21 0-12.39-4.66-16.81-8.62-4-3.6-7.46-6.7-11.54-6.1-5.15.75-9.21 3-13.51 5.49-5.66 3.21-12.08 6.85-22 7.56s-13.51-4.67-16.43-9c-2.8-4.15-5-7.42-12-7.23-7.33.22-12.25 4.14-17.46 8.29-5.88 4.69-12 9.54-21.61 9.16-5.92-.24-10.31-2.33-13-6.22-5.47-7.79-4.35-22.51 3.64-47.76 10.29-32.53 17-94 17-94.62l.24-2.19 2.19.12c48 2.64 53.37-33 55.65-48.24l.34-2.29 1.87-.12c1.39-.09 34.07-1.77 48.95 23.56 18.76 31.94 35.75 144.18 28.53 169.31-.92 3.22-2.24 5.23-4 6.17a21.504 21.504 0 0 1-10.05 2.73Zm-27.29-19.43c5.37 0 9.53 3.74 13.57 7.36 6 5.36 11.61 10.42 21.57 5.24.09-.05.92-.56 1.73-3.35 3.23-11.25 1.32-43.67-4.75-80.66-6.37-38.78-15.31-71.37-23.33-85-11.52-19.6-35.91-21.24-42.82-21.3-2.42 15.79-9.46 52.38-58.07 50.77-1.29 11.28-7.65 63.89-17 93.37-7.3 23.09-8.7 37.38-4.27 43.7 1.89 2.69 5 4.08 9.44 4.25 7.94.31 13.09-3.79 18.54-8.15 5.45-4.36 11.34-9 20.21-9.3 9.52-.3 13.11 5 16 9.28 2.89 4.28 5.06 7.48 12.26 7 8.89-.63 14.57-3.85 20.07-7 4.48-2.54 9.12-5.17 15.12-6 .57-.114 1.149-.184 1.73-.21Z" fill="#191B1C"/></svg>