<svg width="278" height="278" fill="none" xmlns="http://www.w3.org/2000/svg"><mask id="a" style="mask-type:alpha" maskUnits="userSpaceOnUse" x="0" y="0" width="278" height="278"><circle cx="139" cy="139" r="139" fill="#2E00FF"/></mask><g mask="url(#a)"><path d="M138.65 0h-.01C61.878 0-.35 62.228-.35 138.99v.01c0 76.762 62.228 138.99 138.99 138.99h.01c76.762 0 138.99-62.228 138.99-138.99v-.01C277.64 62.228 215.412 0 138.65 0Z" fill="#F4F47A"/><path d="M112.4 82.31c.15-.61-22.85-29.81-33.59-38.68-7.56-6.23-16.61-3.42-20.15 5.71-6.86 17.7-13.62 72.54-12.29 74.65 0 0-19.21 36.83-17.37 46.7 1.84 9.87 4.43 56.54 104.81 61.36s122.65-54.27 120.6-67.78c-2.05-13.51-21.58-37.26-21.58-37.26s16.43-70.13 1.88-83.34c-14.55-13.21-61 41.1-61 41.1s-11.13-12.14-28.14-12.13c-17.01.01-33.17 9.67-33.17 9.67Z" fill="#fff"/><path d="M213.89 102.37c-16.43-12.29-25.29-6.86-27.85-10-2.56-3.14 31.07-39.72 38.09-34.84 2.8 1.94 1.48 14.37.46 23.31-2.17 19.11-10.7 21.53-10.7 21.53ZM60.7 113.54c16.83-17.18 33.7-20.82 33.7-20.82a188.857 188.857 0 0 0-12.18-25.48c-5.32-9-9.85-17.34-13.56-16.55-3.71.79-15.61 57.29-7.96 62.85ZM250.39 181.23c-10.11 22.09-41.47 54.39-116.72 50.78-77.5-3.72-96.7-32.38-102.28-49.8 19.4 26.67 72.28 43.22 109.18 41.53 36.9-1.69 96.35-14.29 109.82-42.51Z" fill="#DBDBDB"/><path d="M249.45 151.48c-1.25-2.14-2.57-4.22-3.93-6.29-1.36-2.07-2.77-4.09-4.23-6.08-1.46-1.99-2.94-4-4.46-5.91-1.52-1.91-3.07-3.87-4.65-5.74l-.23-.27.08-.38c2.7-13.26 4.91-26.65 6.28-40.09.712-6.7 1.046-13.433 1-20.17a80.425 80.425 0 0 0-.74-10 28.413 28.413 0 0 0-2.74-9.27 12.16 12.16 0 0 0-1.29-1.9c-.23-.3-.51-.53-.76-.8a6.545 6.545 0 0 0-.85-.65 7.499 7.499 0 0 0-4.13-1.14 22.311 22.311 0 0 0-9.18 2.64 70.734 70.734 0 0 0-8.56 5.16c-2.76 1.91-5.44 4-8 6.1-5.23 4.26-10.23 8.84-15.13 13.52s-9.62 9.55-14.27 14.51c4.27-5.29 8.82-10.34 13.48-15.29a204.82 204.82 0 0 1 7.18-7.26c2.46-2.36 4.95-4.69 7.54-6.92 2.59-2.23 5.24-4.38 8-6.4a65.196 65.196 0 0 1 8.76-5.5 33.607 33.607 0 0 1 4.85-2.06 18.572 18.572 0 0 1 5.35-1 9.72 9.72 0 0 1 5.54 1.5c.415.267.809.565 1.18.89.35.316.684.65 1 1a13.59 13.59 0 0 1 1.58 2.3 30.98 30.98 0 0 1 3.09 10.13c.497 3.418.751 6.866.76 10.32.032 6.84-.359 13.677-1.17 20.47-.79 6.77-1.78 13.51-3 20.2-1.22 6.69-2.61 13.35-4.25 20l-.15-.64c3.07 3.92 5.91 8 8.64 12.13 1.36 2.07 2.67 4.18 3.94 6.31s2.36 4.37 3.47 6.58ZM146.7 232.3c2.333-.207 4.667-.403 7-.59l3.48-.26 3.46-.42 3.46-.39 1.73-.19.87-.1.85-.14 6.87-1.1c1.15-.16 2.27-.41 3.4-.66l3.4-.71c1.13-.24 2.27-.43 3.39-.72l3.35-.9 3.35-.87c.56-.13 1.11-.31 1.65-.49l1.65-.53 3.29-1.07c.55-.18 1.1-.33 1.64-.54l1.61-.64a108.282 108.282 0 0 0 12.64-5.53c2-1.08 4.11-2.08 6-3.34l2.95-1.8c1-.62 1.89-1.3 2.85-1.95a83.77 83.77 0 0 0 19.87-19.19 69.623 69.623 0 0 1-8.23 11.36 77.667 77.667 0 0 1-10.43 9.49c-.94.71-1.86 1.45-2.82 2.13l-3 1.93c-1.94 1.34-4 2.42-6.09 3.59a104.633 104.633 0 0 1-12.88 5.79l-1.65.63c-.55.22-1.12.36-1.68.55l-3.34 1.05-1.68.53c-.558.19-1.125.351-1.7.48l-3.42.84-3.43.82c-1.15.26-2.31.43-3.46.65l-3.47.62c-1.15.19-2.31.4-3.48.51l-7 .78-.87.09-.88.05-1.75.09-3.51.17-3.5.15h-3.51c-2.34-.1-4.65-.1-6.98-.17ZM46.64 205.37c2.56 1.88 5.14 3.69 7.83 5.31 2.69 1.62 5.44 3.12 8.26 4.47l2.12 1 2.15.94c.72.31 1.43.64 2.15.94l2.19.85c1.44.59 2.92 1.12 4.39 1.64 1.47.52 3 1 4.46 1.49.74.24 1.48.5 2.23.72l2.26.66 2.25.66 2.28.59c3 .87 6.1 1.52 9.15 2.27 6.14 1.39 12.35 2.53 18.57 3.8a141.999 141.999 0 0 1-19-1.77c-3.14-.52-6.27-1.13-9.37-1.87-.78-.17-1.55-.36-2.32-.55l-2.31-.64-2.31-.64c-.76-.22-1.52-.48-2.28-.72-1.52-.5-3-1-4.53-1.57-1.53-.57-3-1.09-4.46-1.76l-2.2-1c-.73-.33-1.44-.69-2.16-1-.72-.31-1.44-.69-2.15-1.06l-2.1-1.17c-1.41-.75-2.76-1.62-4.11-2.47-.68-.41-1.32-.91-2-1.36-.68-.45-1.32-.89-1.94-1.39a58.28 58.28 0 0 1-7.05-6.37ZM112.4 82.14a4.521 4.521 0 0 0-.62-1l-.72-1c-.48-.62-1-1.24-1.48-1.86l-3-3.66c-2-2.433-4.057-4.84-6.17-7.22-4.19-4.75-8.38-9.49-12.76-14-2.19-2.27-4.41-4.52-6.73-6.61a35.272 35.272 0 0 0-3.58-2.88A14.851 14.851 0 0 0 73.39 42a9.999 9.999 0 0 0-8.2 1 14.5 14.5 0 0 0-5.39 6.7 68.326 68.326 0 0 0-2.88 8.85c-.8 3-1.5 6.1-2.15 9.18-1.33 6.21-2.43 12.43-3.43 18.64-1 6.21-1.93 12.49-2.7 18.75-.38 3.14-.75 6.28-1 9.41-.15 1.57-.28 3.14-.37 4.7-.05.78-.08 1.56-.09 2.33-.025.728.008 1.457.1 2.18l.06.35-.15.28a360.23 360.23 0 0 0-4.62 8.71c-1.5 2.93-3 5.88-4.4 8.84-1.4 2.96-2.8 6-4.11 9-1.31 3-2.54 6.08-3.66 9.18.92-3.173 1.957-6.307 3.11-9.4 1.16-3.1 2.4-6.16 3.68-9.21 1.28-3.05 2.63-6.06 4-9 1.37-2.94 2.83-6 4.34-8.92l-.09.62a14.634 14.634 0 0 1-.2-2.56v-2.41c.05-1.61.14-3.2.25-4.79.21-3.17.5-6.34.84-9.5.69-6.31 1.49-12.62 2.47-18.89.98-6.27 2.07-12.54 3.39-18.77.67-3.11 1.39-6.22 2.23-9.3a71.677 71.677 0 0 1 3.05-9.19 16.51 16.51 0 0 1 6.47-7.76 12.06 12.06 0 0 1 5-1.66 12.63 12.63 0 0 1 5.16.53c1.62.521 3.15 1.294 4.53 2.29a36.108 36.108 0 0 1 3.73 3.16c2.33 2.22 4.52 4.54 6.66 6.89a303.6 303.6 0 0 1 12.25 14.59c2 2.49 3.9 5 5.81 7.53 1 1.27 1.9 2.53 2.82 3.83.45.65.91 1.3 1.35 2l.66 1c.202.299.367.621.49.96Z" fill="#000"/><path d="M100.12 92.14c-9.55.27-26.31 6.88-34 14.08-7.69 7.2.4-43.75 7-45.47 6.6-1.72 27 31.39 27 31.39Z" fill="#FC8383"/><path d="M73.98 100.63c-10.48 3.3-6.34-35.23 1.64-39.3l-1.88-.76-2.82 2.27a87.315 87.315 0 0 0-4.81 14.08c-1.25 6-3.27 17.58-3.16 22 .11 4.42-.11 6.56 1.07 7.61 1.18 1.05 1.87-.23 2.73-.95a26.904 26.904 0 0 1 7.23-4.95Z" fill="#D86C6C"/><path d="m100.34 92.26-1.06.23c-.37.09-.81.15-1.15.21l-2 .4-1.95.48-1.93.55c-2.56.793-5.08 1.69-7.56 2.69a84.571 84.571 0 0 0-14.2 7.29c-.56.35-1.09.74-1.63 1.11-.54.37-1.06.79-1.57 1.19l-.82.64a3.174 3.174 0 0 1-1.23.65 3.114 3.114 0 0 1-.44.07l-.48-.06a2.291 2.291 0 0 1-.45-.19 2.338 2.338 0 0 1-.35-.27 3.226 3.226 0 0 1-.71-1.17 8.778 8.778 0 0 1-.41-2.18c-.06-.7-.08-1.4-.07-2.09 0-1.38.08-2.75.18-4.11.2-2.72.54-5.42.81-8.13.27-2.71.61-5.41 1.05-8.1a77.47 77.47 0 0 1 3.86-16 19.773 19.773 0 0 1 1.92-3.89 5.8 5.8 0 0 1 1.87-1.86 3.3 3.3 0 0 1 1.64-.39c.474.018.942.106 1.39.26a12.41 12.41 0 0 1 3.88 2.4 36.578 36.578 0 0 1 3 2.93 106.372 106.372 0 0 1 10 13.06c1.507 2.267 2.96 4.57 4.36 6.91.7 1.16 1.38 2.34 2 3.52l1 1.78.49.9.23.45.12.23.06.11a.49.49 0 0 1 .15.38Zm-.45-.24c-.08 0-.06.18-.06.15l-.08-.11-.15-.2-.3-.41-.6-.82-1.2-1.64-2.42-3.27c-1.61-2.17-3.23-4.34-4.87-6.49-3.2-4.302-6.62-8.434-10.25-12.38-.91-1-1.84-1.89-2.81-2.73a11.16 11.16 0 0 0-2.95-1.94 1.71 1.71 0 0 0-.59-.14.52.52 0 0 0-.31 0 3.24 3.24 0 0 0-1 1 18.5 18.5 0 0 0-1.77 3.34c-1 2.42-1.83 5-2.62 7.54s-1.5 5.17-2.11 7.8c-.61 2.63-1.18 5.27-1.6 7.94a59.093 59.093 0 0 0-.76 8.06c0 1.34 0 2.69.08 4 .05.66.14 1.32.25 1.95.089.613.257 1.211.5 1.78.082.203.204.386.36.54.12.06 0 0 .16 0 .19-.097.363-.225.51-.38l.73-.68a17.158 17.158 0 0 1 1.57-1.39c.54-.43 1.06-.91 1.64-1.29A45.023 45.023 0 0 1 76.35 98a66.446 66.446 0 0 1 7.6-3.2 60.625 60.625 0 0 1 7.94-2.2l2-.37 2-.26c.68-.07 1.37-.1 2.06-.14.293-.03.587-.03.88 0l1.06.19Z" fill="#000"/><path d="M191.4 90.46c7.62-2 26.13 12.24 27.27 19.42 1.14 7.18 10.94-34.56 2.59-43.86-8.35-9.3-29.86 24.44-29.86 24.44Z" fill="#EA7373"/><path d="M201.43 92.92c-3.52-4.26 9.78-27.3 19.3-27.41l-4.51-1.06-7.36 4.29s-12.31 12.63-14.52 17.34l-3 4.38a5.442 5.442 0 0 1 2.2-.17 21.622 21.622 0 0 1 7.89 2.63Z" fill="#C65C5C"/><path d="M142.47 163.67c1.75-.63-2.5-5.83-4-9.58-2.19-5.66 15.38-6.83 14.5-.91-.57 3.82-5.49 9.27-3.64 10.6l-3.27-2.41-3.59 2.3Z" fill="#DBDBDB"/><path d="M191.67 90.26c.105-.077.206-.16.3-.25a.342.342 0 0 1 .11-.07h.24c.33-.061.664-.095 1-.1h1.02c.336.012.67.05 1 .11 1.323.217 2.619.568 3.87 1.05a31.258 31.258 0 0 1 3.64 1.63c1.18.61 2.32 1.27 3.43 2a48.19 48.19 0 0 1 6.3 4.82c.992.89 1.933 1.835 2.82 2.83a25.28 25.28 0 0 1 2.45 3.22 11.33 11.33 0 0 1 1.69 3.87V109.85c.003.05.003.1 0 .15a.283.283 0 0 0-.07-.08h-.08a.692.692 0 0 0-.19-.1.82.82 0 0 0-.21 0h-.16a.804.804 0 0 0-.13.06c-.08.08 0 0 .09-.1a9.614 9.614 0 0 0 .79-1.57 51.528 51.528 0 0 0 2.24-7.34 61.812 61.812 0 0 0 1.33-7.63c.29-2.56.42-5.14.5-7.71.08-2.559.01-5.12-.21-7.67a36.104 36.104 0 0 0-1.28-7.36c-.72-2.26-2-4.47-3.82-4.7a5.87 5.87 0 0 0-3 .49 17.183 17.183 0 0 0-3 1.78 43.555 43.555 0 0 0-5.69 4.9c-1.8 1.79-3.53 3.68-5.22 5.61-1.69 1.93-3.32 3.93-4.94 5.94l-2.4 3-1.19 1.54-.59.77-.29.39-.15.19-.07.1a.206.206 0 0 0 0-.13.223.223 0 0 0-.13-.12Zm-.53.39a.585.585 0 0 1 0-.25.637.637 0 0 1 .09-.23v-.11l.12-.21.24-.43.49-.84 1-1.68c.68-1.11 1.36-2.22 2.08-3.3 1.43-2.18 2.93-4.32 4.52-6.39 1.59-2.07 3.26-4.11 5.06-6a41.849 41.849 0 0 1 5.94-5.37 17.751 17.751 0 0 1 3.65-2.06 8 8 0 0 1 4.58-.58 5.76 5.76 0 0 1 2.28 1 7.454 7.454 0 0 1 1.62 1.71 13.646 13.646 0 0 1 1.76 3.91c1.46 5.33 1 10.65.57 15.83-.26 2.6-.67 5.18-1.09 7.74-.42 2.56-.82 5.13-1.29 7.69-.23 1.28-.47 2.56-.74 3.84-.27 1.28-.56 2.56-1 3.84a11.13 11.13 0 0 1-.78 2 2.221 2.221 0 0 1-.54.63l-.14.09a.83.83 0 0 1-.24.09.912.912 0 0 1-.61 0 1.355 1.355 0 0 1-.3-.13l-.17-.14-.15-.16-.07-.12-.12-.23-.07-.18a2.58 2.58 0 0 1-.09-.32c0-.09-.05-.22-.07-.28l-.06-.19a10.019 10.019 0 0 0-1.61-3.09 39.145 39.145 0 0 0-5-5.53c-.93-.86-1.89-1.69-2.88-2.48s-2-1.57-3-2.3a46.602 46.602 0 0 0-6.5-3.9 21.644 21.644 0 0 0-3.5-1.36 8.481 8.481 0 0 0-.9-.22l-.45-.09-.46-.06a7.013 7.013 0 0 0-.91 0h-.61a5.17 5.17 0 0 1-.65-.14Z" fill="#000"/><path d="M144.73 160.1a23.178 23.178 0 0 1-4.39-6.33 1.631 1.631 0 0 1-.001-1.445 1.642 1.642 0 0 1 1.141-.885 18.28 18.28 0 0 1 8.65-.46 1.646 1.646 0 0 1 1.242.804 1.646 1.646 0 0 1 .098 1.476 22.656 22.656 0 0 1-4.26 6.78 1.685 1.685 0 0 1-2.48.06Z" fill="#EF6C6C"/><path d="M145.96 161.94a3.18 3.18 0 0 1-2.09-.84 24.13 24.13 0 0 1-4.74-6.79 2.928 2.928 0 0 1-.07-2.37 3.258 3.258 0 0 1 2-1.74 19.44 19.44 0 0 1 9.46-.49 3.264 3.264 0 0 1 2.12 1.58 2.933 2.933 0 0 1 .11 2.4 23.56 23.56 0 0 1-4.59 7.3 3.083 3.083 0 0 1-2.2.95Zm1.07-10a16.798 16.798 0 0 0-5.09.7.792.792 0 0 0-.44.29.387.387 0 0 0 .05.27 21.976 21.976 0 0 0 4 5.86c.31.27.44.23.69 0a21.553 21.553 0 0 0 3.93-6.27.484.484 0 0 0 0-.31.855.855 0 0 0-.48-.25 10.712 10.712 0 0 0-2.66-.25v-.04Z" fill="#000"/><path d="M127.51 160.99c.53 4.09 3.08 7.49 6.34 8.17a8.63 8.63 0 0 0 1.89.17 11.485 11.485 0 0 0 5.78-1.6l4.23-2.49 3.41 2.44a12.316 12.316 0 0 0 6.2 2.36 9.695 9.695 0 0 0 4.21-.55c4.33-1.65 4.22-8.41 4.22-8.41s-1.35 5-4.15 5.94a9.627 9.627 0 0 1-9.12-1.61 57.047 57.047 0 0 1-4.47-4.45s-4.52 4.3-6.84 4.91c-2.32.61-5.65 1.4-7.58.31a6.824 6.824 0 0 1-3.2-3.41 9.933 9.933 0 0 0-.92-1.78ZM138.72 178.11a29.479 29.479 0 0 0 3.25 3 8.132 8.132 0 0 0 3.24 1.53 7.004 7.004 0 0 0 3.48-.13 16.074 16.074 0 0 0 3.92-1.85 6.557 6.557 0 0 1-2.75 4.18 6.869 6.869 0 0 1-5.34 1 7.365 7.365 0 0 1-4.45-3 7.518 7.518 0 0 1-1.35-4.73Z" fill="#DBDBDB"/><path d="M129.34 153.27a8.722 8.722 0 0 0-1.26 7 7.13 7.13 0 0 0 4.3 5.17 6.832 6.832 0 0 0 3.33.26c1.137-.2 2.237-.575 3.26-1.11a23.196 23.196 0 0 0 5.61-4.35l1.81 1.94a25.995 25.995 0 0 1-6.6 4.22 13.022 13.022 0 0 1-3.91.94 8.273 8.273 0 0 1-4-.68 7.522 7.522 0 0 1-3-2.62 8.931 8.931 0 0 1-1.4-3.64 9.065 9.065 0 0 1 .171-3.763 9.062 9.062 0 0 1 1.689-3.367Z" fill="#000"/><path d="M162.77 154.87a9 9 0 0 1 .86 7.36 8.758 8.758 0 0 1-1.9 3.4 7.359 7.359 0 0 1-3.38 2.16 8.25 8.25 0 0 1-4.07.1 12.881 12.881 0 0 1-3.73-1.49 25.845 25.845 0 0 1-5.93-5.12l2.06-1.66a23.754 23.754 0 0 0 4.94 5.11 11.007 11.007 0 0 0 3.07 1.56 6.732 6.732 0 0 0 3.33.22 7.115 7.115 0 0 0 5-4.5 8.734 8.734 0 0 0-.25-7.14ZM138.71 177.85c.968.957 2.078 1.76 3.29 2.38 1.106.548 2.29.923 3.51 1.11 1.22.204 2.463.227 3.69.07a10.998 10.998 0 0 0 3.84-1.22 5.802 5.802 0 0 1-3.25 3.22 8.522 8.522 0 0 1-4.71.54 8.257 8.257 0 0 1-4.29-2 6.16 6.16 0 0 1-2.08-4.1Z" fill="#000"/><path d="M89.448 190.603c1.607-4.75-5.322-11.386-15.477-14.821-10.154-3.435-19.689-2.369-21.296 2.381-1.607 4.751 5.322 11.386 15.477 14.822 10.154 3.435 19.689 2.369 21.296-2.382Z" fill="#D64C4C"/><path d="M214.591 190.204c9.75-5.109 15.716-12.947 13.326-17.506-2.389-4.559-12.23-4.113-21.979.997-9.749 5.109-15.715 12.948-13.325 17.507 2.389 4.559 12.229 4.112 21.978-.998Z" fill="#70A0E5"/><path d="m52.2 166.31-2.35.51c-.77.2-1.54.43-2.31.64-1.54.41-3.05.94-4.57 1.41l-4.55 1.5c-1.5.54-3 1-4.53 1.56l-18.05 6.44c-6 2.14-12 4.33-18 6.51l-2.25.82c-.75.28-1.49.58-2.24.85-1.5.54-3 1.1-4.48 1.7l-2.24.85c-.74.3-1.47.62-2.22.91-1.5.57-2.92 1.28-4.41 1.91a47.467 47.467 0 0 1 4-2.72c.69-.43 1.39-.84 2.08-1.26l2.12-1.16c1.41-.78 2.86-1.5 4.3-2.22 1.44-.72 2.9-1.4 4.36-2.07a224.13 224.13 0 0 1 17.89-7.23c6.06-2.16 12.18-4.12 18.42-5.75 1.56-.39 3.11-.81 4.68-1.17 1.57-.36 3.15-.69 4.74-1l2.39-.4c.79-.13 1.59-.27 2.4-.33.81-.06 1.61-.19 2.41-.25s1.61-.06 2.41-.05ZM53.18 183.25l-2.25.82-2.18 1c-1.45.64-2.87 1.37-4.3 2l-4.26 2.14c-1.41.74-2.84 1.44-4.25 2.17L19 200.17l-16.92 8.81-4.21 2.24c-1.4.75-2.83 1.46-4.2 2.25s-2.81 1.51-4.17 2.33c-.68.4-1.4.77-2.06 1.21l-2 1.3c.55-.57 1.13-1.13 1.71-1.7.58-.57 1.22-1 1.84-1.56 1.22-1.06 2.53-2 3.82-2.95a147.818 147.818 0 0 1 8-5.35c5.42-3.41 11-6.57 16.68-9.51 5.68-2.94 11.46-5.71 17.37-8.19 1.49-.6 3-1.23 4.46-1.81l4.52-1.66 2.3-.73c.77-.25 1.52-.51 2.31-.69l2.35-.59c.79-.09 1.59-.2 2.38-.32ZM61.25 200.93c-4.11 4-8.41 7.71-12.79 11.35-4.38 3.64-8.83 7.17-13.35 10.62-4.52 3.45-9.11 6.81-13.79 10-4.68 3.19-9.42 6.41-14.36 9.31 4.11-4 8.42-7.72 12.8-11.36 4.38-3.64 8.82-7.17 13.35-10.62 4.53-3.45 9.11-6.8 13.79-10s9.44-6.4 14.35-9.3ZM230.89 170.13a21.342 21.342 0 0 1 5.12.11 44.46 44.46 0 0 1 5 .95 68.924 68.924 0 0 1 9.64 3.19 69.677 69.677 0 0 1 9.08 4.51 44.233 44.233 0 0 1 4.23 2.86c.67.54 1.34 1.07 2 1.68a8.486 8.486 0 0 1 1.63 2 12.018 12.018 0 0 0-2.16-1.26c-.74-.36-1.49-.72-2.26-1a178.26 178.26 0 0 0-4.57-1.93l-9.17-3.78-9.18-3.77c-3.09-1.27-6.12-2.55-9.36-3.56ZM224.09 184.37c.66.37 1.31.71 2 1 .69.29 1.35.63 2 .93l4.09 1.81c2.73 1.22 5.46 2.42 8.16 3.68a317.604 317.604 0 0 1 16.09 7.9c5.28 2.8 10.5 5.75 15.51 9.06a90.129 90.129 0 0 1 7.32 5.3c.59.48 1.16 1 1.72 1.48s1.12 1 1.65 1.57a14.495 14.495 0 0 1 2.73 3.61l-.75-.82c-.27-.26-.56-.49-.83-.74-.27-.25-.58-.47-.86-.7-.28-.23-.58-.45-.89-.66-1.21-.84-2.43-1.67-3.71-2.42-2.51-1.55-5.11-3-7.7-4.41-5.22-2.82-10.48-5.57-15.74-8.35-5.26-2.78-10.52-5.58-15.71-8.54-2.6-1.45-5.18-3-7.74-4.53-1.26-.8-2.54-1.59-3.78-2.44a28.136 28.136 0 0 1-3.56-2.73ZM218.08 192.46a134.21 134.21 0 0 1 12 10.8c3.84 3.78 7.52 7.7 11.09 11.73 3.57 4.03 7 8.16 10.27 12.46.81 1.08 1.63 2.15 2.42 3.25l2.3 3.33 1.09 1.72c.36.57.73 1.13 1 1.74l1 1.78c.28.63.57 1.24.83 1.86-.43-.53-.84-1.07-1.25-1.59l-1.31-1.52c-.87-1-1.79-2-2.68-3l-5.42-5.93a754.483 754.483 0 0 1-10.76-11.92c-3.55-4-7.07-8.05-10.51-12.17-3.44-4.12-6.81-8.26-10.07-12.54Z" fill="#000"/><path d="M193.89 192.81a4.204 4.204 0 0 1-.92-2.84 9.57 9.57 0 0 1 .54-2.95 21.722 21.722 0 0 1 2.73-5.31 29.802 29.802 0 0 1 8.66-8.3 33.351 33.351 0 0 1 17.38-4.85 14.5 14.5 0 0 1 3.16.4 7.168 7.168 0 0 1 3.07 1.55 4.918 4.918 0 0 1 1.57 3.34 8.13 8.13 0 0 1-.55 3.38 19.974 19.974 0 0 1-3.23 5.43 28.39 28.39 0 0 1-4.41 4.35 39.218 39.218 0 0 1-5.07 3.43 37.17 37.17 0 0 1-11.37 4.22c-1.993.404-4.03.545-6.06.42a11.107 11.107 0 0 1-3-.61 6.214 6.214 0 0 1-2.5-1.66Zm.2-.18a5.474 5.474 0 0 0 2.46 1.46c.932.25 1.896.361 2.86.33a18.981 18.981 0 0 0 5.68-1.13 52.723 52.723 0 0 0 10.38-5.13 39.491 39.491 0 0 0 8.82-7.18 17.54 17.54 0 0 0 3-4.59 6.011 6.011 0 0 0 .52-2.41 2.727 2.727 0 0 0-.81-1.94 5.085 5.085 0 0 0-2.14-1.14 13.083 13.083 0 0 0-2.71-.43 32.002 32.002 0 0 0-16.62 4.07 31.804 31.804 0 0 0-8.89 7.5 23.61 23.61 0 0 0-1.67 2.41c-.5.847-.922 1.737-1.26 2.66a8.78 8.78 0 0 0-.57 2.86 3.937 3.937 0 0 0 .95 2.66ZM52.42 178.47a4.092 4.092 0 0 1 1.53-2.48 9.549 9.549 0 0 1 2.54-1.45 21.132 21.132 0 0 1 5.67-1.31 29.176 29.176 0 0 1 11.62 1.22 30.082 30.082 0 0 1 10.31 5.7 31.139 31.139 0 0 1 4.25 4.22 14.265 14.265 0 0 1 1.69 2.61 6.998 6.998 0 0 1 .78 3.28 4.831 4.831 0 0 1-1.51 3.28 7.76 7.76 0 0 1-2.88 1.72c-1.961.652-4.013.99-6.08 1a32.457 32.457 0 0 1-11.76-2.18 36.12 36.12 0 0 1-10.24-5.83 23.002 23.002 0 0 1-4.11-4.26 10.713 10.713 0 0 1-1.41-2.6 6.001 6.001 0 0 1-.4-2.92Zm.26 0a5.36 5.36 0 0 0 .46 2.74 9.872 9.872 0 0 0 1.55 2.35 18.739 18.739 0 0 0 4.42 3.5 52.59 52.59 0 0 0 10.34 4.49 38.81 38.81 0 0 0 10.88 2c1.794.075 3.59-.13 5.32-.61a5.74 5.74 0 0 0 2.11-1.12 2.612 2.612 0 0 0 .93-1.8 5.001 5.001 0 0 0-.49-2.3 12.27 12.27 0 0 0-1.38-2.28 30.996 30.996 0 0 0-13.48-9.74 30.871 30.871 0 0 0-11.16-1.91c-.955.025-1.907.115-2.85.27-.942.16-1.87.401-2.77.72a8.872 8.872 0 0 0-2.48 1.38 3.88 3.88 0 0 0-1.4 2.34v-.03Z" fill="#000"/><path d="M28.86 170.65c1.07-2 5.22-6.35 6.23-6.43 1.01-.08-.15 0-.15 0s-5 1.45-6 2.45l-.11.91a19.737 19.737 0 0 0 0 2c-.04.61.03 1.07.03 1.07Z" fill="#DBDBDB"/><path d="M34.45 164.49c-.923.254-1.815.61-2.66 1.06-.87.44-1.71.9-2.55 1.39-1.66 1-3.31 2-4.91 3.08l-4.9 3.26 3.78-4.62c1-1.26 2.1-2.41 3.18-3.59a38.592 38.592 0 0 1 3.38-3.39 26.125 26.125 0 0 1 3.93-2.75 21.15 21.15 0 0 1 4.42-2l.15.22c-1.06 1.26-2.19 2.33-3.3 3.43-1.11 1.1-2.25 2.14-3.41 3.16-1.16 1.02-2.44 1.91-3.61 2.93a73.294 73.294 0 0 0-3.41 3.14l-1.12-1.35c1.76-.91 3.52-1.76 5.34-2.52.91-.38 1.83-.74 2.76-1.06a11.8 11.8 0 0 1 2.9-.68l.03.29ZM34.6 182.95a5.398 5.398 0 0 0-1.05 1.81c-.226.652-.4 1.321-.52 2-.13.7-.21 1.4-.28 2.11-.08.694-.11 1.392-.09 2.09l.23 4.83-2.42-4.42a19.279 19.279 0 0 1-1.41-3.12 11.693 11.693 0 0 1-.63-3.4 8.562 8.562 0 0 1 .53-3.55 4.63 4.63 0 0 1 2.39-2.61l.17.21a5.521 5.521 0 0 0-.87 2.81c-.017.958.08 1.915.29 2.85.21 1 .46 1.92.73 2.9.27.98.53 2 .87 2.9l-2.18.41c.17-.8.34-1.52.55-2.26.207-.735.46-1.457.76-2.16.312-.697.684-1.366 1.11-2a5.217 5.217 0 0 1 1.66-1.61l.16.21ZM38.92 192.85a8.672 8.672 0 0 0 .2 2c.146.642.326 1.277.54 1.9.2.62.44 1.24.67 1.85.228.612.506 1.204.83 1.77l-2.09-.37a5.48 5.48 0 0 1 1.09-1.24 4.663 4.663 0 0 1 1.48-.79 3.763 3.763 0 0 1 1.81-.18 2.256 2.256 0 0 1 1.53.92l-.12.24a2.998 2.998 0 0 0-1.22.48 7.379 7.379 0 0 0-.87.7c-.29.24-.56.52-.87.77-.31.25-.67.5-1 .7l-1.77 1.28-.31-1.64-.41-2.11a18.685 18.685 0 0 1-.25-2.11c-.06-.705-.06-1.415 0-2.12.04-.712.188-1.413.44-2.08l.32.03Z" fill="#000"/><path d="M254.27 168.37c.22-1.787.143-3.598-.23-5.36a10.773 10.773 0 0 0-.52-2s-3.84-1.57-5.35-1.15c0-.01 4.85 3.68 6.1 8.51Z" fill="#DBDBDB"/><path d="M244.44 150.61a39.837 39.837 0 0 1 3.7 2c1.19.75 2.35 1.54 3.47 2.41a24.428 24.428 0 0 1 3.16 3 13.157 13.157 0 0 1 2.39 3.85l1.45 3.8-3.18-2.3c-.49-.35-1.06-.72-1.6-1.07-.54-.35-1.1-.69-1.67-1a17.614 17.614 0 0 0-1.74-.88 7.018 7.018 0 0 0-1.91-.55 4.807 4.807 0 0 1 2.1-.35c.719.032 1.432.136 2.13.31a17.49 17.49 0 0 1 2 .64c.662.265 1.31.565 1.94.9l-1.73 1.49a26.981 26.981 0 0 0-5-6c-1-1-1.94-1.94-2.89-3a29.533 29.533 0 0 1-2.62-3.25ZM243.54 177.79a41.303 41.303 0 0 1 3.3 2.66 40.053 40.053 0 0 1 3 3 24.375 24.375 0 0 1 2.62 3.44 13.292 13.292 0 0 1 1.7 4.2l.8 4-2.76-2.82c-.42-.43-.91-.89-1.39-1.32-.48-.43-1-.87-1.47-1.28a17.752 17.752 0 0 0-1.57-1.16 6.964 6.964 0 0 0-1.8-.87 4.83 4.83 0 0 1 2.14 0c.687.147 1.358.364 2 .65a17.195 17.195 0 0 1 3.65 2.19l-2 1.18a27.305 27.305 0 0 0-3.89-6.72c-.78-1.11-1.59-2.24-2.35-3.41a28.433 28.433 0 0 1-1.98-3.74ZM245.51 163.24a6.913 6.913 0 0 1 4.09.91c.607.331 1.154.76 1.62 1.27.46.51.88 1.06 1.32 1.57a19.631 19.631 0 0 1 2.24 3.36 11.993 11.993 0 0 1 1.3 3.79l-.26.07a13.062 13.062 0 0 0-2.13-3.12c-.41-.47-.84-.92-1.29-1.36-.45-.44-.9-.85-1.37-1.26a15.505 15.505 0 0 0-1.51-1.06 9.621 9.621 0 0 1-1.44-1.1 21.595 21.595 0 0 1-2.67-2.83l.1-.24Z" fill="#000"/><path d="M144.62 84.12c2.21-2.43 8.71-9.85 12-9.74l-2.43-.7c-.5-.14-5 3-5 3s-5.12 5.22-4.57 7.44Z" fill="#DBDBDB"/><path d="M117.54 232.92a13.949 13.949 0 0 0 2.7-.85c.42-.19.85-.36 1.25-.59.4-.23.81-.42 1.21-.66a12.727 12.727 0 0 1 2.29-1.48 8.367 8.367 0 0 1 3-.61l.17.2a5.22 5.22 0 0 1-1.77 2.67 7.308 7.308 0 0 1-2.82 1.17c-.977.301-1.982.499-3 .59a11.65 11.65 0 0 1-3-.17l-.03-.27ZM127.93 234.37c.54-.389 1.048-.821 1.52-1.29.47-.46.89-1 1.32-1.49.43-.49.81-1 1.21-1.57.398-.52.752-1.072 1.06-1.65l1.06-2.05 1.08 2.41c.25.52.412 1.077.48 1.65a4.46 4.46 0 0 1-.18 1.73 3.909 3.909 0 0 1-.91 1.59c-.427.43-.988.702-1.59.77l-.15-.22c.156-.435.251-.889.28-1.35a6.756 6.756 0 0 0 0-1.12c0-.37-.11-.74-.14-1.12-.03-.38-.05-.83-.07-1.15l2.14.36-1.62 1.5a19.2 19.2 0 0 1-1.64 1.33c-.571.419-1.169.8-1.79 1.14a8.612 8.612 0 0 1-2 .8l-.06-.27ZM136.05 233.44c.52-.44 1-.84 1.51-1.28.24-.22.48-.43.71-.66.23-.23.47-.42.7-.65.47-.43.77-1.07 1.38-1.29.318-.139.655-.23 1-.27a3.908 3.908 0 0 1 1.24 0l.18.19a3.13 3.13 0 0 1-.24 1.26 3.484 3.484 0 0 1-.56.94c-.43.57-1.2.68-1.82 1-.631.28-1.283.511-1.95.69-.654.185-1.323.309-2 .37l-.15-.3ZM140.04 234.19a10.145 10.145 0 0 1 2.14-1.71c.77-.48 1.55-.89 2.28-1.3a7.455 7.455 0 0 0 1-.72c.137-.131.292-.242.46-.33.147-.101.304-.185.47-.25.67-.29 1.31-.53 2.36-.95l.23.12a3.252 3.252 0 0 1-1 3 4.04 4.04 0 0 1-.61.48 5.409 5.409 0 0 1-.69.3c-.47.13-.94.23-1.38.35-.89.24-1.75.39-2.59.56-.845.152-1.673.39-2.47.71l-.2-.26ZM135.53 70.08a36.861 36.861 0 0 0-5.91 3.08c-.95.58-1.88 1.18-2.8 1.81-.92.63-1.83 1.24-2.72 1.9-.89.66-1.74 1.37-2.56 2.09-.82.72-1.68 1.39-2.54 2-.86.61-1.73 1.3-2.57 2a14.682 14.682 0 0 0-2.34 2.27l-.25-.08a6.663 6.663 0 0 1 1.19-3.41 15.269 15.269 0 0 1 2.23-2.74 15.663 15.663 0 0 1 2.72-2.16c1-.61 2-1.17 3-1.75a57.794 57.794 0 0 1 6.07-3.11c1-.45 2.1-.88 3.17-1.25a20.565 20.565 0 0 1 3.29-.92l.02.27ZM127.4 87.73a8.347 8.347 0 0 1 1.29-2c.49-.63 1-1.23 1.55-1.81 1.09-1.16 2.22-2.26 3.4-3.33a66.951 66.951 0 0 1 7.48-5.9 45.575 45.575 0 0 1 8.45-4.58 24.151 24.151 0 0 1 4.74-1.37 13.683 13.683 0 0 1 5.14 0l3.42.74-3.28 1.56a41.148 41.148 0 0 0-4.17 2.41c-1.36.88-2.7 1.8-4 2.8a36.306 36.306 0 0 0-3.62 3.29 37.692 37.692 0 0 0-3.2 3.85l-.24-.11a20.004 20.004 0 0 1 5.43-8.86 24.28 24.28 0 0 1 8.9-5.63l.14 2.3a11.121 11.121 0 0 0-4.25-.26c-1.49.185-2.957.52-4.38 1a43.455 43.455 0 0 0-8.33 4 73.69 73.69 0 0 0-7.68 5.35c-1.22 1-2.41 2-3.55 3.08-.57.53-1.12 1.08-1.65 1.66a8.628 8.628 0 0 0-1.38 1.84l-.21-.03Z" fill="#000"/><path d="M163.34 86.3c-2.73 1.29-6.24 5-6.11 6.92 0 0 6.94-6.19 9.44-6.26l-3.33-.66ZM142.59 95.14c1.757-.689 3.65-.959 5.53-.79 0 0-5.35 5.35-5.76 9.29l-.68-2.49.91-6.01Z" fill="#DBDBDB"/><path d="M159.01 80.42a15.792 15.792 0 0 1 1.91-1.93 19.628 19.628 0 0 1 2.19-1.66c.774-.5 1.579-.951 2.41-1.35.85-.412 1.722-.779 2.61-1.1l1.75-.64-.61 2.57c0 .05-.1.19-.14.3a2.725 2.725 0 0 0-.14.36c-.079.243-.146.49-.2.74-.108.48-.165.969-.17 1.46.021.568.108 1.132.26 1.68.08.3.21.6.3.93.09.33.26.65.37 1l-.18.19a8.313 8.313 0 0 1-1-.5 6.171 6.171 0 0 1-.9-.74 5.12 5.12 0 0 1-1.28-2.12 4.705 4.705 0 0 1 0-2.63 4.898 4.898 0 0 1 .91-1.72c.14-.19.294-.371.46-.54l1.14 1.93c-.832.118-1.652.309-2.45.57-.81.25-1.63.53-2.43.86-.806.327-1.594.698-2.36 1.11-.769.425-1.513.892-2.23 1.4l-.22-.17ZM132.11 105.76a18.2 18.2 0 0 1 1.47-3.89 16.198 16.198 0 0 1 2.45-3.46 14.861 14.861 0 0 1 3.39-2.7 10.477 10.477 0 0 1 4.32-1.56l2.11-.18-.84 2.12c-.22.57-.51 1.17-.77 1.76l-.83 1.74c-.27.58-.54 1.16-.76 1.74a3.47 3.47 0 0 0-.33 1.78l-.21.17a1.93 1.93 0 0 1-.68-1 4.625 4.625 0 0 1-.23-1.14 9.387 9.387 0 0 1 .08-2.19c.113-.7.273-1.392.48-2.07.204-.688.469-1.358.79-2l1.27 1.94a9.328 9.328 0 0 0-1.69.16 8.349 8.349 0 0 0-1.76.56 14.003 14.003 0 0 0-3.24 2 16.115 16.115 0 0 0-2.72 2.81 21.24 21.24 0 0 0-2.05 3.45l-.25-.04ZM150.76 91.84a17.763 17.763 0 0 1 4.84-4.1 17.548 17.548 0 0 1 2.94-1.37 14.756 14.756 0 0 1 3.33-.82h.44v2.54s-.15.1-.23.17l-.3.22c-.2.16-.42.32-.62.49-.42.33-.83.7-1.25 1.1-.42.4-.83.82-1.24 1.29-.22.22-.41.47-.64.71-.23.24-.43.5-.68.75l-.25-.09a6.584 6.584 0 0 1 .15-2.08c.165-.697.42-1.37.76-2a7.71 7.71 0 0 1 1.34-1.74c.273-.26.571-.49.89-.69.163-.108.333-.205.51-.29a6.09 6.09 0 0 1 .63-.26l.44 2.49a7.064 7.064 0 0 0-1.32 0c-.477.04-.951.11-1.42.21-.964.21-1.912.484-2.84.82-.943.345-1.858.76-2.74 1.24a21.227 21.227 0 0 0-2.56 1.67l-.18-.26ZM130.58 75.68a16.712 16.712 0 0 1 2-2.07 20.385 20.385 0 0 1 2.35-1.77 19.017 19.017 0 0 1 2.63-1.43c.954-.46 1.962-.795 3-1l4.08-.65-3 3c-.28.27-.63.57-.95.85l-1 .81c-.307.252-.6.519-.88.8-.22.28-.5.46-.33 1l-.14.15a.996.996 0 0 1-.73-.62 2.05 2.05 0 0 1-.15-1c.06-.576.226-1.135.49-1.65.239-.468.52-.913.84-1.33.315-.408.674-.78 1.07-1.11l1 2.4c-.848.017-1.693.121-2.52.31a23.11 23.11 0 0 0-2.59.86 25.663 25.663 0 0 0-5 2.61l-.17-.16ZM229.24 91.53a16.27 16.27 0 0 0-12.74-6.43v-2.65a19 19 0 0 1 14.84 7.52l-2.1 1.56ZM228.34 100.07c-2.1-4.84-8.19-7.79-12.25-7.2l-.38-2.61c5-.73 12.42 2.68 15.06 8.76l-2.43 1.05ZM217.34 72.37l-1.86-1.88c3.1-3.05 6.13-7.74 5.85-10.3l2.63-.29c.51 4.27-4.09 10.04-6.62 12.47ZM80.62 77.47l-1.73-2c4-3.46 11.08-6.49 15.81-6.76l.15 2.64c-4.16.24-10.68 3.02-14.23 6.12ZM85.47 84.13l-1.74-2c4.59-4.05 10.71-6.81 15.95-7.19l.19 2.64c-4.69.36-10.21 2.86-14.4 6.55ZM82.07 104.59c-2.09-2.36-3.57-8.88-3.64-13.5h2.65c.06 4.33 1.54 10.17 3 11.78l-2.01 1.72Z" fill="#000"/><path d="m250.71 181.33-.62-.24.04-.08.62.25-.04.07Z" fill="#4D4D4D"/><path d="M125.95 140.51c0 15.91-13.19 30.2-29.46 30.2-16.27 0-29.47-14.29-29.47-30.2s13.2-28.79 29.47-28.79 29.46 12.89 29.46 28.79Z" fill="#F2B770"/><path d="M125.95 140.51c0 15.91-10.49 30.2-29.46 30.2s-29.47-14.29-29.47-30.2" fill="#DBDBDB"/><path d="M96.49 166.51c15.906 0 28.8-12.894 28.8-28.8s-12.894-28.8-28.8-28.8-28.8 12.894-28.8 28.8 12.894 28.8 28.8 28.8Z" fill="#434849"/><path d="M125.42 137.71a30.004 30.004 0 0 1-8.37 20.56 29.003 29.003 0 0 1-31.87 6.75 29.74 29.74 0 0 1-18.55-27.31 29.646 29.646 0 0 1 8.587-21.348 29.626 29.626 0 0 1 21.273-8.772c3.943.052 7.835.903 11.44 2.5a29.672 29.672 0 0 1 9.42 6.76 30.377 30.377 0 0 1 8.07 20.86Zm-.27 0-.18-2.81c-.12-.92-.3-1.84-.44-2.77-.14-.93-.5-1.8-.74-2.7-.24-.9-.67-1.74-1-2.61a28.007 28.007 0 0 0-6.44-9 28.783 28.783 0 0 0-19.86-7.61 27.422 27.422 0 0 0-10.5 2.14 27.642 27.642 0 0 0-15.069 14.847 27.63 27.63 0 0 0-.151 21.153 28.002 28.002 0 0 0 25.72 17.49 28.69 28.69 0 0 0 20.16-8 28.361 28.361 0 0 0 6.32-9.2 27.923 27.923 0 0 0 2.18-10.93Z" fill="#1F2426"/><path d="M96.49 160.19c12.415 0 22.48-10.065 22.48-22.48 0-12.415-10.065-22.48-22.48-22.48-12.415 0-22.48 10.065-22.48 22.48 0 12.415 10.065 22.48 22.48 22.48Z" fill="#1F2426"/><path d="M119.1 137.71a23.636 23.636 0 0 1-6.52 16.1 22.763 22.763 0 0 1-7.3 5.13 22.624 22.624 0 0 1-17.69.24 23.433 23.433 0 0 1-14.65-21.47 23.88 23.88 0 0 1 6.72-16.82 23.167 23.167 0 0 1 16.83-7c3.104.05 6.167.73 9 2a23.407 23.407 0 0 1 7.38 5.39 24.059 24.059 0 0 1 6.23 16.43Zm-.26 0-.15-2.19c-.1-.72-.24-1.44-.35-2.16-.11-.72-.4-1.4-.59-2.1-.19-.7-.53-1.35-.79-2a21.927 21.927 0 0 0-5.07-6.92 22.528 22.528 0 0 0-15.4-5.76 22.003 22.003 0 0 0-15 6.19 21.237 21.237 0 0 0-6.45 15 21.612 21.612 0 0 0 13.11 20.07 21.802 21.802 0 0 0 8.32 1.75 22.328 22.328 0 0 0 15.7-6.12 22.004 22.004 0 0 0 4.95-7.14 21.683 21.683 0 0 0 1.72-8.62Z" fill="#141516"/><path d="M88.31 142.91a5.2 5.2 0 1 0 0-10.4 5.2 5.2 0 0 0 0 10.4Z" fill="#CADFE5"/><path d="M93.64 137.71a6.519 6.519 0 0 1-1.45 3.88 5.39 5.39 0 0 1-3.88 2 6.003 6.003 0 0 1-4.3-1.56 6.183 6.183 0 0 1-2-4.3 6.5 6.5 0 0 1 1.66-4.6 5.842 5.842 0 0 1 4.6-1.92 5.3 5.3 0 0 1 2.41.7 5.582 5.582 0 0 1 1.77 1.64 6.94 6.94 0 0 1 1.19 4.16Zm-.26 0a3.912 3.912 0 0 0-1.89-3.18 5.372 5.372 0 0 0-3.18-.7 4.809 4.809 0 0 0-2.75 1.13 3.878 3.878 0 0 0-1.39 2.75 4.231 4.231 0 0 0 1.08 3.06 4.48 4.48 0 0 0 3.06 1.48 5 5 0 0 0 3.48-1.06 4.242 4.242 0 0 0 1.55-3.48h.04Z" fill="#141516"/><path d="M104.43 142.91a5.2 5.2 0 1 0 0-10.4 5.2 5.2 0 0 0 0 10.4Z" fill="#CADFE5"/><path d="M109.76 137.71a6.471 6.471 0 0 1-1.46 3.88 5.377 5.377 0 0 1-3.87 2 6.003 6.003 0 0 1-4.3-1.56 6.183 6.183 0 0 1-2-4.3 6.5 6.5 0 0 1 1.66-4.6 5.842 5.842 0 0 1 4.6-1.92 5.299 5.299 0 0 1 2.41.7 5.574 5.574 0 0 1 1.77 1.64 6.937 6.937 0 0 1 1.19 4.16Zm-.26 0a3.908 3.908 0 0 0-1.89-3.18 5.372 5.372 0 0 0-3.18-.7 4.808 4.808 0 0 0-2.75 1.13 3.88 3.88 0 0 0-1.39 2.75 4.23 4.23 0 0 0 1.05 3.06 4.48 4.48 0 0 0 3.06 1.48 5 5 0 0 0 3.48-1.06 4.238 4.238 0 0 0 1.62-3.48Z" fill="#141516"/><path d="M224.22 140.51c0 15.91-13.19 30.2-29.46 30.2-16.27 0-29.42-14.29-29.42-30.2s13.19-28.79 29.46-28.79c16.27 0 29.42 12.89 29.42 28.79Z" fill="#F2B770"/><path d="M224.22 140.51c0 15.91-10.48 30.2-29.46 30.2s-29.42-14.29-29.42-30.2" fill="#DBDBDB"/><path d="M194.76 166.51c15.906 0 28.8-12.894 28.8-28.8s-12.894-28.8-28.8-28.8-28.8 12.894-28.8 28.8 12.894 28.8 28.8 28.8Z" fill="#434849"/><path d="M223.69 137.71a29.998 29.998 0 0 1-8.35 20.56 29.19 29.19 0 0 1-9.35 6.5 29.5 29.5 0 0 1-38.7-15.67 29.727 29.727 0 0 1 13.313-38.017 29.731 29.731 0 0 1 14.177-3.493c3.943.051 7.835.902 11.44 2.5a29.602 29.602 0 0 1 9.43 6.76 30.367 30.367 0 0 1 8.04 20.86Zm-.26 0-.18-2.81c-.13-.92-.3-1.84-.45-2.77-.15-.93-.49-1.8-.73-2.7-.24-.9-.68-1.74-1-2.61a27.848 27.848 0 0 0-6.44-9 28.783 28.783 0 0 0-19.86-7.61 27.373 27.373 0 0 0-10.5 2.16 27.698 27.698 0 0 0-17.25 25.33 28.002 28.002 0 0 0 27.74 28.14 28.26 28.26 0 0 0 26.49-17.17 28.112 28.112 0 0 0 2.18-10.96Z" fill="#1F2426"/><path d="M194.76 160.19c12.415 0 22.48-10.065 22.48-22.48 0-12.415-10.065-22.48-22.48-22.48-12.415 0-22.48 10.065-22.48 22.48 0 12.415 10.065 22.48 22.48 22.48Z" fill="#1F2426"/><path d="M217.34 137.71a23.694 23.694 0 0 1-6.52 16.1 22.997 22.997 0 0 1-7.3 5.13 23.172 23.172 0 0 1-25.352-4.77 23.182 23.182 0 0 1-5.098-7.49 23.606 23.606 0 0 1-1.89-9 23.828 23.828 0 0 1 6.72-16.82 23.132 23.132 0 0 1 7.691-5.227 23.132 23.132 0 0 1 9.129-1.773c3.104.05 6.166.731 9 2a23.249 23.249 0 0 1 7.37 5.39 24.073 24.073 0 0 1 6.25 16.46Zm-.27 0-.14-2.19c-.11-.72-.24-1.44-.36-2.16-.12-.72-.39-1.4-.58-2.1-.19-.7-.54-1.35-.8-2a21.79 21.79 0 0 0-5.07-6.92 22.512 22.512 0 0 0-15.4-5.76 21.945 21.945 0 0 0-15 6.19 21.388 21.388 0 0 0-.32 30.26 21.713 21.713 0 0 0 15.29 6.53 22.309 22.309 0 0 0 15.7-6.12 22.006 22.006 0 0 0 5-7.14 21.519 21.519 0 0 0 1.72-8.59h-.04Z" fill="#141516"/><path d="M186.59 142.91a5.2 5.2 0 1 0 0-10.4 5.2 5.2 0 0 0 0 10.4Z" fill="#CADFE5"/><path d="M191.92 137.71a6.595 6.595 0 0 1-1.46 3.88 5.367 5.367 0 0 1-3.87 2 6.003 6.003 0 0 1-4.3-1.56 6.13 6.13 0 0 1-2-4.3 6.493 6.493 0 0 1 1.65-4.6 5.874 5.874 0 0 1 4.61-1.92 5.299 5.299 0 0 1 2.41.7 5.434 5.434 0 0 1 1.76 1.64 6.994 6.994 0 0 1 1.2 4.16Zm-.26 0a3.915 3.915 0 0 0-1.9-3.18 5.338 5.338 0 0 0-3.17-.7 4.873 4.873 0 0 0-2.76 1.13 3.912 3.912 0 0 0-1.39 2.75 4.234 4.234 0 0 0 1.09 3.06 4.46 4.46 0 0 0 3.06 1.48 5 5 0 0 0 3.48-1.06 4.273 4.273 0 0 0 1.59-3.48Z" fill="#141516"/><path d="M202.71 142.91a5.2 5.2 0 1 0 0-10.4 5.2 5.2 0 0 0 0 10.4Z" fill="#CADFE5"/><path d="M208.04 137.71a6.595 6.595 0 0 1-1.46 3.88 5.377 5.377 0 0 1-3.87 2 5.999 5.999 0 0 1-4.31-1.56 6.171 6.171 0 0 1-1.95-4.3 6.493 6.493 0 0 1 1.65-4.6 5.874 5.874 0 0 1 4.61-1.92 5.299 5.299 0 0 1 2.41.7 5.434 5.434 0 0 1 1.76 1.64 7.007 7.007 0 0 1 1.16 4.16Zm-.26 0a3.915 3.915 0 0 0-1.9-3.18 5.338 5.338 0 0 0-3.17-.7 4.87 4.87 0 0 0-2.76 1.13 3.93 3.93 0 0 0-1.39 2.75 4.234 4.234 0 0 0 1.09 3.06 4.46 4.46 0 0 0 3.06 1.48 5 5 0 0 0 3.48-1.06 4.273 4.273 0 0 0 1.59-3.48Z" fill="#141516"/></g></svg>