<svg width="279" height="280" fill="none" xmlns="http://www.w3.org/2000/svg"><path d="M139.26 278.49a139.002 139.002 0 0 1-139-139 139 139 0 0 1 278 0c2.56 80.27-61.26 140.34-139 139Z" fill="#D299FF"/><path d="M238.09 57.11 233.37 68A33.436 33.436 0 0 1 225 79.63a6.752 6.752 0 0 0-2.22 4.05l-1 6.72a49.86 49.86 0 0 1-3.53 12.6l-.06.11c-1.13 2.35-19.23 40-21.28 49.15-2.11 9.41-6.5 29.37-14 32.25a9.01 9.01 0 0 0-3.43 2.77 34.595 34.595 0 0 0-4.08 6.6c-4.55 9.12-8.22 22.38-9 28.76-.06.48-.12 1-.19 1.44-2.37 17.57-7.24 33.58-11.6 29.41-5.18-5-8.24 2.61-7.5 8.3.178 1.66.234 3.331.17 5-.19 5.26-1.48 11.55-5 11.55-4.11 0-5.64-8.66-7.35-17-1.47-7.11-3.09-14-6.57-15.15-2.79-.92-1.44 5.13-4.07 3.7-2.24-1.23-4-19.86-5.87-26.66a5.732 5.732 0 0 0-1-2.32c-2.31-2.16-2.71 4.79-5.88 3.4-2.57-1.12-3.3-12.72-4.32-22.43-.23-2.28-.49-4.45-.79-6.36a31 31 0 0 0-6.55-15.12c-1.85-2.5-4.09-5.21-6.77-8.66a22.755 22.755 0 0 1-3.14-5.64c-2.33-5.83-3.16-12.93-4.8-19.68l-6-13.84-11.11-25.68a51.617 51.617 0 0 1-4.16-17.06l-.11-1.54a11.21 11.21 0 0 0-3.67-7.53 34.72 34.72 0 0 1-8.54-11.92l-5.07-11.7a11.85 11.85 0 0 1 6.66-15.8 254.07 254.07 0 0 1 178.25 0 11.85 11.85 0 0 1 6.67 15.76Z" fill="#F7CA69"/><path d="m118.14 223.35-1.64-3.79 1.16 1.09c.551.732.927 1.58 1.1 2.48l-.62.22Z" fill="#8CC63F"/><path d="M60.13 80.74c12.5-6.91 41.28-24.14 76.44-24.15 35.16-.01 88.43 23 88.43 23l7.08-7.83 6.83-17-1.17-7.86-4.1-5.32s-44.27-17-88.78-16.42c-44.51.58-89 13.09-93.77 17.15 0 0-7.91 5.41-5.55 13.3 2.36 7.89 4.15 9.06 6.73 14.64s7.86 10.46 7.86 10.46" fill="#E8A436"/><path d="M147 270.73c-.6 4-2 7.61-4.64 7.61-4.12 0-5.65-8.66-7.36-17-1.47-7.12-3.09-14-6.57-15.16-2.79-.92-1.45 5.13-4.07 3.7-2.24-1.23-4-19.85-5.87-26.66a6.002 6.002 0 0 0-1-2.33c-2.32-2.15-2.72 4.8-5.89 3.41-2.57-1.12-3.3-12.72-4.32-22.44-.24-2.27-.49-4.44-.79-6.36-1-6.55-3.1-10.45-6.55-15.12-1.85-2.49-4.09-5.21-6.77-8.66a22.994 22.994 0 0 1-3.14-5.65c-1.83-4.59-2.74-10-3.85-15.38-.29-1.43-.6-2.86-.95-4.29l-6-13.84-11.11-25.68a51.458 51.458 0 0 1-3.79-13.52c-.16-1.17-.29-2.36-.37-3.54l-.11-1.53a11.11 11.11 0 0 0-3.67-7.53 34.85 34.85 0 0 1-8.54-11.93l-5.07-11.7a11.87 11.87 0 0 1 .52-10.51 11.79 11.79 0 0 0 1 5.3l5.07 11.71a34.59 34.59 0 0 0 8.54 11.92 11.25 11.25 0 0 1 3.67 7.53l.11 1.54c.08 1.187.2 2.367.36 3.54a52.64 52.64 0 0 0 3.79 13.52l11.12 25.67 6 13.85c.34 1.42.65 2.85 1 4.29 1.11 5.39 2 10.79 3.85 15.39a22.755 22.755 0 0 0 3.14 5.64c2.68 3.45 4.92 6.16 6.76 8.66 3.45 4.66 5.53 8.57 6.55 15.11.3 1.9.57 4.08.8 6.36 1 9.71 1.75 21.3 4.32 22.43 3.16 1.38 3.57-5.56 5.88-3.4a5.732 5.732 0 0 1 1 2.32c1.89 6.8 3.63 25.43 5.87 26.65 2.62 1.44 1.28-4.61 4.07-3.7 3.47 1.16 5.09 8 6.56 15.16 1.72 8.35 3.24 17 7.36 17 1.25.03 2.28-.92 3.09-2.38Z" fill="#FFF19C"/><path d="M172.79 97.36a27.608 27.608 0 0 1-15.05-36 27.612 27.612 0 0 1 15.05 36Z" fill="#45AF22"/><path d="M48 51.91c-.83-2.89 2.17-5.42 2.17-5.42l-2.31-1-2.21 3.9L48 51.91Z" fill="#FFF19C"/><path d="M46.15 48.2c8.21-3.91 50-18.67 92.2-18.68 42.2-.01 96.13 11.38 101.4 23.48l-4.62-9.42s-43-20.4-96.94-18.37c-53.94 2.03-85.9 16.24-85.9 16.24l-3.82 3.17-2.32 3.62" fill="#FFF19C"/><path d="M171.25 94.27a39.156 39.156 0 0 0-1.46-7c-.67-2.28-1.15-4.63-1.92-6.92a52.388 52.388 0 0 0-2.73-6.69 27.987 27.987 0 0 0-3.84-6.12l.14-.14a26.628 26.628 0 0 1 4.57 5.78 53.067 53.067 0 0 1 3.34 6.61 31.437 31.437 0 0 1 2.37 7.05c.227 1.237.344 2.492.35 3.75v.94c0 .31-.07.64-.11.95a8.194 8.194 0 0 1-.49 1.84l-.22-.05Z" fill="#2E9126"/><path d="M125.72 110.1c10.996 0 19.91-8.914 19.91-19.91s-8.914-19.91-19.91-19.91-19.91 8.914-19.91 19.91 8.914 19.91 19.91 19.91Z" fill="#D34254"/><path d="M145.79 90.19a21.38 21.38 0 0 1-5.79 14.32 20.07 20.07 0 0 1-14.32 6.41 20.932 20.932 0 0 1-19.49-12.66 21.109 21.109 0 0 1-1.73-8.07 21.572 21.572 0 0 1 6-15.24 20.726 20.726 0 0 1 15.23-6.32l2.11.16c.69.1 1.39.24 2.08.36.69.12 1.35.39 2 .59.65.2 1.29.53 1.94.79a20.184 20.184 0 0 1 6.55 5 21.89 21.89 0 0 1 5.42 14.66Zm-.33 0-.14-1.93c-.1-.64-.22-1.27-.33-1.91-.11-.64-.36-1.23-.53-1.85-.17-.62-.49-1.18-.73-1.77a18.206 18.206 0 0 0-4.56-6 19.999 19.999 0 0 0-13.45-4.81 19.312 19.312 0 0 0-12.92 5.34 18.266 18.266 0 0 0-4.11 5.86 18.521 18.521 0 0 0 3.72 20.37 19 19 0 0 0 13.31 5.77 19.771 19.771 0 0 0 13.83-5.26 18.606 18.606 0 0 0 5.91-13.83v.02Z" fill="#BC263F"/><path d="M129 105.1a15.995 15.995 0 0 0 7.24-5.25 13.5 13.5 0 0 0 2.08-3.81c.487-1.336.727-2.749.71-4.17a11.063 11.063 0 0 0-.87-4.05 21.68 21.68 0 0 0-1.88-3.65 16.684 16.684 0 0 0-6.35-5.81L130 78a9.18 9.18 0 0 1 4.9 1 12.12 12.12 0 0 1 4 3.19 11.628 11.628 0 0 1 2.35 4.63c.407 1.684.542 3.423.4 5.15a14.42 14.42 0 0 1-1.33 4.91 15.57 15.57 0 0 1-2.87 4.05 16.271 16.271 0 0 1-8.4 4.48l-.05-.31Z" fill="#F45B75"/><path d="M161.22 81.6a19.92 19.92 0 0 1-3.21-6.27 12.284 12.284 0 0 1-.76-3.5 8.331 8.331 0 0 1 .62-3.55h.13c.23 1.19.37 2.3.57 3.41.2 1.11.23 2.24.46 3.35.222 1.122.53 2.225.92 3.3a20.674 20.674 0 0 0 1.38 3.17l-.11.09Z" fill="#5AE256"/><path d="M194.91 66.92c2.239.16 4.452.57 6.6 1.22a47.126 47.126 0 0 1 12 5.45 29.07 29.07 0 0 1 5.25 4.2 44.725 44.725 0 0 1-6.4-1.87 74.866 74.866 0 0 1-6-2.47c-1.94-.9-3.887-1.873-5.84-2.92a41.377 41.377 0 0 1-5.61-3.61ZM141.79 55.64a54.316 54.316 0 0 1 11.1-.56c3.693.169 7.369.603 11 1.3 3.636.68 7.224 1.6 10.74 2.75a63.998 63.998 0 0 1 10.23 4.3c-3.7-.45-7.29-1.12-10.88-1.78l-10.7-2-10.7-2c-3.58-.65-7.14-1.26-10.79-2.01ZM101.14 62.19a28.252 28.252 0 0 1 5.71-3 42.163 42.163 0 0 1 6.09-1.91 40.49 40.49 0 0 1 6.32-1 26.51 26.51 0 0 1 6.46.29 43.853 43.853 0 0 1-6 2.27c-2 .62-4 1.15-6 1.61-2 .46-4.07.87-6.14 1.19-2.129.35-4.282.533-6.44.55ZM68.66 75.91a24.323 24.323 0 0 1 4.57-3.83 38.657 38.657 0 0 1 10.6-4.88c1.91-.569 3.88-.905 5.87-1a31.441 31.441 0 0 1-4.86 3.38c-1.67 1-3.38 1.85-5.12 2.65-1.74.8-3.51 1.52-5.34 2.16a33.57 33.57 0 0 1-5.72 1.52Z" fill="#7C4B0B"/><path d="M162.28 59.22a4.67 4.67 0 0 1-1.22-2.38 10.985 10.985 0 0 1-.25-2.06A26.675 26.675 0 0 1 161 51c.287-2.46.714-4.9 1.28-7.31-.02 2.439.107 4.876.38 7.3.126 1.173.333 2.336.62 3.48a9.51 9.51 0 0 0 .54 1.51c.2.43.51.77.6.74l-2.14 2.5ZM56.45 41.48a10.51 10.51 0 0 0-1.8 3.92 17.118 17.118 0 0 0-.4 4.61 37.418 37.418 0 0 0 1.87 9.53 38.529 38.529 0 0 1-3.51-9.32c-.37-1.7-.507-3.443-.41-5.18a13.48 13.48 0 0 1 1.43-5.28l2.82 1.72ZM60.72 39.84a14 14 0 0 0-1.57 5.15 25.206 25.206 0 0 0 0 5.76 40.74 40.74 0 0 0 3.05 11.44A41.549 41.549 0 0 1 57.51 51a27.377 27.377 0 0 1-.84-6.16c-.063-2.202.3-4.396 1.07-6.46l2.98 1.46ZM96.44 30.75A4.63 4.63 0 0 0 94.87 33a17.07 17.07 0 0 0-.88 3.36c-.392 2.4-.562 4.83-.51 7.26a40.635 40.635 0 0 1-1.14-7.35 18.827 18.827 0 0 1 .13-3.88c.101-.682.272-1.353.51-2a6.003 6.003 0 0 1 1.25-2.07l2.21 2.43ZM141 26.26a4.688 4.688 0 0 0-1.26 2.15c-.325.98-.572 1.982-.74 3a42.741 42.741 0 0 0-.53 6.44 42.35 42.35 0 0 1-1.12-6.51 21.948 21.948 0 0 1 0-3.44 7.498 7.498 0 0 1 1.19-3.8l2.46 2.16ZM194.48 31.51a7.174 7.174 0 0 0-1.93 2.65 26.778 26.778 0 0 0-1.42 3.57 57.374 57.374 0 0 0-1.86 7.68c-.1-2.67-.016-5.342.25-8 .133-1.372.367-2.732.7-4.07a9.92 9.92 0 0 1 2-4.18l2.26 2.35ZM218.1 38.19a4.34 4.34 0 0 0-2.42 1.09 9.777 9.777 0 0 0-2 2.49 19.204 19.204 0 0 0-1.42 3.12 24.27 24.27 0 0 0-.94 3.39 23.785 23.785 0 0 1 .14-3.57c.128-1.215.362-2.416.7-3.59a12.003 12.003 0 0 1 1.66-3.49 7.26 7.26 0 0 1 3.45-2.63l.83 3.19ZM225.38 56.59A67.233 67.233 0 0 1 221.63 67c-.77 1.69-1.6 3.37-2.53 5-.47.82-1 1.64-1.52 2.44-.26.41-.59.81-.91 1.22l-.57.6a9.84 9.84 0 0 1-.76.63l-1.67-2.85c.1-.07.21-.11.34-.2l.43-.34c.29-.28.6-.54.89-.87.59-.62 1.16-1.31 1.71-2 1.11-1.41 2.14-2.9 3.13-4.43a64.593 64.593 0 0 0 5.21-9.61ZM232.25 50.82a43.512 43.512 0 0 1-.65 6.1c-.19 1-.4 2-.66 3s-.56 2-.9 3c-.16.5-.34 1-.51 1.48-.17.48-.35 1-.54 1.49-.11.24-.2.49-.32.73s-.24.47-.37.7c-.256.464-.55.905-.88 1.32a11.067 11.067 0 0 1-5.13 3.86l-.22-.25c.86-2 1.71-3.68 2.57-5.4.22-.42.45-.84.68-1.26l.76-1.21a22.901 22.901 0 0 0 1.52-2.49c.46-.87.88-1.76 1.27-2.66.39-.9.79-1.81 1.14-2.74a57.72 57.72 0 0 0 1.91-5.7l.33.03ZM50.37 52.93a16.18 16.18 0 0 0 1.61 5.24c.39.84.8 1.66 1.25 2.46.45.8.88 1.61 1.37 2.38a23.664 23.664 0 0 0 1.59 2.23c.28.36.55.72.79 1.09.258.368.492.752.7 1.15.9 1.57 1.7 3.1 2.61 4.94l-.2.27a7.887 7.887 0 0 1-1.49-.49c-.462-.229-.91-.486-1.34-.77-.41-.3-.82-.61-1.2-1s-.71-.7-1.05-1.07c-.323-.376-.623-.77-.9-1.18-.27-.41-.49-.86-.72-1.3-.4-.9-.77-1.81-1.14-2.71-.37-.9-.73-1.8-1-2.72-.27-.92-.56-1.86-.79-2.8a14.6 14.6 0 0 1-.38-5.81l.29.09Z" fill="#7C4B0B"/><path d="M51 48.06a58.088 58.088 0 0 1 6.09-3.94c1-.59 2.12-1.16 3.2-1.72s2.17-1.06 3.28-1.56l3.32-1.54a17.658 17.658 0 0 1 3.48-1.12c.61-.11 1.21-.22 1.82-.3.61-.08 1.24-.13 1.86-.16.62-.03 1.25 0 1.88 0 .633.055 1.261.155 1.88.3l.05.33a53.857 53.857 0 0 1-6.56 3 26.176 26.176 0 0 1-3.36 1.05c-1.14.28-2.3.55-3.42.91s-2.26.72-3.37 1.12c-1.11.4-2.25.77-3.36 1.19-2.25.8-4.44 1.72-6.62 2.72l-.17-.28Z" fill="#7C4B0B"/><path d="M238.09 57.11 233.37 68A33.57 33.57 0 0 1 225 79.63a6.828 6.828 0 0 0-2.23 4.05l-1 6.72c-.2 1.37-.45 2.72-.76 4.06a50.796 50.796 0 0 1-2.79 8.49l-.06.11c-1.08 2.25-17.85 37.18-21 48-.13.43-.23.83-.31 1.18-2.12 9.41-5 29.49-13.95 32.25a8.997 8.997 0 0 0-3.42 2.77 34.595 34.595 0 0 0-4.08 6.6c-4.55 9.13-8.22 22.38-9 28.76l-.18 1.44c-2.38 17.57-7.29 33.62-11.61 29.41-5.17-5-8.24 2.61-7.51 8.31.192 1.659.253 3.331.18 5-.2 5.26-1.48 11.55-5 11.55-2 0-3.33-2-4.42-4.91a3.378 3.378 0 0 0 2.69 1.54c3.53 0 4.81-6.29 5-11.55.075-1.669.018-3.34-.17-5-.73-5.7 2.33-13.33 7.5-8.31 4.33 4.21 9.23-11.83 11.61-29.4.07-.48.12-1 .18-1.45.79-6.38 4.46-19.63 9-28.76a34.164 34.164 0 0 1 4.09-6.59 8.902 8.902 0 0 1 3.43-2.78c8.9-2.76 11.84-22.84 14-32.25.08-.35.18-.74.31-1.18 3.12-10.79 19.88-45.71 21-48v-.11a48.999 48.999 0 0 0 2.79-8.48c.31-1.35.56-2.7.77-4.06l1-6.73a6.8 6.8 0 0 1 2.22-4 33.737 33.737 0 0 0 8.38-11.63l4.71-10.9a11.871 11.871 0 0 0 .4-8.4 11.908 11.908 0 0 1 1.32 11.73Z" fill="#E8A436"/><path d="M118.1 184.49a19.885 19.885 0 0 1-10.21 17.38c-.23-2.28-.49-4.45-.79-6.36-1-6.55-3.1-10.46-6.55-15.12-1.84-2.5-4.09-5.21-6.77-8.66a23.074 23.074 0 0 1-3.13-5.64 19.898 19.898 0 0 1 27.45 18.42v-.02Z" fill="#D34254"/><path d="M118.27 184.49a22.117 22.117 0 0 1-2.68 10.21 20.912 20.912 0 0 1-3.14 4.36 19.577 19.577 0 0 1-4.21 3.42l-.88.53-.17-1.07c-.327-2.1-.643-4.2-.95-6.3a30.707 30.707 0 0 0-2.42-7.89 36.68 36.68 0 0 0-4.49-7l-5.38-6.6-1.35-1.65a20.28 20.28 0 0 1-1.34-1.86 27.77 27.77 0 0 1-2.1-4l-.61-1.42 1.49-.66a20.23 20.23 0 0 1 10.33-1.6 20.005 20.005 0 0 1 9.7 3.81 20.69 20.69 0 0 1 6.26 8 23.753 23.753 0 0 1 1.94 9.72Zm-.34 0a17.829 17.829 0 0 0-2.75-9.06 20.367 20.367 0 0 0-6.68-6.3 21.536 21.536 0 0 0-8.47-2.74 19.71 19.71 0 0 0-8.77 1.16l.88-2.08a23.163 23.163 0 0 0 1.66 3.65c.33.57.69 1.12 1.07 1.65l1.28 1.71 5.13 6.85a39.412 39.412 0 0 1 4.44 7.55 32.436 32.436 0 0 1 2.24 8.47v.09-.07c.23 2.14.44 4.29.64 6.42l-1-.54a19.542 19.542 0 0 0 7.57-6.82 17.982 17.982 0 0 0 2.14-4.76c.45-1.689.659-3.433.62-5.18Z" fill="#BC263F"/><path d="M179 187.26a34.623 34.623 0 0 0-4 6.6c-4.47 9.12-8.07 22.38-8.84 28.76-.06.48-.12 1-.19 1.44a19.94 19.94 0 0 1 3.03-39.57 19.216 19.216 0 0 1 10 2.77Z" fill="#D34254"/><path d="M179.15 187.23a3.26 3.26 0 0 1-.4.63l-.35.5c-.22.33-.45.67-.66 1-.43.69-.82 1.41-1.2 2.13-.76 1.44-1.42 2.93-2.07 4.43-1.26 3-2.35 6.1-3.32 9.21-.97 3.11-1.79 6.28-2.53 9.46-.37 1.58-.71 3.17-1 4.77-.29 1.6-.47 3.15-.65 4.82l-.11 1.06-1.09-.16a21.317 21.317 0 0 1-8.5-3.28 21.99 21.99 0 0 1-6.31-6.64 22.536 22.536 0 0 1-3-8.75 21.244 21.244 0 0 1 1-9.25 20.774 20.774 0 0 1 5-7.89 20.177 20.177 0 0 1 7.9-4.82 19.58 19.58 0 0 1 9.07-.77c2.226.344 4.37 1.09 6.33 2.2.32.18.63.38.94.59l.47.32c.17.21.33.32.48.44Zm-.32.06-.44-.12-.47-.2c-.33-.13-.67-.26-1-.37a18.369 18.369 0 0 0-2-.61 20.124 20.124 0 0 0-4.14-.54 14.174 14.174 0 0 0-2.06.07l-1 .11-.51.06-.5.1c-.678.12-1.346.287-2 .5l-1 .3c-.32.11-.63.26-.94.38a18.886 18.886 0 0 0-6.5 4.57 19.988 19.988 0 0 0-5.15 14.6 18.82 18.82 0 0 0 2.23 7.66 19.113 19.113 0 0 0 5.32 6 18.887 18.887 0 0 0 7.45 3.19l-1.21.89c.22-1.58.49-3.3.85-4.9.36-1.6.74-3.24 1.17-4.84.86-3.19 1.87-6.34 3-9.44 1.13-3.1 2.36-6.16 3.78-9.15.72-1.48 1.46-3 2.32-4.37.42-.71.86-1.41 1.33-2.09.24-.34.48-.68.73-1l.39-.49a.993.993 0 0 1 .35-.31Z" fill="#BC263F"/><path d="M127.21 238.34a23.88 23.88 0 0 1-2.284-18.128 23.87 23.87 0 0 1 11.204-14.432 23.878 23.878 0 0 1-8.92 32.56ZM116.17 159.45a23.429 23.429 0 0 1 7.564-16.257 23.406 23.406 0 0 1 16.846-6.143 23.44 23.44 0 0 1-24.41 22.4ZM172.08 180.38a25.997 25.997 0 0 1-24.85-27.07 25.997 25.997 0 0 1 24.85 27.07Z" fill="#45AF22"/><path d="M127.89 233.79a37.498 37.498 0 0 0 2.61-5.61c.73-1.91 1.69-3.75 2.38-5.72a45.633 45.633 0 0 0 1.73-6 24.45 24.45 0 0 0 .67-6.21h.2c.332 2.115.369 4.265.11 6.39a46.803 46.803 0 0 1-1.19 6.31 26.701 26.701 0 0 1-2.1 6.1 18.188 18.188 0 0 1-1.8 2.73c-.18.21-.35.43-.53.63-.18.2-.4.39-.6.58a6.42 6.42 0 0 1-1.35 1l-.13-.2ZM170.57 178.7a37.593 37.593 0 0 0-3.46-5.78c-1.29-1.83-2.41-3.79-3.78-5.6a49.345 49.345 0 0 0-4.44-5.15 26.976 26.976 0 0 0-5.26-4.32l.09-.17a24.981 24.981 0 0 1 5.84 3.76 49.872 49.872 0 0 1 5 4.87 29.617 29.617 0 0 1 4.25 5.57 18.813 18.813 0 0 1 1.43 3.25c.09.29.18.57.26.86.08.29.12.59.18.89.103.591.137 1.191.1 1.79l-.21.03ZM118.55 158a39.917 39.917 0 0 0 4.93-3.54c1.54-1.28 3.25-2.39 4.8-3.73a44.145 44.145 0 0 0 4.37-4.28 24.113 24.113 0 0 0 3.59-5l.18.08a22.44 22.44 0 0 1-3 5.51 45.553 45.553 0 0 1-4.06 4.81 25.357 25.357 0 0 1-4.75 4.2 16.05 16.05 0 0 1-2.86 1.46 8.003 8.003 0 0 1-3.17.66l-.03-.17Z" fill="#2E9126"/><path d="M158.86 173.23a23.004 23.004 0 0 1-5.92-5.35 14.476 14.476 0 0 1-2.22-3.39 9.637 9.637 0 0 1-.87-4h.13c.68 1.18 1.27 2.31 1.92 3.41.65 1.1 1.18 2.28 1.9 3.36a24.313 24.313 0 0 0 2.35 3.1 23.452 23.452 0 0 0 2.78 2.76l-.07.11ZM126.1 224.42a21.59 21.59 0 0 1 1.65-7.3 13.47 13.47 0 0 1 1.76-3.36 8.774 8.774 0 0 1 2.88-2.5l.09.09c-.64 1.11-1.28 2.11-1.88 3.15-.6 1.04-1.33 2-1.89 3.07a24.818 24.818 0 0 0-1.48 3.33 22.29 22.29 0 0 0-1 3.53l-.13-.01Z" fill="#5AE256"/><path d="M135.6 115v2.25c-.92 19.06-13.63 35.69-35.93 35.69a38.256 38.256 0 0 1-13.51-2.33c-.29-1.39-.59-2.8-.93-4.18l-1-2.32A36.184 36.184 0 0 1 63.81 115h71.79Z" fill="#E8A436"/><path d="M120.62 149.24a23.164 23.164 0 0 1 4.84-6 15 15 0 0 1 3.12-2.37 9.834 9.834 0 0 1 3.75-1.16v.12c-1.07.78-2.1 1.46-3.12 2.17s-2.12 1.31-3.13 2.06a27.58 27.58 0 0 0-2.87 2.44 24.258 24.258 0 0 0-2.53 2.83l-.06-.09Z" fill="#5AE256"/><path d="M101.18 171.54a12.46 12.46 0 0 1 7.06 3.24 14.655 14.655 0 0 1 2.6 3.1 15.994 15.994 0 0 1 1.65 3.76c.392 1.351.617 2.745.67 4.15a10.08 10.08 0 0 1-.86 4.16 11.005 11.005 0 0 1-2.37 3.44 9.345 9.345 0 0 1-3.39 2.24l-.21-.25c.64-1.17 1.22-2.25 1.71-3.33a22.805 22.805 0 0 0 1.15-3.23c.292-1.063.525-2.141.7-3.23.093-.548.14-1.104.14-1.66v-.85l-.1-.85a13.179 13.179 0 0 0-1-3.31 12.527 12.527 0 0 0-1.85-3 12.091 12.091 0 0 0-5.93-4.06l.03-.32ZM158.53 199.66a11.193 11.193 0 0 1 2.67-4.29c.3-.31.64-.58 1-.88.36-.3.68-.54 1-.79a15.153 15.153 0 0 1 2.31-1.26c.41-.18.82-.37 1.24-.51a9.814 9.814 0 0 1 1.28-.44l.66-.16c.23 0 .45-.06.68-.08.452-.05.908-.05 1.36 0 .451.054.896.148 1.33.28.439.115.865.276 1.27.48.84.377 1.58.946 2.16 1.66l-.13.31c-1.8.26-3.25.41-4.69.58l-1.06.1h-1.06a7.93 7.93 0 0 0-1.09 0 6.698 6.698 0 0 0-1.09.17 13.34 13.34 0 0 0-2.11.68c-.35.15-.69.3-1 .47-.31.17-.67.35-1 .56a12.177 12.177 0 0 0-3.42 3.15l-.31-.03Z" fill="#F45B75"/><path d="M164.83 127a39.48 39.48 0 0 1 .84 12c-.12 2-.38 4-.36 5.92.002.462.036.923.1 1.38.07.439.18.871.33 1.29.265.81.717 1.547 1.32 2.15a2.944 2.944 0 0 0 2 .88 2.696 2.696 0 0 0 1.91-.79 3.654 3.654 0 0 0 1-2c.072-.409.102-.825.09-1.24a8.44 8.44 0 0 0-.11-1.24 13.964 13.964 0 0 0-.74-2.55 23.086 23.086 0 0 1-.92-3 14.086 14.086 0 0 1 0-6.23h.27c.4 1.913.979 3.785 1.73 5.59.38.86.81 1.69 1.27 2.6.519.985.883 2.044 1.08 3.14.083.583.106 1.172.07 1.76a9.824 9.824 0 0 1-.27 1.73 6.13 6.13 0 0 1-1.92 3.15 4.946 4.946 0 0 1-3.59 1.19 5.002 5.002 0 0 1-3.29-1.62 7.43 7.43 0 0 1-1.65-3 8.848 8.848 0 0 1-.31-1.63 12.356 12.356 0 0 1 0-1.61c.12-2.1.49-4.05.76-6 .295-1.957.465-3.931.51-5.91a40.95 40.95 0 0 0-.37-6l.25.04Z" fill="#7C4B0B"/><path d="M224.27 115c0 .727-.02 1.457-.06 2.19a36.216 36.216 0 0 1-25.28 28.94c-.74 1.93-1.33 3.61-1.71 4.94-.1.34-.18.66-.26 1a40.014 40.014 0 0 1-8.68.91c-23.24 0-36-18-36-37.94l71.99-.04Z" fill="#E8A436"/><path d="M142.3 279.66c-5 0-6.62-8.1-8.37-16.67l-.28-1.39c-1.08-5.25-2.73-13.19-5.69-14.17-.167.37-.298.755-.39 1.15-.29 1-.62 2.22-1.72 2.68a2.444 2.444 0 0 1-2.17-.22c-1.76-1-2.65-5.44-4.38-16.17-.7-4.3-1.42-8.75-2.12-11.3a8.538 8.538 0 0 0-.57-1.59c-.216.296-.416.603-.6.92-.8 1.32-2.29 3.79-5 2.61-2.71-1.18-3.55-7.77-4.68-19.27-.14-1.43-.28-2.85-.43-4.23-.25-2.52-.51-4.58-.78-6.3v-.12c-1-6.34-3-10-6.28-14.43-1.1-1.48-2.31-3-3.72-4.79-1-1.19-2-2.46-3-3.85a24.219 24.219 0 0 1-3.32-6 75.353 75.353 0 0 1-3.39-13c-.18-.85-.35-1.71-.52-2.57-.31-1.51-.61-2.86-.92-4.14L66.85 107.4A53.754 53.754 0 0 1 63 93.53a56.6 56.6 0 0 1-.37-3.63l-.11-1.53a9.78 9.78 0 0 0-3.24-6.65 35.798 35.798 0 0 1-8.86-12.37l-5.07-11.71a13.11 13.11 0 0 1 0-10.42 13 13 0 0 1 7.44-7.14 255.49 255.49 0 0 1 179.19 0 12.93 12.93 0 0 1 7.43 7.14 13.114 13.114 0 0 1 0 10.42l-4.72 10.89a34.534 34.534 0 0 1-8.7 12.09 5.48 5.48 0 0 0-1.8 3.25l-1 6.72a59.93 59.93 0 0 1-.78 4.17 51.999 51.999 0 0 1-2.87 8.71l-.07.15c-.73 1.52-17.8 37.07-20.9 47.78-.1.35-.19.67-.26 1v.07l-.05.16c-.26 1.16-.54 2.49-.83 3.94-2.19 10.58-5.49 26.56-14 29.22a7.861 7.861 0 0 0-2.82 2.36 32.763 32.763 0 0 0-3.92 6.33c-4.66 9.37-8.15 22.48-8.87 28.34-.06.49-.12 1-.19 1.46-.65 4.81-4.2 28.89-10.47 31.06a3.156 3.156 0 0 1-3.36-.88c-1.16-1.12-2.13-1.5-2.9-1.12-1.69.85-2.82 4.81-2.37 8.3.194 1.739.254 3.491.18 5.24-.22 3.81-1.12 12.78-6.41 12.78Zm-14.45-34.9c.32.005.637.059.94.16 4.08 1.35 5.79 8.11 7.45 16.15l.29 1.39c1.32 6.48 3 14.56 5.77 14.56 1.95 0 3.46-4.23 3.69-10.28a30.909 30.909 0 0 0-.17-4.8c-.54-4.2.74-9.46 3.82-11 1.06-.53 3.24-1 5.92 1.58.38.37.55.31.65.28 2.48-.86 6.42-11.91 8.72-28.91.07-.48.13-.95.19-1.43.85-7 4.73-20.36 9.12-29.19a36.003 36.003 0 0 1 4.25-6.85 10.291 10.291 0 0 1 4-3.17l.27-.08c6.91-2.39 10.11-17.89 12-27.18.29-1.42.56-2.74.82-3.9V152l.05-.15c.09-.37.19-.77.32-1.21 3.1-10.73 19.22-44.37 21.05-48.17l.05-.1a49.29 49.29 0 0 0 2.7-8.23c.3-1.3.55-2.63.74-3.95l1-6.72a8.08 8.08 0 0 1 2.65-4.84 32.159 32.159 0 0 0 8-11.17l4.71-10.89a10.536 10.536 0 0 0 0-8.35 10.337 10.337 0 0 0-5.93-5.69 252.93 252.93 0 0 0-177.33 0 10.51 10.51 0 0 0-5.9 14l5.07 11.7A33.068 33.068 0 0 0 61 79.76a12.45 12.45 0 0 1 4.1 8.42l.11 1.54c.07 1.09.19 2.25.35 3.45a51 51 0 0 0 3.7 13.18L86.44 146v.11c.33 1.34.64 2.76 1 4.34.17.86.35 1.72.52 2.58a73.12 73.12 0 0 0 3.26 12.57 21.392 21.392 0 0 0 2.95 5.33c1.08 1.38 2.08 2.65 3 3.83 1.42 1.79 2.65 3.34 3.77 4.85 3.48 4.72 5.71 8.79 6.79 15.7v.12c.27 1.75.53 3.82.78 6.33.15 1.39.29 2.82.43 4.25.6 6.06 1.6 16.19 3.12 17.12.39.17.66.07 1.65-1.57.65-1.08 1.32-2.18 2.55-2.36a2.48 2.48 0 0 1 2.05.76 6.346 6.346 0 0 1 1.37 2.93c.75 2.69 1.45 7 2.19 11.59.79 4.91 2 12.17 2.93 14 .07-.2.13-.42.18-.6a4.19 4.19 0 0 1 1.71-2.83 2.308 2.308 0 0 1 1.16-.29Z" fill="#7C4B0B"/><path d="M182.71 185.79a5 5 0 0 1-2.28-1.21 4.904 4.904 0 0 1-1.28-2.1 9.836 9.836 0 0 1-.19-4.26 24.04 24.04 0 0 1 .92-3.89 32.373 32.373 0 0 1 1.43-3.67 31.461 31.461 0 0 0-.78 3.82 21.422 21.422 0 0 0-.25 3.82 8.2 8.2 0 0 0 .72 3.45 2.455 2.455 0 0 0 2.16 1.44l-.45 2.6ZM114.31 220.45a8.7 8.7 0 0 1 .81-1.67 13.02 13.02 0 0 0 .76-2 37.214 37.214 0 0 0 1-4.55c.21.772.37 1.557.48 2.35.116.805.186 1.617.21 2.43.03.843-.024 1.687-.16 2.52a3.798 3.798 0 0 1-1.21 2.52l-1.89-1.6ZM150.59 231.4a9.122 9.122 0 0 0 .36 4.69 24.635 24.635 0 0 1 1.29 4.88 5.395 5.395 0 0 1-.47 2.8 5.759 5.759 0 0 1-1.87 2.23c-.874.613-1.936.9-3 .81a4.392 4.392 0 0 1-2.85-1.46 5.755 5.755 0 0 1-.89-1.26 7.057 7.057 0 0 1-.31-.68 5.197 5.197 0 0 1-.24-.76 7.75 7.75 0 0 1 0-2.92 29.66 29.66 0 0 1 1.44-4.83c.25-.76.51-1.5.75-2.26.24-.76.45-1.51.64-2.28a34.7 34.7 0 0 0 .8-4.76h.27c.853 3.282.829 6.73-.07 10-.36 1.63-.85 3.19-1.13 4.62a6.686 6.686 0 0 0-.13 1.95 3.956 3.956 0 0 0 .24.87c.111.28.255.545.43.79.323.445.801.752 1.34.86a2.442 2.442 0 0 0 1.65-.35 3.632 3.632 0 0 0 1.32-1.4 3.994 3.994 0 0 0 .54-1.93 28.883 28.883 0 0 0-.66-4.71 9.174 9.174 0 0 1 .33-5l.22.1ZM132 168a39.575 39.575 0 0 1 .84 12c-.11 2-.38 4-.36 5.92.002.462.036.923.1 1.38.077.438.187.869.33 1.29a5.406 5.406 0 0 0 1.33 2.15 3.002 3.002 0 0 0 2 .88 2.718 2.718 0 0 0 1.9-.79 3.582 3.582 0 0 0 1-2c.071-.409.101-.825.09-1.24a7.254 7.254 0 0 0-.11-1.24 13.249 13.249 0 0 0-.74-2.56 24.676 24.676 0 0 1-.92-3 14.013 14.013 0 0 1 0-6.24h.26a32.056 32.056 0 0 0 1.73 5.59c.38.87.81 1.7 1.27 2.61.52.984.885 2.044 1.08 3.14.093.578.116 1.166.07 1.75a8.876 8.876 0 0 1-.27 1.73 6.128 6.128 0 0 1-1.92 3.16 4.92 4.92 0 0 1-3.58 1.19 5.102 5.102 0 0 1-3.3-1.63 7.182 7.182 0 0 1-1.64-3 8.792 8.792 0 0 1-.32-1.64c-.04-.536-.04-1.074 0-1.61.11-2.09.49-4.05.75-6 .295-1.957.465-3.931.51-5.91a38.324 38.324 0 0 0-.37-5.95l.27.02Z" fill="#7C4B0B"/><path d="M137.39 114.07a.5.5 0 1 0 0-1 .5.5 0 0 0 0 1Z" fill="#B3B3B3"/><path d="M136 111.43a36.56 36.56 0 0 1-.46 5.78 36.193 36.193 0 0 1-36.834 30.359A36.194 36.194 0 0 1 63.81 115c-.11-1.17-.17-2.34-.17-3.53a36.189 36.189 0 0 1 72.37 0l-.01-.04Z" fill="#593315"/><path d="M136.21 111.43a33.073 33.073 0 0 1-.76 7.09l-.36 1.74c-.14.58-.34 1.15-.5 1.72-.16.57-.32 1.14-.52 1.7l-.66 1.66a37.648 37.648 0 0 1-3.28 6.34c-.64 1-1.38 1.95-2.07 2.93-.69.98-1.54 1.83-2.37 2.69a36.485 36.485 0 0 1-40.15 8.63 37.81 37.81 0 0 1-12.2-8 36.376 36.376 0 0 1-4.72-5.64c-.72-1-1.32-2.07-2-3.13-.68-1.06-1.14-2.18-1.6-3.33-.46-1.15-.88-2.29-1.29-3.46-.41-1.17-.7-2.36-.92-3.58-.22-1.22-.41-2.43-.59-3.65l-.22-3.7a37.49 37.49 0 0 1 2.72-14.52 37.489 37.489 0 0 1 20.4-20.82 38.338 38.338 0 0 1 14.64-2.83l3.73.25c1.24.17 2.47.41 3.69.61 1.22.2 2.4.67 3.6 1 1.2.33 2.31.9 3.46 1.35a36.876 36.876 0 0 1 11.87 8.61 38.684 38.684 0 0 1 10.1 26.34Zm-.4 0-.23-3.52c-.17-1.16-.38-2.32-.57-3.48-.19-1.16-.63-2.26-.94-3.39-.31-1.13-.85-2.18-1.27-3.27a34.296 34.296 0 0 0-8.15-11.18A35.836 35.836 0 0 0 113 79.53c-1.08-.35-2.14-.74-3.22-1s-2.2-.5-3.3-.72c-1.1-.22-2.22-.31-3.34-.43l-3.36-.11a36.53 36.53 0 0 0-13.06 2.68 35.53 35.53 0 0 0-11.13 7.33l-1.17 1.21c-.19.21-.39.4-.58.61l-.53.65-1.08 1.3-1 1.37-.49.69c-.15.23-.29.48-.44.72l-.86 1.45c-.28.48-.51 1-.77 1.5s-.52 1-.71 1.53a33.999 33.999 0 0 0-2.8 13.17l.13 3.4c.15 1.12.24 2.25.48 3.36.24 1.11.5 2.22.77 3.32.27 1.1.68 2.17 1.13 3.21.45 1.04.92 2.08 1.41 3.11.49 1.03 1.1 2 1.74 2.93a32.8 32.8 0 0 0 4.28 5.33 34.857 34.857 0 0 0 24.66 10.53 36.078 36.078 0 0 0 25.28-9.92 34.14 34.14 0 0 0 8-11.51l.67-1.64c.2-.55.35-1.12.53-1.68.18-.56.36-1.13.51-1.7l.36-1.73c.491-2.321.725-4.688.7-7.06Z" fill="#331E08"/><path d="M99.82 139.68c15.602 0 28.25-12.648 28.25-28.25s-12.648-28.25-28.25-28.25-28.25 12.648-28.25 28.25 12.648 28.25 28.25 28.25Z" fill="#331E08"/><path d="M128.27 111.43a30 30 0 0 1-8.18 20.28 28.813 28.813 0 0 1-9.17 6.51 29.322 29.322 0 0 1-22.464.284A29.315 29.315 0 0 1 72.39 122.8 29.996 29.996 0 0 1 70 111.43a30.28 30.28 0 0 1 8.47-21.36 30.001 30.001 0 0 1 9.77-6.64 29.432 29.432 0 0 1 11.6-2.23l3 .21c1 .15 1.94.33 2.91.5.97.17 1.9.54 2.84.81s1.83.73 2.73 1.09a28.628 28.628 0 0 1 9.29 6.9 30.688 30.688 0 0 1 7.66 20.72Zm-.4 0-.19-2.74c-.13-.91-.3-1.81-.45-2.71-.15-.9-.51-1.76-.75-2.63-.24-.87-.68-1.7-1-2.54a26.285 26.285 0 0 0-6.42-8.6 28.349 28.349 0 0 0-19.23-7.05 27.451 27.451 0 0 0-10 2.08 26.53 26.53 0 0 0-16.65 24.19 26.92 26.92 0 0 0 7.6 19.07 27.21 27.21 0 0 0 19.07 8.2 27.999 27.999 0 0 0 19.68-7.58 26.912 26.912 0 0 0 6.24-9c.31-.86.66-1.71.94-2.59.28-.88.5-1.77.68-2.67.18-.9.28-1.81.39-2.72l.09-2.71Z" fill="#231405"/><path d="M89.55 117.97a6.54 6.54 0 1 0 0-13.08 6.54 6.54 0 0 0 0 13.08Z" fill="#FFCC7B"/><path d="M96.28 111.43a8.67 8.67 0 0 1-1.82 4.92 6.742 6.742 0 0 1-4.91 2.61 7.724 7.724 0 0 1-5.56-2 7.993 7.993 0 0 1-2.57-5.56 8.62 8.62 0 0 1 2.11-6 7.606 7.606 0 0 1 6-2.51 6.835 6.835 0 0 1 3.13 1 7.111 7.111 0 0 1 2.24 2.19 9.29 9.29 0 0 1 1.38 5.35Zm-.4 0a4.56 4.56 0 0 0-.75-2.31 4.786 4.786 0 0 0-1.71-1.56 6.003 6.003 0 0 0-2-.64 7.82 7.82 0 0 0-1.86 0 6.153 6.153 0 0 0-3.24 1.32 4.51 4.51 0 0 0-1.71 3.23 5.001 5.001 0 0 0 1.26 3.69 5.374 5.374 0 0 0 3.69 1.86 6.272 6.272 0 0 0 4.32-1.22 5.153 5.153 0 0 0 2-4.37Z" fill="#231405"/><path d="M109.8 117.97a6.54 6.54 0 1 0 0-13.08 6.54 6.54 0 0 0 0 13.08Z" fill="#FFCC7B"/><path d="M116.54 111.43a8.67 8.67 0 0 1-1.82 4.92 6.765 6.765 0 0 1-4.92 2.65 7.687 7.687 0 0 1-5.55-2 7.987 7.987 0 0 1-2.57-5.56 8.521 8.521 0 0 1 2.11-6 7.598 7.598 0 0 1 6-2.51 6.787 6.787 0 0 1 3.13 1 7.117 7.117 0 0 1 2.24 2.19 9.225 9.225 0 0 1 1.38 5.31Zm-.4 0a4.629 4.629 0 0 0-.72-2.264 4.635 4.635 0 0 0-1.75-1.606 6.005 6.005 0 0 0-2-.64 7.904 7.904 0 0 0-1.87 0 6.081 6.081 0 0 0-3.23 1.32 4.525 4.525 0 0 0-1.72 3.23 5.094 5.094 0 0 0 1.26 3.69 5.4 5.4 0 0 0 3.69 1.84 6.3 6.3 0 0 0 4.33-1.22 5.153 5.153 0 0 0 2.01-4.35Z" fill="#231405"/><path d="M224.66 111.43a36.19 36.19 0 0 1-72.2 3.53c-.11-1.17-.17-2.34-.17-3.53a36.178 36.178 0 0 1 10.383-25.978 36.188 36.188 0 0 1 59.407 11.945 36.178 36.178 0 0 1 2.58 14.033Z" fill="#593315"/><path d="M224.86 111.43a34.468 34.468 0 0 1-.74 7.09c-.21 1.17-.54 2.32-.84 3.47-.16.57-.38 1.12-.57 1.69-.18.567-.391 1.125-.63 1.67l-.69 1.64-.8 1.6c-.14.27-.26.54-.41.8l-.45.77c-.31.51-.6 1-.93 1.53a40.039 40.039 0 0 1-4.44 5.62 36.818 36.818 0 0 1-11.75 8.23 36.423 36.423 0 0 1-14.12 3.07 36.81 36.81 0 0 1-14.28-2.7 37.737 37.737 0 0 1-20.79-49 37.467 37.467 0 0 1 20.42-20.81 37.386 37.386 0 0 1 14.64-2.83l1.87.09.94.06.92.11 1.86.24 1.83.37a34.853 34.853 0 0 1 7.06 2.35c1.14.47 2.21 1.11 3.3 1.69l1.56 1a17.86 17.86 0 0 1 1.52 1.05 35.828 35.828 0 0 1 5.47 4.89 38.455 38.455 0 0 1 7.56 12.29 37.1 37.1 0 0 1 1.9 6.91c.43 2.345.628 4.726.59 7.11Zm-.39 0a36.612 36.612 0 0 0-.8-7 34.705 34.705 0 0 0-2.21-6.66 27.466 27.466 0 0 0-1.62-3.09c-.31-.5-.58-1-.91-1.49l-1-1.44c-.31-.48-.71-.91-1.06-1.37-.35-.46-.72-.9-1.13-1.32l-1.18-1.27-1.25-1.18a34.256 34.256 0 0 0-5.5-4.11 16.519 16.519 0 0 0-1.48-.85l-1.5-.8c-1.05-.45-2.06-.95-3.14-1.31a32.45 32.45 0 0 0-3.21-1c-.54-.17-1.1-.26-1.65-.39-.55-.13-1.09-.25-1.65-.33l-1.66-.27-1.68-.15-.84-.07h-2.52a35.39 35.39 0 0 0-24.2 10 34.203 34.203 0 0 0-7.61 11 34.37 34.37 0 0 0-.28 26.47 35.05 35.05 0 0 0 32.1 21.9 34.619 34.619 0 0 0 13.51-2.53 35.99 35.99 0 0 0 11.73-7.45 38.697 38.697 0 0 0 4.56-5.34c.34-.48.64-1 1-1.49l.47-.74c.15-.26.28-.52.42-.78l.83-1.55.71-1.62c.249-.536.462-1.087.64-1.65.19-.55.42-1.1.58-1.67.344-1.127.628-2.272.85-3.43.472-2.31.7-4.663.68-7.02Z" fill="#331E08"/><path d="M188.48 139.68c15.602 0 28.25-12.648 28.25-28.25s-12.648-28.25-28.25-28.25-28.25 12.648-28.25 28.25 12.648 28.25 28.25 28.25Z" fill="#331E08"/><path d="M216.93 111.43a30.08 30.08 0 0 1-8.18 20.28 28.74 28.74 0 0 1-9.18 6.51 28.533 28.533 0 0 1-11.132 2.461 28.532 28.532 0 0 1-11.208-2.091 29.635 29.635 0 0 1-18.59-27.16 30.28 30.28 0 0 1 8.47-21.36 29.991 29.991 0 0 1 9.77-6.64 29.43 29.43 0 0 1 11.6-2.23l2.95.21c1 .15 1.95.33 2.92.5.97.17 1.9.54 2.84.81s1.82.73 2.73 1.09a28.628 28.628 0 0 1 9.29 6.9 30.69 30.69 0 0 1 7.72 20.72Zm-.4 0-.19-2.74c-.13-.91-.31-1.81-.46-2.71-.15-.9-.5-1.76-.74-2.63-.24-.87-.68-1.7-1-2.54a26.4 26.4 0 0 0-6.41-8.6 28.36 28.36 0 0 0-19.23-7.05 27.452 27.452 0 0 0-10 2.08 26.528 26.528 0 0 0-16.65 24.19 26.902 26.902 0 0 0 16.29 25 27.383 27.383 0 0 0 10.38 2.22 27.999 27.999 0 0 0 19.68-7.58 26.912 26.912 0 0 0 6.24-9c.31-.86.66-1.71.94-2.59.28-.88.5-1.77.68-2.67.18-.9.28-1.81.39-2.72l.08-2.66Z" fill="#231405"/><path d="M178.2 117.97a6.54 6.54 0 1 0 0-13.08 6.54 6.54 0 0 0 0 13.08Z" fill="#FFCC7B"/><path d="M184.94 111.43a8.67 8.67 0 0 1-1.82 4.92 6.745 6.745 0 0 1-4.92 2.65 7.713 7.713 0 0 1-5.55-2 7.998 7.998 0 0 1-2.57-5.56 8.623 8.623 0 0 1 2.11-6 7.714 7.714 0 0 1 2.72-1.93 7.6 7.6 0 0 1 3.29-.58 6.822 6.822 0 0 1 3.14 1 7.117 7.117 0 0 1 2.24 2.19 9.29 9.29 0 0 1 1.36 5.31Zm-.4 0a4.565 4.565 0 0 0-.75-2.31 4.787 4.787 0 0 0-1.71-1.56 6.105 6.105 0 0 0-2-.64 7.799 7.799 0 0 0-1.87 0 6.149 6.149 0 0 0-3.21 1.28 4.557 4.557 0 0 0-1.72 3.23 5.094 5.094 0 0 0 1.26 3.69 5.4 5.4 0 0 0 3.66 1.88 6.289 6.289 0 0 0 4.33-1.22 5.153 5.153 0 0 0 2.01-4.35Z" fill="#231405"/><path d="M198.46 117.97a6.54 6.54 0 1 0 0-13.08 6.54 6.54 0 0 0 0 13.08Z" fill="#FFCC7B"/><path d="M205.19 111.43a8.59 8.59 0 0 1-1.81 4.92 6.78 6.78 0 0 1-4.92 2.61 7.723 7.723 0 0 1-5.56-2 8.002 8.002 0 0 1-2.56-5.56 8.521 8.521 0 0 1 2.11-6 7.598 7.598 0 0 1 6-2.51 6.787 6.787 0 0 1 3.13 1 7.117 7.117 0 0 1 2.24 2.19 9.141 9.141 0 0 1 1.37 5.35Zm-.39 0a4.629 4.629 0 0 0-.72-2.264 4.635 4.635 0 0 0-1.75-1.606 6.005 6.005 0 0 0-2-.64 7.904 7.904 0 0 0-1.87 0 6.081 6.081 0 0 0-3.23 1.32 4.525 4.525 0 0 0-1.72 3.23 5.094 5.094 0 0 0 1.26 3.69 5.398 5.398 0 0 0 3.69 1.86 6.3 6.3 0 0 0 4.33-1.22 5.15 5.15 0 0 0 2.01-4.37Z" fill="#231405"/></svg>